<svg xmlns="http://www.w3.org/2000/svg" width="512" height="512" viewBox="0 0 512 512" data-unit="px" data-scale-status="unknown" data-px-to-mm="" data-scale-source="scale_conflict_door_vs_wall">
  <g id="floor">
    <polygon id="floor_0" class="floor" points="0.0,59.0 0.0,152.0 27.0,152.0 27.0,182.0 27.0,401.0 106.0,401.0 106.0,462.0 161.0,462.0 161.0,400.0 254.0,400.0 254.0,315.0 283.0,315.0 283.0,192.0 255.0,192.0 255.0,110.0 211.0,110.0 211.0,80.0 185.0,80.0 185.0,107.0 140.0,107.0 140.0,74.0 105.0,74.0 105.0,108.0 80.0,108.0 80.0,59.0" fill="#ffffff" stroke="none" />
  </g>
  <g id="wall">
    <path d="M 102.00,71.00 102.00,96.00 108.00,96.00 108.00,77.00 137.00,77.00 137.00,110.00 188.00,110.00 188.00,83.00 208.00,83.00 208.00,110.00 214.00,110.00 214.00,77.00 182.00,77.00 182.00,104.00 143.00,104.00 143.00,71.00 102.00,71.00 Z M 3.00,149.00 3.00,62.00 77.00,62.00 77.00,78.00 83.00,78.00 83.00,56.00 -3.00,56.00 -3.00,155.00 20.00,155.00 20.00,149.00 3.00,149.00 Z M 92.00,111.00 105.00,111.00 105.00,105.00 92.00,105.00 92.00,111.00 Z M 149.00,183.00 149.00,189.00 174.00,189.00 174.00,188.00 177.00,188.00 177.00,124.00 178.00,124.00 178.00,118.00 173.00,118.00 173.00,121.00 171.00,121.00 171.00,183.00 149.00,183.00 Z M 98.00,120.00 98.00,200.00 104.00,200.00 104.00,120.00 98.00,120.00 Z M 139.00,211.00 139.00,170.00 133.00,170.00 133.00,211.00 139.00,211.00 Z M 99.00,215.00 105.00,215.00 105.00,213.00 99.00,213.00 99.00,215.00 Z M 177.00,258.00 177.00,205.00 171.00,205.00 171.00,252.00 149.00,252.00 149.00,258.00 177.00,258.00 Z M 24.00,152.00 24.00,404.00 75.00,404.00 75.00,398.00 30.00,398.00 30.00,152.00 24.00,152.00 Z M 181.00,335.00 181.00,300.00 175.00,300.00 175.00,335.00 181.00,335.00 Z M 109.00,398.00 92.00,398.00 92.00,404.00 103.00,404.00 103.00,465.00 134.00,465.00 134.00,459.00 109.00,459.00 109.00,398.00 Z M 164.00,465.00 164.00,434.00 158.00,434.00 158.00,459.00 154.00,459.00 154.00,465.00 164.00,465.00 Z M 258.00,107.00 230.00,107.00 230.00,113.00 252.00,113.00 252.00,147.00 258.00,147.00 258.00,107.00 Z M 382.00,120.00 376.00,120.00 376.00,150.00 324.00,150.00 324.00,116.00 379.00,116.00 379.00,110.00 318.00,110.00 318.00,257.00 324.00,257.00 324.00,156.00 376.00,156.00 376.00,201.00 382.00,201.00 382.00,120.00 Z M 252.00,192.00 258.00,192.00 258.00,176.00 252.00,176.00 252.00,192.00 Z M 286.00,189.00 268.00,189.00 268.00,195.00 280.00,195.00 280.00,224.00 286.00,224.00 286.00,189.00 Z M 280.00,286.00 280.00,300.00 286.00,300.00 286.00,286.00 280.00,286.00 Z M 283.00,312.00 268.00,312.00 268.00,318.00 283.00,318.00 283.00,312.00 Z M 382.00,330.00 382.00,309.00 376.00,309.00 376.00,330.00 382.00,330.00 Z M 251.00,315.00 251.00,317.76 246.12,312.88 241.88,317.12 251.00,326.24 251.00,329.00 257.00,329.00 257.00,315.00 251.00,315.00 Z M 181.00,372.00 181.00,349.00 175.00,349.00 175.00,372.00 181.00,372.00 Z M 216.00,403.00 257.00,403.00 257.00,356.00 251.00,356.00 251.00,397.00 216.00,397.00 216.00,403.00 Z M 164.00,405.00 164.00,403.00 202.00,403.00 202.00,397.00 158.00,397.00 158.00,405.00 164.00,405.00 Z M 512.00,153.00 512.00,111.00 439.00,111.00 439.00,117.00 506.00,117.00 506.00,147.00 442.00,147.00 442.00,120.00 436.00,120.00 436.00,153.00 512.00,153.00 Z M 438.00,188.00 444.00,188.00 444.00,163.00 438.00,163.00 438.00,188.00 Z M 441.00,197.00 441.00,210.00 447.00,210.00 447.00,197.00 441.00,197.00 Z M 509.00,247.00 438.00,247.00 438.00,253.00 509.00,253.00 509.00,247.00 Z M 383.00,281.00 383.00,250.00 377.00,250.00 377.00,281.00 383.00,281.00 Z M 377.00,308.00 383.00,308.00 383.00,282.00 377.00,282.00 377.00,308.00 Z M 416.00,294.00 410.00,294.00 410.00,346.00 399.00,346.00 399.00,350.00 394.00,350.00 394.00,365.00 400.00,365.00 400.00,352.00 509.00,352.00 509.00,348.00 512.00,348.00 512.00,344.00 506.00,344.00 506.00,346.00 441.00,346.00 441.00,294.00 435.00,294.00 435.00,346.00 416.00,346.00 416.00,294.00 Z M 506.00,354.00 506.00,383.00 400.00,383.00 400.00,374.00 394.00,374.00 394.00,383.00 382.00,383.00 382.00,347.00 318.00,347.00 318.00,389.00 512.00,389.00 512.00,354.00 506.00,354.00 Z M 324.00,353.00 376.00,353.00 376.00,383.00 324.00,383.00 324.00,353.00 Z" fill="#000000" fill-rule="evenodd" stroke="none" id="wall_polygon" />
  </g>
  <g id="window">
    <path d="M 377.50,120.00 380.50,120.00 380.50,109.00 377.50,109.00 377.50,120.00 Z" fill="#3c78dc" fill-rule="evenodd" stroke="none" id="window_0001" data-type="window" />
    <path d="M 440.50,109.00 437.50,109.00 437.50,120.00 440.50,120.00 440.50,109.00 Z" fill="#3c78dc" fill-rule="evenodd" stroke="none" id="window_0002" data-type="window" />
    <path d="M 73.00,106.50 73.00,109.50 92.00,109.50 92.00,106.50 73.00,106.50 Z" fill="#3c78dc" fill-rule="evenodd" stroke="none" id="window_0004" data-type="window" />
    <path d="M 196.00,108.50 196.00,111.50 230.00,111.50 230.00,108.50 196.00,108.50 Z" fill="#3c78dc" fill-rule="evenodd" stroke="none" id="window_0005" data-type="window" />
    <path d="M 34.00,153.50 34.00,150.50 20.00,150.50 20.00,153.50 34.00,153.50 Z" fill="#3c78dc" fill-rule="evenodd" stroke="none" id="window_0006" data-type="window" />
    <path d="M 256.50,147.00 253.50,147.00 253.50,176.00 256.50,176.00 256.50,147.00 Z" fill="#3c78dc" fill-rule="evenodd" stroke="none" id="window_0007" data-type="window" />
    <path d="M 249.00,190.50 249.00,193.50 268.00,193.50 268.00,190.50 249.00,190.50 Z" fill="#3c78dc" fill-rule="evenodd" stroke="none" id="window_0009" data-type="window" />
    <path d="M 284.50,224.00 281.50,224.00 281.50,282.00 284.50,282.00 284.50,224.00 Z" fill="#3c78dc" fill-rule="evenodd" stroke="none" id="window_0010" data-type="window" />
    <path d="M 284.50,269.00 281.50,269.00 281.50,333.00 284.50,333.00 284.50,269.00 Z" fill="#3c78dc" fill-rule="evenodd" stroke="none" id="window_0011" data-type="window" />
    <path d="M 268.00,316.50 268.00,313.50 249.00,313.50 249.00,316.50 268.00,316.50 Z" fill="#3c78dc" fill-rule="evenodd" stroke="none" id="window_0013" data-type="window" />
    <path d="M 255.50,329.00 252.50,329.00 252.50,356.00 255.50,356.00 255.50,329.00 Z" fill="#3c78dc" fill-rule="evenodd" stroke="none" id="window_0014" data-type="window" />
    <path d="M 216.00,401.50 216.00,398.50 202.00,398.50 202.00,401.50 216.00,401.50 Z" fill="#3c78dc" fill-rule="evenodd" stroke="none" id="window_0015" data-type="window" />
    <path d="M 92.00,402.50 92.00,399.50 75.00,399.50 75.00,402.50 92.00,402.50 Z" fill="#3c78dc" fill-rule="evenodd" stroke="none" id="window_0016" data-type="window" />
    <path d="M 162.50,405.00 159.50,405.00 159.50,434.00 162.50,434.00 162.50,405.00 Z" fill="#3c78dc" fill-rule="evenodd" stroke="none" id="window_0017" data-type="window" />
  </g>
  <g id="door">
    <g id="door_0002" data-type="door"><line id="door_origin_0002" data-type="door_origin" x1="80.00" y1="107.00" x2="80.00" y2="78.00" stroke="#a046b4" stroke-width="2" stroke-linecap="square" /><line id="door_leaf_0002" data-type="door_leaf" x1="80.00" y1="107.00" x2="51.00" y2="107.00" stroke="#eb8c50" stroke-width="1.5" /><path id="door_arc_0002" data-type="door_arc" d="M 80.00 78.00 A 29.00 29.00 0 0 0 51.00 107.00" fill="none" stroke="#dc5a5a" stroke-width="1.5" /></g>
    <g id="door_0004" data-type="door"><line id="door_origin_0004" data-type="door_origin" x1="105.00" y1="96.00" x2="105.00" y2="107.00" stroke="#a046b4" stroke-width="2" stroke-linecap="square" /><line id="door_leaf_0004" data-type="door_leaf" x1="105.00" y1="96.00" x2="116.00" y2="96.00" stroke="#eb8c50" stroke-width="1.5" /><path id="door_arc_0004" data-type="door_arc" d="M 105.00 107.00 A 11.00 11.00 0 0 0 116.00 96.00" fill="none" stroke="#dc5a5a" stroke-width="1.5" /></g>
    <g id="door_0006" data-type="door"><line id="door_origin_0006" data-type="door_origin" x1="98.00" y1="120.00" x2="112.00" y2="120.00" stroke="#a046b4" stroke-width="2" stroke-linecap="square" /><line id="door_leaf_0006" data-type="door_leaf" x1="112.00" y1="120.00" x2="112.00" y2="106.00" stroke="#eb8c50" stroke-width="1.5" /><path id="door_arc_0006" data-type="door_arc" d="M 98.00 120.00 A 14.00 14.00 0 0 1 112.00 106.00" fill="none" stroke="#dc5a5a" stroke-width="1.5" /></g>
    <g id="door_0007" data-type="door"><line id="door_origin_0007" data-type="door_origin" x1="178.50" y1="120.93" x2="191.51" y2="120.93" stroke="#a046b4" stroke-width="2" stroke-linecap="square" /><line id="door_leaf_0007" data-type="door_leaf" x1="191.51" y1="120.93" x2="191.51" y2="107.92" stroke="#eb8c50" stroke-width="1.5" /><path id="door_arc_0007" data-type="door_arc" d="M 178.50 120.93 A 13.01 13.01 0 0 1 191.51 107.92" fill="none" stroke="#dc5a5a" stroke-width="1.5" /></g>
    <g id="door_0009" data-type="door"><line id="door_origin_0009" data-type="door_origin" x1="20.50" y1="152.00" x2="33.50" y2="152.00" stroke="#a046b4" stroke-width="2" stroke-linecap="square" /><line id="door_leaf_0009" data-type="door_leaf" x1="33.50" y1="152.00" x2="33.50" y2="165.00" stroke="#eb8c50" stroke-width="1.5" /><path id="door_arc_0009" data-type="door_arc" d="M 20.50 152.00 A 13.00 13.00 0 0 0 33.50 165.00" fill="none" stroke="#dc5a5a" stroke-width="1.5" /></g>
    <g id="door_0010" data-type="door"><line id="door_origin_0010" data-type="door_origin" x1="136.00" y1="154.00" x2="136.00" y2="170.00" stroke="#a046b4" stroke-width="2" stroke-linecap="square" /><line id="door_leaf_0010" data-type="door_leaf" x1="136.00" y1="154.00" x2="152.00" y2="154.00" stroke="#eb8c50" stroke-width="1.5" /><path id="door_arc_0010" data-type="door_arc" d="M 136.00 170.00 A 16.00 16.00 0 0 0 152.00 154.00" fill="none" stroke="#dc5a5a" stroke-width="1.5" /></g>
    <g id="door_0012" data-type="door"><line id="door_origin_0012" data-type="door_origin" x1="139.00" y1="185.99" x2="149.00" y2="185.99" stroke="#a046b4" stroke-width="2" stroke-linecap="square" /><line id="door_leaf_0012" data-type="door_leaf" x1="139.00" y1="185.99" x2="139.00" y2="175.98" stroke="#eb8c50" stroke-width="1.5" /><path id="door_arc_0012" data-type="door_arc" d="M 149.00 185.99 A 10.00 10.00 0 0 0 139.00 175.98" fill="none" stroke="#dc5a5a" stroke-width="1.5" /></g>
    <g id="door_0014" data-type="door"><line id="door_origin_0014" data-type="door_origin" x1="379.00" y1="201.00" x2="379.00" y2="231.00" stroke="#a046b4" stroke-width="2" stroke-linecap="square" /><line id="door_leaf_0014" data-type="door_leaf" x1="379.00" y1="231.00" x2="349.00" y2="231.00" stroke="#eb8c50" stroke-width="1.5" /><path id="door_arc_0014" data-type="door_arc" d="M 379.00 201.00 A 30.00 30.00 0 0 0 349.00 231.00" fill="none" stroke="#dc5a5a" stroke-width="1.5" /></g>
    <g id="door_0016" data-type="door"><line id="door_origin_0016" data-type="door_origin" x1="101.34" y1="230.06" x2="101.34" y2="200.05" stroke="#a046b4" stroke-width="2" stroke-linecap="square" /><line id="door_leaf_0016" data-type="door_leaf" x1="101.34" y1="230.06" x2="71.33" y2="230.06" stroke="#eb8c50" stroke-width="1.5" /><path id="door_arc_0016" data-type="door_arc" d="M 101.34 200.05 A 30.01 30.01 0 0 0 71.33 230.06" fill="none" stroke="#dc5a5a" stroke-width="1.5" /></g>
    <g id="door_0018" data-type="door"><line id="door_origin_0018" data-type="door_origin" x1="438.05" y1="296.50" x2="438.05" y2="269.50" stroke="#a046b4" stroke-width="2" stroke-linecap="square" /><line id="door_leaf_0018" data-type="door_leaf" x1="438.05" y1="269.50" x2="411.04" y2="269.50" stroke="#eb8c50" stroke-width="1.5" /><path id="door_arc_0018" data-type="door_arc" d="M 438.05 296.50 A 27.01 27.01 0 0 1 411.04 269.50" fill="none" stroke="#dc5a5a" stroke-width="1.5" /></g>
    <g id="door_0019" data-type="door"><line id="door_origin_0019" data-type="door_origin" x1="139.00" y1="254.51" x2="149.00" y2="254.51" stroke="#a046b4" stroke-width="2" stroke-linecap="square" /><line id="door_leaf_0019" data-type="door_leaf" x1="139.00" y1="254.51" x2="139.00" y2="264.51" stroke="#eb8c50" stroke-width="1.5" /><path id="door_arc_0019" data-type="door_arc" d="M 149.00 254.51 A 10.00 10.00 0 0 1 139.00 264.51" fill="none" stroke="#dc5a5a" stroke-width="1.5" /></g>
    <g id="door_0022" data-type="door"><line id="door_origin_0022" data-type="door_origin" x1="177.50" y1="335.00" x2="177.50" y2="349.00" stroke="#a046b4" stroke-width="2" stroke-linecap="square" /><line id="door_leaf_0022" data-type="door_leaf" x1="177.50" y1="349.00" x2="163.50" y2="349.00" stroke="#eb8c50" stroke-width="1.5" /><path id="door_arc_0022" data-type="door_arc" d="M 177.50 335.00 A 14.00 14.00 0 0 0 163.50 349.00" fill="none" stroke="#dc5a5a" stroke-width="1.5" /></g>
    <g id="door_0024" data-type="door"><line id="door_origin_0024" data-type="door_origin" x1="134.00" y1="462.00" x2="154.00" y2="462.00" stroke="#a046b4" stroke-width="2" stroke-linecap="square" /><line id="door_leaf_0024" data-type="door_leaf" x1="134.00" y1="462.00" x2="134.00" y2="482.00" stroke="#eb8c50" stroke-width="1.5" /><path id="door_arc_0024" data-type="door_arc" d="M 154.00 462.00 A 20.00 20.00 0 0 1 134.00 482.00" fill="none" stroke="#dc5a5a" stroke-width="1.5" /></g>
  </g>
</svg>
