<svg xmlns="http://www.w3.org/2000/svg" width="512" height="512" viewBox="0 0 512 512" data-unit="px" data-scale-status="unknown">
  <g id="floor">
    <polygon id="floor_0" class="floor" points="511.0,30.0 42.0,30.0 42.0,486.0 278.0,486.0 278.0,511.0 342.0,511.0 342.0,423.0 342.0,346.0 447.0,346.0 447.0,179.0 511.0,179.0" fill="#f5f0e8" stroke="none" />
  </g>
  <g id="rooms">
    <polygon id="room_0001" points="499.00,58.00 79.00,57.00 78.00,256.00 357.00,258.00 319.00,158.00 497.00,163.00" fill="rgba(80,160,220,0.40)" stroke="#3388aa" stroke-width="1" />
    <polygon id="room_0002" points="389.00,171.00 388.00,241.00 417.00,261.00 423.00,342.00 443.00,203.00 432.00,239.00 425.00,211.00 392.00,198.00 406.00,171.00" fill="rgba(80,160,220,0.40)" stroke="#3388aa" stroke-width="1" />
    <polygon id="room_0003" points="78.00,265.00 79.00,329.00 148.00,333.00 147.00,315.00 188.00,317.00 188.00,333.00 227.00,332.00 213.00,264.00" fill="rgba(80,160,220,0.40)" stroke="#3388aa" stroke-width="1" />
    <polygon id="room_0004" points="243.00,264.00 234.00,325.00 266.00,282.00 286.00,366.00 340.00,372.00 285.00,406.00 285.00,471.00 338.00,474.00 358.00,287.00" fill="rgba(80,160,220,0.40)" stroke="#3388aa" stroke-width="1" />
    <polygon id="room_0005" points="78.00,346.00 80.00,439.00 92.00,419.00 118.00,439.00 275.00,446.00 273.00,364.00 230.00,366.00 220.00,340.00 104.00,340.00 86.00,359.00" fill="rgba(80,160,220,0.40)" stroke="#3388aa" stroke-width="1" />
    <polygon id="room_0006" points="236.00,341.00 255.00,341.00 269.00,344.00 271.00,340.00" fill="rgba(80,160,220,0.10)" stroke="#3388aa" stroke-width="1" />
    <polygon id="room_0007" points="80.00,445.00 82.00,452.00 98.00,454.00 91.00,470.00 126.00,469.00 109.00,465.00 111.00,452.00 124.00,455.00 123.00,445.00" fill="rgba(80,160,220,0.14)" stroke="#3388aa" stroke-width="1" />
  </g>
  <g id="walls">
    <line id="wall_0000" x1="70.00" y1="46.50" x2="502.00" y2="46.50" stroke="#222222" stroke-width="12.00" stroke-linecap="square" />
    <line id="wall_0001" x1="373.00" y1="178.00" x2="373.00" y2="401.00" stroke="#222222" stroke-width="12.00" stroke-linecap="square" />
    <line id="wall_0002" x1="64.00" y1="260.50" x2="217.00" y2="260.50" stroke="#222222" stroke-width="12.00" stroke-linecap="square" />
    <line id="wall_0003" x1="505.00" y1="50.00" x2="505.00" y2="163.00" stroke="#222222" stroke-width="12.00" stroke-linecap="square" />
    <line id="wall_0004" x1="49.00" y1="380.00" x2="49.00" y2="418.00" stroke="#888888" stroke-width="12.00" stroke-linecap="square" />
    <line id="wall_0005" x1="63.00" y1="53.00" x2="63.00" y2="132.00" stroke="#222222" stroke-width="12.00" stroke-linecap="square" />
    <line id="wall_0006" x1="384.00" y1="167.00" x2="501.00" y2="167.00" stroke="#222222" stroke-width="12.00" stroke-linecap="square" />
    <line id="wall_0007" x1="77.00" y1="148.00" x2="77.00" y2="198.00" stroke="#222222" stroke-width="12.00" stroke-linecap="square" />
    <line id="wall_0008" x1="74.00" y1="475.00" x2="129.00" y2="475.00" stroke="#222222" stroke-width="12.00" stroke-linecap="square" />
    <line id="wall_0009" x1="62.00" y1="335.00" x2="267.00" y2="335.00" stroke="#222222" stroke-width="12.00" stroke-linecap="square" />
    <line id="wall_0010" x1="49.00" y1="149.00" x2="49.00" y2="198.00" stroke="#222222" stroke-width="12.00" stroke-linecap="square" />
    <line id="wall_0011" x1="134.00" y1="469.44" x2="274.00" y2="469.44" stroke="#222222" stroke-width="12.00" stroke-linecap="square" />
    <line id="wall_0012" x1="63.00" y1="212.00" x2="63.00" y2="265.00" stroke="#222222" stroke-width="12.00" stroke-linecap="square" />
    <line id="wall_0013" x1="232.00" y1="362.00" x2="279.00" y2="362.00" stroke="#222222" stroke-width="12.00" stroke-linecap="square" />
    <line id="wall_0014" x1="337.00" y1="261.00" x2="372.00" y2="261.00" stroke="#888888" stroke-width="12.00" stroke-linecap="square" />
    <line id="wall_0015" x1="49.50" y1="279.99" x2="49.50" y2="301.01" stroke="#cccccc" stroke-width="12.00" stroke-linecap="square" />
    <line id="wall_0016" x1="279.50" y1="408.00" x2="279.50" y2="461.00" stroke="#222222" stroke-width="12.00" stroke-linecap="square" />
    <line id="wall_0017" x1="62.00" y1="311.98" x2="62.00" y2="356.02" stroke="#222222" stroke-width="12.00" stroke-linecap="square" />
    <line id="wall_0018_s0" x1="236.99" y1="261.50" x2="241.50" y2="261.50" stroke="#888888" stroke-width="12.00" stroke-linecap="square" />
    <line id="wall_0019" x1="230.00" y1="337.00" x2="230.00" y2="360.00" stroke="#cccccc" stroke-width="12.00" stroke-linecap="square" />
    <line id="wall_0020" x1="299.00" y1="369.00" x2="318.00" y2="369.00" stroke="#cccccc" stroke-width="12.00" stroke-linecap="square" />
    <line id="wall_0021" x1="279.00" y1="338.00" x2="279.00" y2="365.00" stroke="#888888" stroke-width="12.00" stroke-linecap="square" />
    <line id="wall_0022" x1="309.00" y1="473.00" x2="329.00" y2="473.00" stroke="#cccccc" stroke-width="12.00" stroke-linecap="square" />
    <line id="wall_0023" x1="348.00" y1="454.00" x2="361.00" y2="437.00" stroke="#cccccc" stroke-width="12.00" stroke-linecap="square" />
    <line id="wall_0024" x1="77.00" y1="380.00" x2="77.00" y2="418.00" stroke="#888888" stroke-width="12.00" stroke-linecap="square" />
    <line id="wall_0025" x1="361.00" y1="435.00" x2="372.00" y2="403.00" stroke="#888888" stroke-width="12.00" stroke-linecap="square" />
    <line id="wall_0026" x1="62.00" y1="441.00" x2="62.00" y2="462.00" stroke="#cccccc" stroke-width="12.00" stroke-linecap="square" />
    <line id="wall_0027" x1="70.98" y1="441.50" x2="86.02" y2="441.50" stroke="#cccccc" stroke-width="12.00" stroke-linecap="square" />
    <line id="wall_0028" x1="129.00" y1="443.00" x2="129.00" y2="462.00" stroke="#cccccc" stroke-width="12.00" stroke-linecap="square" />
    <line id="wall_0030" x1="77.00" y1="281.00" x2="77.00" y2="299.00" stroke="#cccccc" stroke-width="12.00" stroke-linecap="square" />
    <line id="wall_0031" x1="118.00" y1="442.00" x2="128.00" y2="442.00" stroke="#cccccc" stroke-width="12.00" stroke-linecap="square" />
    <line id="wall_0032" x1="50.00" y1="420.00" x2="62.00" y2="432.00" stroke="#cccccc" stroke-width="12.00" stroke-linecap="square" />
    <line id="wall_0033" x1="65.00" y1="267.00" x2="76.00" y2="278.00" stroke="#cccccc" stroke-width="12.00" stroke-linecap="square" />
    <line id="wall_0034" x1="50.00" y1="200.00" x2="62.00" y2="212.00" stroke="#cccccc" stroke-width="12.00" stroke-linecap="square" />
    <line id="wall_0035" x1="51.00" y1="302.00" x2="62.00" y2="313.00" stroke="#cccccc" stroke-width="12.00" stroke-linecap="square" />
    <line id="wall_0036" x1="64.00" y1="431.00" x2="76.00" y2="419.00" stroke="#cccccc" stroke-width="12.00" stroke-linecap="square" />
    <line id="wall_0037" x1="69.00" y1="369.00" x2="76.00" y2="379.00" stroke="#cccccc" stroke-width="12.00" stroke-linecap="square" />
    <line id="wall_0038" x1="218.00" y1="262.00" x2="228.00" y2="271.00" stroke="#cccccc" stroke-width="12.00" stroke-linecap="square" />
    <line id="wall_0039" x1="62.00" y1="314.00" x2="76.00" y2="300.00" stroke="#cccccc" stroke-width="12.00" stroke-linecap="square" />
    <line id="wall_0040" x1="63.98" y1="441.50" x2="79.02" y2="441.50" stroke="#cccccc" stroke-width="12.00" stroke-linecap="square" />
    <line id="wall_0041" x1="219.00" y1="288.00" x2="227.00" y2="278.00" stroke="#cccccc" stroke-width="12.00" stroke-linecap="square" />
    <line id="wall_0042" x1="64.00" y1="211.00" x2="76.00" y2="199.00" stroke="#cccccc" stroke-width="12.00" stroke-linecap="square" />
    <line id="wall_0043" x1="283.00" y1="259.00" x2="283.00" y2="270.00" stroke="#cccccc" stroke-width="12.00" stroke-linecap="square" />
  </g>
  <g id="windows">
    <g id="window_0005" data-type="window"><polygon points="247.55,348.77 247.55,277.77 253.55,277.77 253.55,348.77" fill="#d0e8ff" stroke="#3355cc" stroke-width="1" /><line x1="250.55" y1="348.77" x2="250.55" y2="277.77" stroke="#3355cc" stroke-width="1.5" /></g>
  </g>
  <g id="doors">
    <g id="door_0001" data-type="door"><line x1="63.01" y1="198.70" x2="63.01" y2="146.70" stroke="#888888" stroke-width="2" stroke-linecap="square" /><line x1="63.01" y1="198.70" x2="115.01" y2="198.70" stroke="#888888" stroke-width="1.5" /><path d="M 63.01 146.70 A 52.00 52.00 0 0 0 115.01 198.70" fill="none" stroke="#888888" stroke-width="1" stroke-dasharray="3 2" /></g>
    <g id="door_0002" data-type="door"><line x1="309.79" y1="246.74" x2="309.79" y2="300.74" stroke="#222222" stroke-width="2" stroke-linecap="square" /><line x1="309.79" y1="246.74" x2="255.79" y2="246.74" stroke="#222222" stroke-width="1.5" /><path d="M 309.79 300.74 A 54.00 54.00 0 0 0 255.79 246.74" fill="none" stroke="#222222" stroke-width="1" stroke-dasharray="3 2" /></g>
    <g id="door_0004" data-type="door"><line x1="62.41" y1="275.96" x2="61.13" y2="248.99" stroke="#222222" stroke-width="2" stroke-linecap="square" /><line x1="62.41" y1="275.96" x2="89.38" y2="274.68" stroke="#222222" stroke-width="1.5" /><path d="M 61.13 248.99 A 27.00 27.00 0 0 1 89.38 274.68" fill="none" stroke="#222222" stroke-width="1" stroke-dasharray="3 2" /></g>
    <g id="door_0006" data-type="door"><line x1="331.59" y1="291.87" x2="350.59" y2="291.87" stroke="#222222" stroke-width="2" stroke-linecap="square" /><line x1="331.59" y1="291.87" x2="331.59" y2="310.87" stroke="#222222" stroke-width="1.5" /><path d="M 350.59 291.87 A 19.00 19.00 0 0 0 331.59 310.87" fill="none" stroke="#222222" stroke-width="1" stroke-dasharray="3 2" /></g>
    <g id="door_0007" data-type="door"><line x1="291.11" y1="345.54" x2="291.11" y2="335.54" stroke="#222222" stroke-width="2" stroke-linecap="square" /><line x1="291.11" y1="345.54" x2="301.11" y2="345.54" stroke="#222222" stroke-width="1.5" /><path d="M 291.11 335.54 A 10.00 10.00 0 0 1 301.11 345.54" fill="none" stroke="#222222" stroke-width="1" stroke-dasharray="3 2" /></g>
    <g id="door_0008" data-type="door"><line x1="271.15" y1="384.35" x2="206.15" y2="384.35" stroke="#888888" stroke-width="2" stroke-linecap="square" /><line x1="271.15" y1="384.35" x2="271.15" y2="319.35" stroke="#888888" stroke-width="1.5" /><path d="M 206.15 384.35 A 65.00 65.00 0 0 1 271.15 319.35" fill="none" stroke="#888888" stroke-width="1" stroke-dasharray="3 2" /></g>
    <g id="door_0009" data-type="door"><line x1="62.98" y1="418.97" x2="62.98" y2="377.97" stroke="#222222" stroke-width="2" stroke-linecap="square" /><line x1="62.98" y1="418.97" x2="103.98" y2="418.97" stroke="#222222" stroke-width="1.5" /><path d="M 62.98 377.97 A 41.00 41.00 0 0 0 103.98 418.97" fill="none" stroke="#222222" stroke-width="1" stroke-dasharray="3 2" /></g>
    <g id="door_0010" data-type="door"><line x1="85.54" y1="432.46" x2="114.48" y2="434.39" stroke="#222222" stroke-width="2" stroke-linecap="square" /><line x1="85.54" y1="432.46" x2="83.61" y2="461.40" stroke="#222222" stroke-width="1.5" /><path d="M 114.48 434.39 A 29.00 29.00 0 0 0 83.61 461.40" fill="none" stroke="#222222" stroke-width="1" stroke-dasharray="3 2" /></g>
    <g id="door_0011" data-type="door"><line x1="283.56" y1="490.34" x2="231.56" y2="490.34" stroke="#222222" stroke-width="2" stroke-linecap="square" /><line x1="283.56" y1="490.34" x2="283.56" y2="438.34" stroke="#222222" stroke-width="1.5" /><path d="M 231.56 490.34 A 52.00 52.00 0 0 1 283.56 438.34" fill="none" stroke="#222222" stroke-width="1" stroke-dasharray="3 2" /></g>
  </g>
  <g id="debug">
    <line x1="241.5" y1="261.5" x2="268.5" y2="261.5" stroke="#ff8800" stroke-width="2" stroke-dasharray="6 3" data-id="opening_0003" data-type="unresolved" />
  </g>
</svg>
