<svg xmlns="http://www.w3.org/2000/svg" width="512" height="512" viewBox="0 0 512 512" data-unit="px" data-scale-status="unknown">
  <g id="floor">
    <polygon id="floor_0" class="floor" points="0.0,59.0 0.0,152.0 31.0,152.0 31.0,236.0 31.0,282.0 46.0,282.0 46.0,401.0 108.0,401.0 108.0,511.0 171.0,511.0 171.0,399.0 511.0,399.0 511.0,102.0 448.0,102.0 448.0,55.0 370.0,55.0 370.0,102.0 271.0,102.0 208.0,102.0 208.0,81.0 145.0,81.0 105.0,81.0 105.0,108.0 78.0,108.0 78.0,59.0" fill="#f5f0e8" stroke="none" />
  </g>
  <g id="rooms">
    <polygon id="room_0001" points="113.00,58.00 114.00,79.00 128.00,93.00 132.00,115.00 176.00,115.00 170.00,69.00 147.00,69.00 137.00,57.00 130.00,63.00" fill="rgba(80,160,220,0.40)" stroke="#3388aa" stroke-width="1" />
    <polygon id="room_0002" points="377.00,60.00 381.00,109.00 401.00,108.00 407.00,83.00 416.00,80.00 414.00,107.00 439.00,109.00 436.00,63.00" fill="rgba(80,160,220,0.40)" stroke="#3388aa" stroke-width="1" />
    <polygon id="room_0003" points="58.00,70.00 54.00,77.00 14.00,77.00 16.00,133.00 50.00,135.00 52.00,115.00 67.00,115.00 66.00,109.00 52.00,110.00 52.00,80.00 63.00,80.00" fill="rgba(80,160,220,0.40)" stroke="#3388aa" stroke-width="1" />
    <polygon id="room_0004" points="313.00,108.00 247.00,139.00 280.00,273.00 247.00,329.00 267.00,329.00 287.00,398.00 318.00,389.00" fill="rgba(80,160,220,0.40)" stroke="#3388aa" stroke-width="1" />
    <polygon id="room_0005" points="324.00,119.00 326.00,148.00 375.00,145.00 374.00,118.00" fill="rgba(80,160,220,0.31)" stroke="#3388aa" stroke-width="1" />
    <polygon id="room_0006" points="443.00,120.00 445.00,146.00 506.00,144.00 506.00,118.00" fill="rgba(80,160,220,0.34)" stroke="#3388aa" stroke-width="1" />
    <polygon id="room_0007" points="325.00,159.00 325.00,345.00 418.00,344.00 422.00,318.00 425.00,343.00 505.00,343.00 506.00,156.00 382.00,121.00 380.00,160.00" fill="rgba(80,160,220,0.40)" stroke="#3388aa" stroke-width="1" />
    <polygon id="room_0008" points="239.00,127.00 113.00,127.00 111.00,211.00 202.00,214.00 172.00,258.00 58.00,129.00 59.00,252.00 103.00,253.00 60.00,383.00 163.00,381.00 180.00,296.00 231.00,360.00" fill="rgba(80,160,220,0.40)" stroke="#3388aa" stroke-width="1" />
    <polygon id="room_0009" points="52.00,176.00 40.00,183.00 32.00,210.00 16.00,222.00 18.00,233.00 37.00,250.00 52.00,247.00" fill="rgba(80,160,220,0.34)" stroke="#3388aa" stroke-width="1" />
    <polygon id="room_0010" points="22.00,270.00 22.00,274.00 26.00,276.00 38.00,276.00 42.00,273.00 41.00,270.00 39.00,269.00" fill="rgba(80,160,220,0.10)" stroke="#3388aa" stroke-width="1" />
    <polygon id="room_0011" points="400.00,354.00 401.00,380.00 488.00,380.00 488.00,371.00 497.00,369.00 501.00,378.00 505.00,353.00" fill="rgba(80,160,220,0.40)" stroke="#3388aa" stroke-width="1" />
    <polygon id="room_0012" points="325.00,355.00 326.00,382.00 376.00,381.00 375.00,355.00" fill="rgba(80,160,220,0.29)" stroke="#3388aa" stroke-width="1" />
    <polygon id="room_0013" points="165.00,389.00 132.00,390.00 131.00,443.00 166.00,442.00" fill="rgba(80,160,220,0.39)" stroke="#3388aa" stroke-width="1" />
    <polygon id="room_0014" points="128.00,455.00 123.00,490.00 137.00,495.00 162.00,492.00 155.00,466.00 155.00,482.00 148.00,484.00 133.00,474.00 136.00,457.00" fill="rgba(80,160,220,0.18)" stroke="#3388aa" stroke-width="1" />
  </g>
  <g id="walls">
    <line id="wall_0000" x1="381.00" y1="245.00" x2="381.00" y2="263.00" stroke="#cccccc" stroke-width="6.00" stroke-linecap="square" />
    <line id="wall_0001" x1="320.50" y1="116.00" x2="320.50" y2="267.00" stroke="#222222" stroke-width="6.00" stroke-linecap="square" />
    <line id="wall_0002" x1="323.00" y1="385.50" x2="506.00" y2="385.50" stroke="#222222" stroke-width="6.00" stroke-linecap="square" />
    <line id="wall_0003" x1="509.00" y1="332.00" x2="509.00" y2="381.00" stroke="#222222" stroke-width="6.00" stroke-linecap="square" />
    <line id="wall_0005" x1="173.00" y1="133.00" x2="173.00" y2="189.00" stroke="#222222" stroke-width="6.00" stroke-linecap="square" />
    <line id="wall_0006" x1="398.00" y1="348.00" x2="507.00" y2="348.00" stroke="#222222" stroke-width="6.00" stroke-linecap="square" />
    <line id="wall_0007" x1="322.00" y1="113.00" x2="383.00" y2="113.00" stroke="#222222" stroke-width="6.00" stroke-linecap="square" />
    <line id="wall_0008" x1="449.00" y1="250.00" x2="508.00" y2="250.00" stroke="#222222" stroke-width="6.00" stroke-linecap="square" />
    <line id="wall_0009" x1="56.00" y1="250.00" x2="56.00" y2="386.00" stroke="#222222" stroke-width="6.00" stroke-linecap="square" />
    <line id="wall_0010" x1="118.00" y1="387.00" x2="118.00" y2="444.00" stroke="#222222" stroke-width="6.00" stroke-linecap="square" />
    <line id="wall_0011" x1="55.50" y1="170.00" x2="55.50" y2="241.00" stroke="#222222" stroke-width="6.00" stroke-linecap="square" />
    <line id="wall_0012" x1="380.25" y1="257.00" x2="380.25" y2="377.00" stroke="#222222" stroke-width="6.00" stroke-linecap="square" />
    <line id="wall_0013" x1="101.00" y1="123.00" x2="101.00" y2="219.00" stroke="#222222" stroke-width="6.00" stroke-linecap="square" />
    <line id="wall_0014" x1="435.00" y1="114.00" x2="508.00" y2="114.00" stroke="#222222" stroke-width="6.00" stroke-linecap="square" />
    <line id="wall_0015" x1="177.50" y1="356.99" x2="177.50" y2="375.01" stroke="#cccccc" stroke-width="6.00" stroke-linecap="square" />
    <line id="wall_0016" x1="173.00" y1="219.00" x2="173.00" y2="253.00" stroke="#888888" stroke-width="6.00" stroke-linecap="square" />
    <line id="wall_0017" x1="335.00" y1="153.00" x2="375.00" y2="153.00" stroke="#222222" stroke-width="6.00" stroke-linecap="square" />
    <line id="wall_0019" x1="59.00" y1="255.00" x2="100.00" y2="255.00" stroke="#222222" stroke-width="6.00" stroke-linecap="square" />
    <line id="wall_0020" x1="441.00" y1="150.00" x2="507.00" y2="150.00" stroke="#222222" stroke-width="6.00" stroke-linecap="square" />
    <line id="wall_0021" x1="413.00" y1="296.00" x2="413.00" y2="347.00" stroke="#222222" stroke-width="6.00" stroke-linecap="square" />
    <line id="wall_0023" x1="397.00" y1="350.00" x2="397.00" y2="384.00" stroke="#888888" stroke-width="6.00" stroke-linecap="square" />
    <line id="wall_0024" x1="57.00" y1="121.00" x2="68.00" y2="121.00" stroke="#cccccc" stroke-width="6.00" stroke-linecap="square" />
    <line id="wall_0025_s0" x1="243.00" y1="134.52" x2="243.00" y2="145.00" stroke="#cccccc" stroke-width="6.00" stroke-linecap="square" />
    <line id="wall_0026" x1="55.00" y1="118.98" x2="55.00" y2="163.02" stroke="#222222" stroke-width="6.00" stroke-linecap="square" />
    <line id="wall_0027" x1="380.00" y1="157.98" x2="380.00" y2="218.02" stroke="#222222" stroke-width="6.00" stroke-linecap="square" />
    <line id="wall_0028" x1="508.50" y1="112.00" x2="508.50" y2="166.00" stroke="#222222" stroke-width="6.00" stroke-linecap="square" />
    <line id="wall_0029_s0" x1="323.00" y1="331.91" x2="323.00" y2="384.00" stroke="#222222" stroke-width="6.00" stroke-linecap="square" />
    <line id="wall_0030" x1="440.50" y1="122.00" x2="440.50" y2="210.00" stroke="#222222" stroke-width="6.00" stroke-linecap="square" />
    <line id="wall_0031_s0" x1="437.50" y1="300.00" x2="437.50" y2="347.00" stroke="#222222" stroke-width="6.00" stroke-linecap="square" />
    <line id="wall_0032" x1="322.00" y1="350.00" x2="377.00" y2="350.00" stroke="#222222" stroke-width="6.00" stroke-linecap="square" />
    <line id="wall_0033_s0" x1="244.00" y1="304.00" x2="244.00" y2="326.00" stroke="#888888" stroke-width="6.00" stroke-linecap="square" />
    <line id="wall_0034_s0" x1="171.00" y1="120.00" x2="174.14" y2="120.00" stroke="#cccccc" stroke-width="6.00" stroke-linecap="square" />
    <line id="wall_0035_s0" x1="177.75" y1="300.00" x2="177.75" y2="309.26" stroke="#222222" stroke-width="6.00" stroke-linecap="square" />
    <line id="wall_0035_s1" x1="177.75" y1="347.26" x2="177.75" y2="364.00" stroke="#222222" stroke-width="6.00" stroke-linecap="square" />
    <line id="wall_0036" x1="157.00" y1="383.75" x2="215.00" y2="383.75" stroke="#222222" stroke-width="6.00" stroke-linecap="square" />
    <line id="wall_0037" x1="509.00" y1="231.00" x2="509.00" y2="260.00" stroke="#888888" stroke-width="6.00" stroke-linecap="square" />
    <line id="wall_0038" x1="12.50" y1="83.00" x2="12.50" y2="135.00" stroke="#222222" stroke-width="6.00" stroke-linecap="square" />
    <line id="wall_0039" x1="114.50" y1="335.00" x2="114.50" y2="370.00" stroke="#888888" stroke-width="6.00" stroke-linecap="square" />
    <line id="wall_0040" x1="16.00" y1="70.00" x2="51.00" y2="70.00" stroke="#888888" stroke-width="6.00" stroke-linecap="square" />
    <line id="wall_0041" x1="243.00" y1="178.00" x2="243.00" y2="200.00" stroke="#cccccc" stroke-width="6.00" stroke-linecap="square" />
    <line id="wall_0043" x1="229.00" y1="386.00" x2="241.00" y2="386.00" stroke="#cccccc" stroke-width="6.00" stroke-linecap="square" />
    <line id="wall_0044" x1="378.00" y1="113.00" x2="378.00" y2="157.00" stroke="#222222" stroke-width="6.00" stroke-linecap="square" />
    <line id="wall_0045" x1="146.00" y1="255.00" x2="170.00" y2="255.00" stroke="#cccccc" stroke-width="6.00" stroke-linecap="square" />
    <line id="wall_0046" x1="177.00" y1="195.00" x2="177.00" y2="214.00" stroke="#cccccc" stroke-width="6.00" stroke-linecap="square" />
    <line id="wall_0047" x1="58.00" y1="388.00" x2="70.00" y2="388.00" stroke="#cccccc" stroke-width="6.00" stroke-linecap="square" />
    <line id="wall_0048" x1="97.00" y1="387.50" x2="135.00" y2="387.50" stroke="#888888" stroke-width="6.00" stroke-linecap="square" />
    <line id="wall_0049" x1="114.00" y1="286.00" x2="114.00" y2="310.00" stroke="#cccccc" stroke-width="6.00" stroke-linecap="square" />
    <line id="wall_0050" x1="244.00" y1="367.00" x2="244.00" y2="383.00" stroke="#cccccc" stroke-width="6.00" stroke-linecap="square" />
    <line id="wall_0051_s0" x1="136.00" y1="196.95" x2="136.00" y2="200.05" stroke="#cccccc" stroke-width="6.00" stroke-linecap="square" />
    <line id="wall_0052_s0" x1="169.50" y1="433.61" x2="169.50" y2="445.02" stroke="#cccccc" stroke-width="6.00" stroke-linecap="square" />
    <line id="wall_0053" x1="151.00" y1="186.00" x2="172.00" y2="186.00" stroke="#cccccc" stroke-width="6.00" stroke-linecap="square" />
    <line id="wall_0054" x1="272.00" y1="283.00" x2="272.00" y2="298.00" stroke="#cccccc" stroke-width="6.00" stroke-linecap="square" />
    <line id="wall_0055" x1="102.00" y1="214.00" x2="112.00" y2="214.00" stroke="#cccccc" stroke-width="6.00" stroke-linecap="square" />
    <line id="wall_0056" x1="169.50" y1="386.98" x2="169.50" y2="403.02" stroke="#cccccc" stroke-width="6.00" stroke-linecap="square" />
    <line id="wall_0057" x1="250.00" y1="296.00" x2="260.00" y2="296.00" stroke="#cccccc" stroke-width="6.00" stroke-linecap="square" />
    <line id="wall_0058" x1="252.98" y1="198.50" x2="267.02" y2="198.50" stroke="#cccccc" stroke-width="6.00" stroke-linecap="square" />
    <line id="wall_0059" x1="272.00" y1="206.00" x2="272.00" y2="222.00" stroke="#cccccc" stroke-width="6.00" stroke-linecap="square" />
    <line id="wall_0060" x1="113.00" y1="281.00" x2="113.00" y2="292.00" stroke="#cccccc" stroke-width="6.00" stroke-linecap="square" />
  </g>
  <g id="windows">
    <g id="window_0002" data-type="window"><polygon points="389.38,97.77 429.38,97.77 429.38,103.77 389.38,103.77" fill="#d0e8ff" stroke="#3355cc" stroke-width="1" /><line x1="389.38" y1="100.77" x2="429.38" y2="100.77" stroke="#3355cc" stroke-width="1.5" /></g>
    <g id="window_0004" data-type="window"><polygon points="174.14,106.59 212.14,106.59 212.14,112.59 174.14,112.59" fill="#d0e8ff" stroke="#3355cc" stroke-width="1" /><line x1="174.14" y1="109.59" x2="212.14" y2="109.59" stroke="#3355cc" stroke-width="1.5" /></g>
    <g id="window_0009" data-type="window"><polygon points="212.96,134.52 212.96,107.52 218.96,107.52 218.96,134.52" fill="#d0e8ff" stroke="#3355cc" stroke-width="1" /><line x1="215.96" y1="134.52" x2="215.96" y2="107.52" stroke="#3355cc" stroke-width="1.5" /></g>
    <g id="window_0012" data-type="window"><polygon points="240.50,174.50 240.50,148.50 246.50,148.50 246.50,174.50" fill="#d0e8ff" stroke="#3355cc" stroke-width="1" /><line x1="243.50" y1="174.50" x2="243.50" y2="148.50" stroke="#3355cc" stroke-width="1.5" /></g>
    <g id="window_0014" data-type="window"><polygon points="512.26,169.89 512.26,230.89 506.26,230.89 506.26,169.89" fill="#d0e8ff" stroke="#3355cc" stroke-width="1" /><line x1="509.26" y1="169.89" x2="509.26" y2="230.89" stroke="#3355cc" stroke-width="1.5" /></g>
    <g id="window_0020" data-type="window"><polygon points="269.70,280.57 269.70,224.57 275.70,224.57 275.70,280.57" fill="#d0e8ff" stroke="#3355cc" stroke-width="1" /><line x1="272.70" y1="280.57" x2="272.70" y2="224.57" stroke="#3355cc" stroke-width="1.5" /></g>
    <g id="window_0024" data-type="window"><polygon points="324.42,268.91 324.42,331.91 318.42,331.91 318.42,268.91" fill="#d0e8ff" stroke="#3355cc" stroke-width="1" /><line x1="321.42" y1="268.91" x2="321.42" y2="331.91" stroke="#3355cc" stroke-width="1.5" /></g>
    <g id="window_0025" data-type="window"><polygon points="506.09,330.18 506.09,271.18 512.09,271.18 512.09,330.18" fill="#d0e8ff" stroke="#3355cc" stroke-width="1" /><line x1="509.09" y1="330.18" x2="509.09" y2="271.18" stroke="#3355cc" stroke-width="1.5" /></g>
    <g id="window_0029" data-type="window"><polygon points="240.51,356.07 240.51,328.07 246.51,328.07 246.51,356.07" fill="#d0e8ff" stroke="#3355cc" stroke-width="1" /><line x1="243.51" y1="356.07" x2="243.51" y2="328.07" stroke="#3355cc" stroke-width="1.5" /></g>
    <g id="window_0030" data-type="window"><polygon points="143.69,392.05 143.69,353.05 149.69,353.05 149.69,392.05" fill="#d0e8ff" stroke="#3355cc" stroke-width="1" /><line x1="146.69" y1="392.05" x2="146.69" y2="353.05" stroke="#3355cc" stroke-width="1.5" /></g>
    <g id="window_0033" data-type="window"><polygon points="164.81,433.31 167.13,405.41 173.11,405.91 170.79,433.81" fill="#d0e8ff" stroke="#3355cc" stroke-width="1" /><line x1="167.80" y1="433.56" x2="170.12" y2="405.66" stroke="#3355cc" stroke-width="1.5" /></g>
  </g>
  <g id="doors">
    <g id="door_0001" data-type="door"><line x1="60.06" y1="109.35" x2="58.75" y2="138.32" stroke="#222222" stroke-width="2" stroke-linecap="square" /><line x1="60.06" y1="109.35" x2="31.09" y2="108.03" stroke="#222222" stroke-width="1.5" /><path d="M 58.75 138.32 A 29.00 29.00 0 0 1 31.09 108.03" fill="none" stroke="#222222" stroke-width="1" stroke-dasharray="3 2" /></g>
    <g id="door_0005" data-type="door"><line x1="386.34" y1="114.38" x2="400.34" y2="114.38" stroke="#222222" stroke-width="2" stroke-linecap="square" /><line x1="386.34" y1="114.38" x2="386.34" y2="128.38" stroke="#222222" stroke-width="1.5" /><path d="M 400.34 114.38 A 14.00 14.00 0 0 0 386.34 128.38" fill="none" stroke="#222222" stroke-width="1" stroke-dasharray="3 2" /></g>
    <g id="door_0006" data-type="door"><line x1="418.57" y1="114.12" x2="430.57" y2="114.12" stroke="#222222" stroke-width="2" stroke-linecap="square" /><line x1="418.57" y1="114.12" x2="418.57" y2="126.12" stroke="#222222" stroke-width="1.5" /><path d="M 430.57 114.12 A 12.00 12.00 0 0 0 418.57 126.12" fill="none" stroke="#222222" stroke-width="1" stroke-dasharray="3 2" /></g>
    <g id="door_0007" data-type="door"><line x1="148.54" y1="120.91" x2="160.54" y2="120.91" stroke="#222222" stroke-width="2" stroke-linecap="square" /><line x1="148.54" y1="120.91" x2="148.54" y2="132.91" stroke="#222222" stroke-width="1.5" /><path d="M 160.54 120.91 A 12.00 12.00 0 0 0 148.54 132.91" fill="none" stroke="#222222" stroke-width="1" stroke-dasharray="3 2" /></g>
    <g id="door_0008" data-type="door"><line x1="73.54" y1="121.06" x2="91.54" y2="121.06" stroke="#222222" stroke-width="2" stroke-linecap="square" /><line x1="73.54" y1="121.06" x2="73.54" y2="139.06" stroke="#222222" stroke-width="1.5" /><path d="M 91.54 121.06 A 18.00 18.00 0 0 0 73.54 139.06" fill="none" stroke="#222222" stroke-width="1" stroke-dasharray="3 2" /></g>
    <g id="door_0011" data-type="door"><line x1="41.60" y1="166.92" x2="43.28" y2="129.95" stroke="#222222" stroke-width="2" stroke-linecap="square" /><line x1="41.60" y1="166.92" x2="78.56" y2="168.60" stroke="#222222" stroke-width="1.5" /><path d="M 43.28 129.95 A 37.00 37.00 0 0 0 78.56 168.60" fill="none" stroke="#222222" stroke-width="1" stroke-dasharray="3 2" /></g>
    <g id="door_0015" data-type="door"><line x1="249.27" y1="203.58" x2="267.23" y2="204.86" stroke="#222222" stroke-width="2" stroke-linecap="square" /><line x1="249.27" y1="203.58" x2="247.99" y2="221.54" stroke="#222222" stroke-width="1.5" /><path d="M 267.23 204.86 A 18.00 18.00 0 0 0 247.99 221.54" fill="none" stroke="#222222" stroke-width="1" stroke-dasharray="3 2" /></g>
    <g id="door_0017" data-type="door"><line x1="428.71" y1="232.11" x2="459.71" y2="232.11" stroke="#888888" stroke-width="2" stroke-linecap="square" /><line x1="428.71" y1="232.11" x2="428.71" y2="263.11" stroke="#888888" stroke-width="1.5" /><path d="M 459.71 232.11 A 31.00 31.00 0 0 0 428.71 263.11" fill="none" stroke="#888888" stroke-width="1" stroke-dasharray="3 2" /></g>
    <g id="door_0018" data-type="door"><line x1="373.90" y1="247.58" x2="373.90" y2="219.58" stroke="#888888" stroke-width="2" stroke-linecap="square" /><line x1="373.90" y1="247.58" x2="401.90" y2="247.58" stroke="#888888" stroke-width="1.5" /><path d="M 373.90 219.58 A 28.00 28.00 0 0 0 401.90 247.58" fill="none" stroke="#888888" stroke-width="1" stroke-dasharray="3 2" /></g>
    <g id="door_0019" data-type="door"><line x1="96.71" y1="248.88" x2="96.71" y2="218.88" stroke="#888888" stroke-width="2" stroke-linecap="square" /><line x1="96.71" y1="248.88" x2="126.71" y2="248.88" stroke="#888888" stroke-width="1.5" /><path d="M 96.71 218.88 A 30.00 30.00 0 0 0 126.71 248.88" fill="none" stroke="#888888" stroke-width="1" stroke-dasharray="3 2" /></g>
    <g id="door_0021" data-type="door"><line x1="430.01" y1="267.25" x2="458.01" y2="267.25" stroke="#888888" stroke-width="2" stroke-linecap="square" /><line x1="430.01" y1="267.25" x2="430.01" y2="295.25" stroke="#888888" stroke-width="1.5" /><path d="M 458.01 267.25 A 28.00 28.00 0 0 0 430.01 295.25" fill="none" stroke="#888888" stroke-width="1" stroke-dasharray="3 2" /></g>
    <g id="door_0022" data-type="door"><line x1="102.87" y1="293.39" x2="102.87" y2="322.39" stroke="#222222" stroke-width="2" stroke-linecap="square" /><line x1="102.87" y1="293.39" x2="73.87" y2="293.39" stroke="#222222" stroke-width="1.5" /><path d="M 102.87 322.39 A 29.00 29.00 0 0 1 73.87 293.39" fill="none" stroke="#222222" stroke-width="1" stroke-dasharray="3 2" /></g>
    <g id="door_0027" data-type="door"><line x1="249.82" y1="301.05" x2="267.82" y2="301.05" stroke="#222222" stroke-width="2" stroke-linecap="square" /><line x1="249.82" y1="301.05" x2="249.82" y2="319.05" stroke="#222222" stroke-width="1.5" /><path d="M 267.82 301.05 A 18.00 18.00 0 0 0 249.82 319.05" fill="none" stroke="#222222" stroke-width="1" stroke-dasharray="3 2" /></g>
    <g id="door_0031" data-type="door"><line x1="202.57" y1="386.90" x2="215.57" y2="386.90" stroke="#222222" stroke-width="2" stroke-linecap="square" /><line x1="202.57" y1="386.90" x2="202.57" y2="399.90" stroke="#222222" stroke-width="1.5" /><path d="M 215.57 386.90 A 13.00 13.00 0 0 0 202.57 399.90" fill="none" stroke="#222222" stroke-width="1" stroke-dasharray="3 2" /></g>
    <g id="door_0032" data-type="door"><line x1="73.92" y1="388.84" x2="54.92" y2="388.84" stroke="#888888" stroke-width="2" stroke-linecap="square" /><line x1="73.92" y1="388.84" x2="73.92" y2="369.84" stroke="#888888" stroke-width="1.5" /><path d="M 54.92 388.84 A 19.00 19.00 0 0 1 73.92 369.84" fill="none" stroke="#888888" stroke-width="1" stroke-dasharray="3 2" /></g>
    <g id="door_0034" data-type="door"><line x1="142.78" y1="482.27" x2="139.46" y2="522.13" stroke="#888888" stroke-width="2" stroke-linecap="square" /><line x1="142.78" y1="482.27" x2="102.92" y2="478.95" stroke="#888888" stroke-width="1.5" /><path d="M 139.46 522.13 A 40.00 40.00 0 0 1 102.92 478.95" fill="none" stroke="#888888" stroke-width="1" stroke-dasharray="3 2" /></g>
  </g>
  <g id="debug">
    <line x1="92.0" y1="120.0" x2="132.0" y2="120.0" stroke="#ff8800" stroke-width="2" stroke-dasharray="6 3" data-id="opening_0003" data-type="unresolved" />
    <line x1="136.0" y1="142.5" x2="136.0" y2="173.5" stroke="#ff8800" stroke-width="2" stroke-dasharray="6 3" data-id="opening_0010" data-type="unresolved" />
    <line x1="136.0" y1="163.4" x2="136.0" y2="189.4" stroke="#ff8800" stroke-width="2" stroke-dasharray="6 3" data-id="opening_0013" data-type="unresolved" />
    <line x1="136.0" y1="200.0" x2="136.0" y2="234.0" stroke="#ff8800" stroke-width="2" stroke-dasharray="6 3" data-id="opening_0016" data-type="unresolved" />
    <line x1="437.5" y1="268.0" x2="437.5" y2="300.0" stroke="#ff8800" stroke-width="2" stroke-dasharray="6 3" data-id="opening_0023" data-type="unresolved" />
    <line x1="244.0" y1="296.0" x2="244.0" y2="304.0" stroke="#ff8800" stroke-width="2" stroke-dasharray="6 3" data-id="opening_0026" data-type="unresolved" />
    <line x1="177.8" y1="309.3" x2="177.8" y2="347.3" stroke="#ff8800" stroke-width="2" stroke-dasharray="6 3" data-id="opening_0028" data-type="unresolved" />
  </g>
</svg>
