<svg xmlns="http://www.w3.org/2000/svg" width="512" height="512" viewBox="0 0 512 512" data-unit="mm" data-scale-status="estimated" data-px-to-mm="26.424501424501425">

  <g id="walls">
    <path d="M 331.03,103.78 L 432.49,103.78 L 432.72,139.41 L 440.28,139.36 L 440.01,96.22 L 327.25,96.22 L 117.22,96.22 L 117.22,104.23 L 124.78,104.23 L 124.78,103.78 L 323.47,103.78 L 323.47,161.00 L 331.03,161.00 L 331.03,103.78 Z" fill="#1a1a1a" stroke="none" fill-rule="evenodd" />    <path d="M 323.47,206.00 L 331.03,206.00 L 331.03,187.49 L 323.47,187.49 L 323.47,206.00 Z" fill="#1a1a1a" stroke="none" fill-rule="evenodd" />    <path d="M 380.00,217.78 L 380.00,210.22 L 328.00,210.22 L 328.00,217.78 L 380.00,217.78 Z" fill="#1a1a1a" stroke="none" fill-rule="evenodd" />    <path d="M 323.47,228.00 L 331.03,228.00 L 331.03,226.00 L 323.47,226.00 L 323.47,228.00 Z" fill="#1a1a1a" stroke="none" fill-rule="evenodd" />    <path d="M 323.47,292.00 L 331.03,292.00 L 331.03,249.00 L 323.47,249.00 L 323.47,292.00 Z" fill="#1a1a1a" stroke="none" fill-rule="evenodd" />    <path d="M 301.00,379.22 L 289.78,379.22 L 289.78,210.22 L 124.78,210.22 L 124.78,203.06 L 117.22,203.06 L 117.22,217.78 L 282.22,217.78 L 282.22,386.78 L 301.00,386.78 L 301.00,379.22 Z" fill="#1a1a1a" stroke="none" fill-rule="evenodd" />    <path d="M 331.00,323.78 L 403.78,323.78 L 403.78,301.96 L 432.72,301.36 L 432.72,316.66 L 440.28,316.66 L 440.28,297.50 L 440.28,271.30 L 432.72,271.30 L 432.72,293.79 L 396.22,294.54 L 396.22,316.22 L 327.17,316.22 L 327.17,318.49 L 323.47,318.28 L 323.39,319.79 L 327.17,320.00 L 323.38,320.05 L 323.47,326.05 L 331.03,325.95 L 331.00,323.78 Z" fill="#1a1a1a" stroke="none" fill-rule="evenodd" />    <path d="M 323.47,354.00 L 331.03,354.00 L 331.03,352.49 L 323.47,352.49 L 323.47,354.00 Z" fill="#1a1a1a" stroke="none" fill-rule="evenodd" />    <path d="M 432.86,210.22 L 402.00,210.22 L 402.00,217.78 L 432.84,217.78 L 432.72,230.26 L 440.28,230.34 L 440.45,214.04 L 436.67,214.00 L 440.45,213.98 L 440.28,181.37 L 432.72,181.41 L 432.86,210.22 Z" fill="#1a1a1a" stroke="none" fill-rule="evenodd" />    <path d="M 400.00,279.78 L 400.00,272.22 L 338.00,272.22 L 338.00,279.78 L 400.00,279.78 Z" fill="#1a1a1a" stroke="none" fill-rule="evenodd" />    <path d="M 327.25,379.22 L 327.25,380.49 L 323.47,380.49 L 323.47,386.78 L 440.57,386.78 L 440.28,358.62 L 432.72,358.70 L 432.93,379.22 L 327.25,379.22 Z" fill="#1a1a1a" stroke="none" fill-rule="evenodd" />
  </g>

  <g id="windows">
    <line x1="121.00" y1="104.23" x2="121.00" y2="172.31" stroke="#3a78dc" stroke-width="4" stroke-linecap="square" />    <line x1="436.50" y1="139.39" x2="436.50" y2="181.39" stroke="#3a78dc" stroke-width="4" stroke-linecap="square" />    <line x1="436.50" y1="230.30" x2="436.50" y2="271.30" stroke="#3a78dc" stroke-width="4" stroke-linecap="square" />    <line x1="436.50" y1="316.66" x2="436.50" y2="358.66" stroke="#3a78dc" stroke-width="4" stroke-linecap="square" />
  </g>

  <g id="doors">
    <g id="door_0" data-type="door"><line id="door_0_origin" data-type="door_origin" x1="327.25" y1="187.49" x2="327.25" y2="161.00" stroke="#a046b4" stroke-width="2" stroke-linecap="square" /><line id="door_0_leaf" data-type="door_leaf" x1="327.25" y1="187.49" x2="300.76" y2="187.49" stroke="#eb8c50" stroke-width="1.5" /><path id="door_0_arc" data-type="door_arc" d="M 327.25 161.00 A 26.49 26.49 0 0 0 300.76 187.49" fill="none" stroke="#dc5a5a" stroke-width="1.5" /></g>    <g id="door_1" data-type="door"><line id="door_1_origin" data-type="door_origin" x1="121.00" y1="169.00" x2="121.00" y2="203.06" stroke="#a046b4" stroke-width="2" stroke-linecap="square" /><line id="door_1_leaf" data-type="door_leaf" x1="121.00" y1="169.00" x2="86.94" y2="169.00" stroke="#eb8c50" stroke-width="1.5" /><path id="door_1_arc" data-type="door_arc" d="M 121.00 203.06 A 34.06 34.06 0 0 1 86.94 169.00" fill="none" stroke="#dc5a5a" stroke-width="1.5" /></g>    <g id="door_2" data-type="door"><line id="door_2_origin" data-type="door_origin" x1="380.00" y1="214.00" x2="402.00" y2="214.00" stroke="#a046b4" stroke-width="2" stroke-linecap="square" /><line id="door_2_leaf" data-type="door_leaf" x1="380.00" y1="214.00" x2="380.00" y2="192.00" stroke="#eb8c50" stroke-width="1.5" /><path id="door_2_arc" data-type="door_arc" d="M 402.00 214.00 A 22.00 22.00 0 0 0 380.00 192.00" fill="none" stroke="#dc5a5a" stroke-width="1.5" /></g>    <g id="door_3" data-type="door"><line id="door_3_origin" data-type="door_origin" x1="327.25" y1="249.00" x2="327.25" y2="228.00" stroke="#a046b4" stroke-width="2" stroke-linecap="square" /><line id="door_3_leaf" data-type="door_leaf" x1="327.25" y1="249.00" x2="306.25" y2="249.00" stroke="#eb8c50" stroke-width="1.5" /><path id="door_3_arc" data-type="door_arc" d="M 327.25 228.00 A 21.00 21.00 0 0 0 306.25 249.00" fill="none" stroke="#dc5a5a" stroke-width="1.5" /></g>    <g id="door_4" data-type="door"><line id="door_4_origin" data-type="door_origin" x1="327.25" y1="292.00" x2="327.25" y2="318.49" stroke="#a046b4" stroke-width="2" stroke-linecap="square" /><line id="door_4_leaf" data-type="door_leaf" x1="327.25" y1="292.00" x2="300.76" y2="292.00" stroke="#eb8c50" stroke-width="1.5" /><path id="door_4_arc" data-type="door_arc" d="M 327.25 318.49 A 26.49 26.49 0 0 1 300.76 292.00" fill="none" stroke="#dc5a5a" stroke-width="1.5" /></g>    <g id="door_5" data-type="door"><line id="door_5_origin" data-type="door_origin" x1="327.25" y1="352.49" x2="327.25" y2="326.00" stroke="#a046b4" stroke-width="2" stroke-linecap="square" /><line id="door_5_leaf" data-type="door_leaf" x1="327.25" y1="352.49" x2="353.74" y2="352.49" stroke="#eb8c50" stroke-width="1.5" /><path id="door_5_arc" data-type="door_arc" d="M 327.25 326.00 A 26.49 26.49 0 0 1 353.74 352.49" fill="none" stroke="#dc5a5a" stroke-width="1.5" /></g>    <g id="door_6" data-type="door"><line id="door_6_origin" data-type="door_origin" x1="327.25" y1="354.00" x2="327.25" y2="380.49" stroke="#a046b4" stroke-width="2" stroke-linecap="square" /><line id="door_6_leaf" data-type="door_leaf" x1="327.25" y1="354.00" x2="300.76" y2="354.00" stroke="#eb8c50" stroke-width="1.5" /><path id="door_6_arc" data-type="door_arc" d="M 327.25 380.49 A 26.49 26.49 0 0 1 300.76 354.00" fill="none" stroke="#dc5a5a" stroke-width="1.5" /></g>    <g id="door_7" data-type="door"><line id="door_7_origin" data-type="door_origin" x1="301.00" y1="383.00" x2="327.25" y2="383.00" stroke="#a046b4" stroke-width="2" stroke-linecap="square" /><line id="door_7_leaf" data-type="door_leaf" x1="301.00" y1="383.00" x2="301.00" y2="409.25" stroke="#eb8c50" stroke-width="1.5" /><path id="door_7_arc" data-type="door_arc" d="M 327.25 383.00 A 26.25 26.25 0 0 1 301.00 409.25" fill="none" stroke="#dc5a5a" stroke-width="1.5" /></g>
  </g>

</svg>