<svg xmlns="http://www.w3.org/2000/svg" width="512" height="512" viewBox="0 0 512 512" data-unit="mm" data-scale-status="estimated" data-px-to-mm="39.00966183574879">

  <g id="walls">
    <path d="M 212.85,149.44 L 212.85,154.56 L 217.77,154.56 L 217.77,250.44 L 180.94,250.44 L 180.94,255.56 L 217.77,255.56 L 217.77,307.44 L 154.60,307.44 L 154.69,327.01 L 159.81,326.99 L 159.75,312.56 L 217.78,312.56 L 217.94,347.01 L 223.06,346.99 L 222.90,309.99 L 222.90,253.00 L 222.90,152.00 L 220.33,152.00 L 222.90,152.00 L 222.82,110.56 L 280.42,110.56 L 280.10,151.98 L 282.67,152.00 L 280.10,152.00 L 280.10,337.00 L 282.67,337.00 L 280.10,337.02 L 280.44,389.02 L 285.56,388.98 L 285.25,339.56 L 314.41,339.56 L 313.91,392.64 L 328.02,392.23 L 359.42,392.56 L 359.47,387.44 L 330.56,387.13 L 330.56,349.28 L 350.03,349.06 L 349.97,343.94 L 325.44,344.22 L 325.44,387.18 L 319.09,387.36 L 319.54,339.56 L 354.00,339.56 L 354.00,334.44 L 319.56,334.44 L 319.56,331.94 L 314.44,331.94 L 314.44,334.44 L 285.23,334.44 L 285.23,154.56 L 288.16,154.56 L 288.16,149.44 L 285.25,149.44 L 285.54,110.56 L 429.44,110.56 L 429.44,149.44 L 419.35,149.44 L 419.35,154.56 L 429.44,154.56 L 429.44,307.44 L 377.94,307.44 L 377.94,312.56 L 429.44,312.56 L 429.44,387.44 L 388.45,387.44 L 388.45,392.56 L 434.56,392.56 L 434.56,310.00 L 434.56,152.00 L 434.56,105.44 L 283.00,105.44 L 217.68,105.44 L 217.77,149.44 L 212.85,149.44 Z" fill="#1a1a1a" stroke="none" fill-rule="evenodd" />    <path d="M 141.00,149.44 L 136.35,149.44 L 136.35,154.56 L 141.00,154.56 L 141.00,149.44 Z" fill="#1a1a1a" stroke="none" fill-rule="evenodd" />    <path d="M 159.81,154.80 L 162.13,154.55 L 161.57,149.45 L 154.69,150.20 L 154.37,255.56 L 163.00,255.56 L 163.00,250.44 L 159.51,250.44 L 159.81,154.80 Z" fill="#1a1a1a" stroke="none" fill-rule="evenodd" />    <path d="M 78.56,264.87 L 78.56,154.56 L 87.35,154.56 L 87.35,149.44 L 73.44,149.44 L 73.44,264.87 L 78.56,264.87 Z" fill="#1a1a1a" stroke="none" fill-rule="evenodd" />    <path d="M 141.22,255.55 L 140.78,250.45 L 132.68,251.15 L 132.93,307.44 L 78.85,307.44 L 78.56,292.82 L 73.44,292.92 L 73.77,309.88 L 73.45,312.75 L 78.55,313.31 L 78.63,312.56 L 135.50,312.56 L 139.00,312.56 L 139.00,307.44 L 138.05,307.44 L 137.82,255.85 L 141.22,255.55 Z" fill="#1a1a1a" stroke="none" fill-rule="evenodd" />    <path d="M 159.81,346.00 L 159.81,332.00 L 154.69,332.00 L 154.69,346.00 L 159.81,346.00 Z" fill="#1a1a1a" stroke="none" fill-rule="evenodd" />    <path d="M 159.81,387.44 L 159.81,363.94 L 154.69,363.94 L 154.69,387.44 L 78.56,387.44 L 78.56,337.03 L 73.44,337.03 L 73.44,392.56 L 157.25,392.56 L 223.34,392.56 L 223.06,360.98 L 217.94,361.02 L 218.16,387.44 L 159.81,387.44 Z" fill="#1a1a1a" stroke="none" fill-rule="evenodd" />    <path d="M 319.02,149.44 L 313.16,149.44 L 313.16,154.56 L 319.02,154.56 L 319.02,149.44 Z" fill="#1a1a1a" stroke="none" fill-rule="evenodd" />    <path d="M 347.00,149.44 L 341.02,149.44 L 341.02,154.56 L 347.00,154.56 L 347.00,149.44 Z" fill="#1a1a1a" stroke="none" fill-rule="evenodd" />    <path d="M 319.54,314.32 L 319.76,312.56 L 360.00,312.56 L 360.00,307.44 L 315.24,307.44 L 314.46,313.68 L 319.54,314.32 Z" fill="#1a1a1a" stroke="none" fill-rule="evenodd" />
  </g>

  <g id="windows">
    <line x1="288.16" y1="152.00" x2="313.16" y2="152.00" stroke="#3a78dc" stroke-width="4" stroke-linecap="butt" />    <line x1="366.35" y1="152.00" x2="419.35" y2="152.00" stroke="#3a78dc" stroke-width="4" stroke-linecap="butt" />    <line x1="87.35" y1="152.00" x2="136.35" y2="152.00" stroke="#3a78dc" stroke-width="4" stroke-linecap="butt" />    <line x1="161.85" y1="152.00" x2="212.85" y2="152.00" stroke="#3a78dc" stroke-width="4" stroke-linecap="butt" />    <line x1="319.02" y1="152.00" x2="341.02" y2="152.00" stroke="#3a78dc" stroke-width="4" stroke-linecap="butt" />    <line x1="76.00" y1="264.87" x2="76.00" y2="292.87" stroke="#3a78dc" stroke-width="4" stroke-linecap="butt" />    <line x1="76.00" y1="313.03" x2="76.00" y2="337.03" stroke="#3a78dc" stroke-width="4" stroke-linecap="butt" />    <line x1="359.45" y1="390.00" x2="388.45" y2="390.00" stroke="#3a78dc" stroke-width="4" stroke-linecap="butt" />
  </g>

  <g id="doors">
    <g id="door_0" data-type="door" data-door-type="single_swing"><line id="door_0_origin" data-type="door_origin" x1="157.25" y1="152.00" x2="141.00" y2="152.00" stroke="#a046b4" stroke-width="2" stroke-linecap="butt" /><line id="door_0_leaf" data-type="door_leaf" x1="157.25" y1="152.00" x2="157.25" y2="135.75" stroke="#eb8c50" stroke-width="1.5" /><path id="door_0_arc" data-type="door_arc" d="M 141.00 152.00 A 16.25 16.25 0 0 1 157.25 135.75" fill="none" stroke="#dc5a5a" stroke-width="1.5" /></g>    <g id="door_1" data-type="door" data-door-type="single_swing"><line id="door_1_origin" data-type="door_origin" x1="347.00" y1="152.00" x2="364.94" y2="152.00" stroke="#a046b4" stroke-width="2" stroke-linecap="butt" /><line id="door_1_leaf" data-type="door_leaf" x1="347.00" y1="152.00" x2="347.00" y2="134.06" stroke="#eb8c50" stroke-width="1.5" /><path id="door_1_arc" data-type="door_arc" d="M 364.94 152.00 A 17.94 17.94 0 0 0 347.00 134.06" fill="none" stroke="#dc5a5a" stroke-width="1.5" /></g>    <g id="door_2" data-type="door" data-door-type="single_swing"><line id="door_2_origin" data-type="door_origin" x1="156.00" y1="253.00" x2="141.00" y2="253.00" stroke="#a046b4" stroke-width="2" stroke-linecap="butt" /><line id="door_2_leaf" data-type="door_leaf" x1="156.00" y1="253.00" x2="156.00" y2="238.00" stroke="#eb8c50" stroke-width="1.5" /><path id="door_2_arc" data-type="door_arc" d="M 141.00 253.00 A 15.00 15.00 0 0 1 156.00 238.00" fill="none" stroke="#dc5a5a" stroke-width="1.5" /></g>    <g id="door_3" data-type="door" data-door-type="single_swing"><line id="door_3_origin" data-type="door_origin" x1="163.00" y1="253.00" x2="180.94" y2="253.00" stroke="#a046b4" stroke-width="2" stroke-linecap="butt" /><line id="door_3_leaf" data-type="door_leaf" x1="163.00" y1="253.00" x2="163.00" y2="235.06" stroke="#eb8c50" stroke-width="1.5" /><path id="door_3_arc" data-type="door_arc" d="M 180.94 253.00 A 17.94 17.94 0 0 0 163.00 235.06" fill="none" stroke="#dc5a5a" stroke-width="1.5" /></g>    <g id="door_4" data-type="door" data-door-type="single_swing"><line id="door_4_origin" data-type="door_origin" x1="139.00" y1="310.00" x2="156.94" y2="310.00" stroke="#a046b4" stroke-width="2" stroke-linecap="butt" /><line id="door_4_leaf" data-type="door_leaf" x1="139.00" y1="310.00" x2="139.00" y2="292.06" stroke="#eb8c50" stroke-width="1.5" /><path id="door_4_arc" data-type="door_arc" d="M 156.94 310.00 A 17.94 17.94 0 0 0 139.00 292.06" fill="none" stroke="#dc5a5a" stroke-width="1.5" /></g>    <g id="door_5" data-type="door" data-door-type="single_swing"><line id="door_5_origin" data-type="door_origin" x1="360.00" y1="310.00" x2="377.94" y2="310.00" stroke="#a046b4" stroke-width="2" stroke-linecap="butt" /><line id="door_5_leaf" data-type="door_leaf" x1="360.00" y1="310.00" x2="360.00" y2="327.94" stroke="#eb8c50" stroke-width="1.5" /><path id="door_5_arc" data-type="door_arc" d="M 377.94 310.00 A 17.94 17.94 0 0 1 360.00 327.94" fill="none" stroke="#dc5a5a" stroke-width="1.5" /></g>    <g id="door_6" data-type="door" data-door-type="single_swing"><line id="door_6_origin" data-type="door_origin" x1="317.00" y1="331.94" x2="317.00" y2="314.00" stroke="#a046b4" stroke-width="2" stroke-linecap="butt" /><line id="door_6_leaf" data-type="door_leaf" x1="317.00" y1="331.94" x2="299.06" y2="331.94" stroke="#eb8c50" stroke-width="1.5" /><path id="door_6_arc" data-type="door_arc" d="M 317.00 314.00 A 17.94 17.94 0 0 0 299.06 331.94" fill="none" stroke="#dc5a5a" stroke-width="1.5" /></g>    <g id="door_7" data-type="door" data-door-type="single_swing"><line id="door_7_origin" data-type="door_origin" x1="157.25" y1="327.00" x2="157.25" y2="332.00" stroke="#a046b4" stroke-width="2" stroke-linecap="butt" /><line id="door_7_leaf" data-type="door_leaf" x1="157.25" y1="327.00" x2="152.25" y2="327.00" stroke="#eb8c50" stroke-width="1.5" /><path id="door_7_arc" data-type="door_arc" d="M 157.25 332.00 A 5.00 5.00 0 0 1 152.25 327.00" fill="none" stroke="#dc5a5a" stroke-width="1.5" /></g>    <g id="door_8" data-type="door" data-door-type="single_swing"><line id="door_8_origin" data-type="door_origin" x1="157.25" y1="363.94" x2="157.25" y2="346.00" stroke="#a046b4" stroke-width="2" stroke-linecap="butt" /><line id="door_8_leaf" data-type="door_leaf" x1="157.25" y1="363.94" x2="139.31" y2="363.94" stroke="#eb8c50" stroke-width="1.5" /><path id="door_8_arc" data-type="door_arc" d="M 157.25 346.00 A 17.94 17.94 0 0 0 139.31 363.94" fill="none" stroke="#dc5a5a" stroke-width="1.5" /></g>    <g id="door_9" data-type="door" data-door-type="single_swing"><line id="door_9_origin" data-type="door_origin" x1="220.50" y1="347.00" x2="220.50" y2="361.00" stroke="#a046b4" stroke-width="2" stroke-linecap="butt" /><line id="door_9_leaf" data-type="door_leaf" x1="220.50" y1="347.00" x2="206.50" y2="347.00" stroke="#eb8c50" stroke-width="1.5" /><path id="door_9_arc" data-type="door_arc" d="M 220.50 361.00 A 14.00 14.00 0 0 1 206.50 347.00" fill="none" stroke="#dc5a5a" stroke-width="1.5" /></g>
  </g>

</svg>