<svg xmlns="http://www.w3.org/2000/svg" width="512" height="512" viewBox="0 0 512 512" data-unit="px" data-scale-status="unknown">
  <g id="floor">
    <polygon id="floor_0" class="floor" points="511.0,29.0 42.0,29.0 42.0,487.0 276.0,487.0 276.0,511.0 343.0,511.0 343.0,417.0 453.0,417.0 453.0,181.0 511.0,181.0" fill="#f5f0e8" stroke="none" />
  </g>
  <g id="rooms">
    <polygon id="room_0001" points="499.00,58.00 79.00,58.00 77.00,257.00 355.00,258.00 319.00,151.00 497.00,163.00" fill="rgba(80,160,220,0.40)" stroke="#3388aa" stroke-width="1" />
    <polygon id="room_0002" points="389.00,171.00 405.00,301.00 389.00,396.00 442.00,410.00 461.00,242.00 442.00,179.00 459.00,172.00" fill="rgba(80,160,220,0.40)" stroke="#3388aa" stroke-width="1" />
    <polygon id="room_0003" points="77.00,265.00 78.00,308.00 129.00,312.00 111.00,333.00 144.00,333.00 148.00,313.00 214.00,330.00 213.00,264.00" fill="rgba(80,160,220,0.40)" stroke="#3388aa" stroke-width="1" />
    <polygon id="room_0004" points="243.00,264.00 241.00,289.00 264.00,270.00 290.00,300.00 268.00,332.00 340.00,372.00 285.00,406.00 285.00,470.00 339.00,472.00 358.00,296.00" fill="rgba(80,160,220,0.40)" stroke="#3388aa" stroke-width="1" />
    <polygon id="room_0005" points="240.00,305.00 238.00,313.00 249.00,315.00 259.00,314.00 258.00,310.00 248.00,307.00 245.00,303.00" fill="rgba(80,160,220,0.10)" stroke="#3388aa" stroke-width="1" />
    <polygon id="room_0006" points="78.00,341.00 79.00,438.00 89.00,419.00 120.00,439.00 274.00,432.00 273.00,365.00 230.00,366.00 215.00,340.00" fill="rgba(80,160,220,0.40)" stroke="#3388aa" stroke-width="1" />
    <polygon id="room_0007" points="389.00,411.00 369.00,443.00 373.00,465.00 374.00,457.00 399.00,436.00 398.00,429.00 390.00,423.00" fill="rgba(80,160,220,0.15)" stroke="#3388aa" stroke-width="1" />
    <polygon id="room_0008" points="94.00,446.00 99.00,453.00 101.00,470.00 125.00,469.00 121.00,445.00" fill="rgba(80,160,220,0.13)" stroke="#3388aa" stroke-width="1" />
  </g>
  <g id="walls">
    <line id="wall_0000" x1="69.00" y1="47.25" x2="503.00" y2="47.25" stroke="#222222" stroke-width="14.00" stroke-linecap="square" />
    <line id="wall_0001" x1="373.00" y1="223.00" x2="373.00" y2="402.00" stroke="#222222" stroke-width="14.00" stroke-linecap="square" />
    <line id="wall_0002" x1="63.00" y1="313.00" x2="63.00" y2="364.00" stroke="#222222" stroke-width="14.00" stroke-linecap="square" />
    <line id="wall_0003" x1="384.00" y1="167.00" x2="501.00" y2="167.00" stroke="#222222" stroke-width="14.00" stroke-linecap="square" />
    <line id="wall_0004" x1="135.00" y1="469.00" x2="275.00" y2="469.00" stroke="#222222" stroke-width="14.00" stroke-linecap="square" />
    <line id="wall_0005" x1="237.00" y1="261.00" x2="281.00" y2="261.00" stroke="#222222" stroke-width="14.00" stroke-linecap="square" />
    <line id="wall_0006_s0" x1="96.00" y1="336.00" x2="207.95" y2="336.00" stroke="#222222" stroke-width="14.00" stroke-linecap="square" />
    <line id="wall_0007" x1="62.00" y1="261.00" x2="218.00" y2="261.00" stroke="#222222" stroke-width="14.00" stroke-linecap="square" />
    <line id="wall_0008" x1="280.00" y1="431.00" x2="280.00" y2="463.00" stroke="#888888" stroke-width="14.00" stroke-linecap="square" />
    <line id="wall_0009" x1="63.00" y1="83.00" x2="63.00" y2="132.00" stroke="#222222" stroke-width="14.00" stroke-linecap="square" />
    <line id="wall_0010" x1="73.00" y1="475.00" x2="129.00" y2="475.00" stroke="#222222" stroke-width="14.00" stroke-linecap="square" />
    <line id="wall_0011" x1="77.00" y1="157.00" x2="77.00" y2="198.00" stroke="#222222" stroke-width="14.00" stroke-linecap="square" />
    <line id="wall_0012" x1="48.00" y1="158.00" x2="48.00" y2="189.00" stroke="#888888" stroke-width="14.00" stroke-linecap="square" />
    <line id="wall_0013" x1="62.50" y1="223.99" x2="62.50" y2="246.01" stroke="#cccccc" stroke-width="14.00" stroke-linecap="square" />
    <line id="wall_0014" x1="49.00" y1="385.00" x2="49.00" y2="410.00" stroke="#888888" stroke-width="14.00" stroke-linecap="square" />
    <line id="wall_0015" x1="505.00" y1="43.00" x2="505.00" y2="163.00" stroke="#222222" stroke-width="14.00" stroke-linecap="square" />
    <line id="wall_0016" x1="279.00" y1="409.00" x2="279.00" y2="430.00" stroke="#cccccc" stroke-width="14.00" stroke-linecap="square" />
    <line id="wall_0017" x1="77.00" y1="379.00" x2="77.00" y2="418.00" stroke="#888888" stroke-width="14.00" stroke-linecap="square" />
    <line id="wall_0018" x1="373.00" y1="178.00" x2="373.00" y2="217.00" stroke="#888888" stroke-width="14.00" stroke-linecap="square" />
    <line id="wall_0019" x1="118.00" y1="442.00" x2="128.00" y2="442.00" stroke="#cccccc" stroke-width="14.00" stroke-linecap="square" />
    <line id="wall_0020" x1="231.00" y1="362.00" x2="279.00" y2="362.00" stroke="#222222" stroke-width="14.00" stroke-linecap="square" />
    <line id="wall_0021" x1="62.50" y1="432.99" x2="62.50" y2="465.01" stroke="#888888" stroke-width="14.00" stroke-linecap="square" />
    <line id="wall_0022" x1="339.00" y1="260.50" x2="372.00" y2="260.50" stroke="#888888" stroke-width="14.00" stroke-linecap="square" />
    <line id="wall_0023" x1="362.00" y1="438.00" x2="372.00" y2="403.00" stroke="#888888" stroke-width="14.00" stroke-linecap="square" />
    <line id="wall_0024" x1="286.00" y1="477.97" x2="286.00" y2="507.03" stroke="#888888" stroke-width="14.00" stroke-linecap="square" />
    <line id="wall_0025" x1="129.50" y1="442.99" x2="129.50" y2="464.01" stroke="#cccccc" stroke-width="14.00" stroke-linecap="square" />
    <line id="wall_0026" x1="64.00" y1="335.00" x2="88.00" y2="335.00" stroke="#cccccc" stroke-width="14.00" stroke-linecap="square" />
    <line id="wall_0027" x1="63.00" y1="54.00" x2="63.00" y2="82.00" stroke="#888888" stroke-width="14.00" stroke-linecap="square" />
    <line id="wall_0028" x1="230.00" y1="337.00" x2="230.00" y2="361.00" stroke="#cccccc" stroke-width="14.00" stroke-linecap="square" />
    <line id="wall_0029" x1="77.00" y1="280.00" x2="77.00" y2="298.00" stroke="#cccccc" stroke-width="14.00" stroke-linecap="square" />
    <line id="wall_0030" x1="279.50" y1="339.99" x2="279.50" y2="359.01" stroke="#cccccc" stroke-width="14.00" stroke-linecap="square" />
    <line id="wall_0031" x1="62.00" y1="441.00" x2="83.00" y2="441.00" stroke="#cccccc" stroke-width="14.00" stroke-linecap="square" />
    <line id="wall_0032" x1="62.00" y1="266.00" x2="76.00" y2="278.00" stroke="#cccccc" stroke-width="14.00" stroke-linecap="square" />
    <line id="wall_0033" x1="49.00" y1="199.00" x2="63.00" y2="213.00" stroke="#cccccc" stroke-width="14.00" stroke-linecap="square" />
    <line id="wall_0034" x1="49.00" y1="279.00" x2="62.00" y2="264.00" stroke="#cccccc" stroke-width="14.00" stroke-linecap="square" />
    <line id="wall_0035" x1="331.00" y1="500.00" x2="337.00" y2="490.00" stroke="#cccccc" stroke-width="14.00" stroke-linecap="square" />
    <line id="wall_0036" x1="348.00" y1="455.00" x2="359.00" y2="441.00" stroke="#cccccc" stroke-width="14.00" stroke-linecap="square" />
    <line id="wall_0037" x1="65.00" y1="134.00" x2="76.00" y2="145.00" stroke="#cccccc" stroke-width="14.00" stroke-linecap="square" />
    <line id="wall_0038" x1="62.00" y1="247.00" x2="62.00" y2="257.00" stroke="#cccccc" stroke-width="14.00" stroke-linecap="square" />
    <line id="wall_0039" x1="318.00" y1="508.00" x2="330.00" y2="501.00" stroke="#cccccc" stroke-width="14.00" stroke-linecap="square" />
    <line id="wall_0040" x1="50.00" y1="145.00" x2="60.00" y2="134.00" stroke="#cccccc" stroke-width="14.00" stroke-linecap="square" />
    <line id="wall_0041" x1="50.00" y1="421.00" x2="62.00" y2="433.00" stroke="#cccccc" stroke-width="14.00" stroke-linecap="square" />
    <line id="wall_0042" x1="62.00" y1="313.00" x2="76.00" y2="299.00" stroke="#cccccc" stroke-width="14.00" stroke-linecap="square" />
    <line id="wall_0043" x1="63.00" y1="212.00" x2="76.00" y2="199.00" stroke="#cccccc" stroke-width="14.00" stroke-linecap="square" />
    <line id="wall_0044" x1="346.00" y1="462.00" x2="346.00" y2="473.00" stroke="#cccccc" stroke-width="14.00" stroke-linecap="square" />
  </g>
  <g id="windows">
    <g id="window_0003" data-type="window"><polygon points="207.95,305.86 292.95,305.86 292.95,311.86 207.95,311.86" fill="#d0e8ff" stroke="#3355cc" stroke-width="1" /><line x1="207.95" y1="308.86" x2="292.95" y2="308.86" stroke="#3355cc" stroke-width="1.5" /></g>
  </g>
  <g id="doors">
    <g id="door_0001" data-type="door"><line x1="62.65" y1="198.44" x2="62.65" y2="146.44" stroke="#888888" stroke-width="2" stroke-linecap="square" /><line x1="62.65" y1="198.44" x2="114.65" y2="198.44" stroke="#888888" stroke-width="1.5" /><path d="M 62.65 146.44 A 52.00 52.00 0 0 0 114.65 198.44" fill="none" stroke="#888888" stroke-width="1" stroke-dasharray="3 2" /></g>
    <g id="door_0002" data-type="door"><line x1="281.88" y1="273.06" x2="226.88" y2="273.06" stroke="#222222" stroke-width="2" stroke-linecap="square" /><line x1="281.88" y1="273.06" x2="281.88" y2="218.06" stroke="#222222" stroke-width="1.5" /><path d="M 226.88 273.06 A 55.00 55.00 0 0 1 281.88 218.06" fill="none" stroke="#222222" stroke-width="1" stroke-dasharray="3 2" /></g>
    <g id="door_0004" data-type="door"><line x1="62.63" y1="303.07" x2="62.63" y2="275.07" stroke="#222222" stroke-width="2" stroke-linecap="square" /><line x1="62.63" y1="303.07" x2="90.63" y2="303.07" stroke="#222222" stroke-width="1.5" /><path d="M 62.63 275.07 A 28.00 28.00 0 0 0 90.63 303.07" fill="none" stroke="#222222" stroke-width="1" stroke-dasharray="3 2" /></g>
    <g id="door_0005" data-type="door"><line x1="92.19" y1="321.64" x2="83.19" y2="321.64" stroke="#222222" stroke-width="2" stroke-linecap="square" /><line x1="92.19" y1="321.64" x2="92.19" y2="312.64" stroke="#222222" stroke-width="1.5" /><path d="M 83.19 321.64 A 9.00 9.00 0 0 1 92.19 312.64" fill="none" stroke="#222222" stroke-width="1" stroke-dasharray="3 2" /></g>
    <g id="door_0006" data-type="door"><line x1="269.29" y1="380.57" x2="204.29" y2="380.57" stroke="#222222" stroke-width="2" stroke-linecap="square" /><line x1="269.29" y1="380.57" x2="269.29" y2="315.57" stroke="#222222" stroke-width="1.5" /><path d="M 204.29 380.57 A 65.00 65.00 0 0 1 269.29 315.57" fill="none" stroke="#222222" stroke-width="1" stroke-dasharray="3 2" /></g>
    <g id="door_0007" data-type="door"><line x1="62.88" y1="419.26" x2="62.88" y2="378.26" stroke="#222222" stroke-width="2" stroke-linecap="square" /><line x1="62.88" y1="419.26" x2="103.88" y2="419.26" stroke="#222222" stroke-width="1.5" /><path d="M 62.88 378.26 A 41.00 41.00 0 0 0 103.88 419.26" fill="none" stroke="#222222" stroke-width="1" stroke-dasharray="3 2" /></g>
    <g id="door_0008" data-type="door"><line x1="80.75" y1="434.50" x2="116.75" y2="434.50" stroke="#222222" stroke-width="2" stroke-linecap="square" /><line x1="80.75" y1="434.50" x2="80.75" y2="470.50" stroke="#222222" stroke-width="1.5" /><path d="M 116.75 434.50 A 36.00 36.00 0 0 0 80.75 470.50" fill="none" stroke="#222222" stroke-width="1" stroke-dasharray="3 2" /></g>
    <g id="door_0009" data-type="door"><line x1="287.09" y1="503.21" x2="332.87" y2="476.51" stroke="#222222" stroke-width="2" stroke-linecap="square" /><line x1="287.09" y1="503.21" x2="313.79" y2="548.99" stroke="#222222" stroke-width="1.5" /><path d="M 332.87 476.51 A 53.00 53.00 0 0 0 313.79 548.99" fill="none" stroke="#222222" stroke-width="1" stroke-dasharray="3 2" /></g>
  </g>
</svg>
