<svg xmlns="http://www.w3.org/2000/svg" width="512" height="512" viewBox="0 0 512 512" data-unit="mm" data-scale-status="estimated" data-px-to-mm="15.394736842105264" data-scale-source="door_arc_bbox_long_edge_clustering">
  <g id="wall">
    <path d="M 227.00,15.00 65.00,15.00 65.00,205.00 22.00,205.00 22.00,276.00 22.00,468.00 159.00,468.00 325.00,468.00 479.00,468.00 479.00,201.97 401.58,230.43 406.42,243.57 465.00,222.03 465.00,454.00 332.00,454.00 332.00,276.00 332.00,222.31 385.42,243.51 390.58,230.49 332.00,207.25 332.00,80.00 227.00,80.00 227.00,15.00 Z M 213.00,174.00 213.00,182.00 227.00,182.00 227.00,160.00 219.73,160.00 226.33,94.00 318.00,94.00 318.00,204.15 290.79,201.05 289.21,214.95 318.00,218.25 318.00,276.00 318.00,454.00 166.00,454.00 166.00,357.00 152.00,357.00 152.00,454.00 36.00,454.00 36.00,283.00 144.12,283.00 129.61,300.54 140.39,309.46 152.00,295.44 152.00,312.00 166.00,312.00 166.00,276.00 159.00,276.00 159.00,269.00 36.00,269.00 36.00,219.00 72.00,219.00 220.00,219.00 220.00,212.00 222.21,218.64 234.21,214.64 229.79,201.36 227.00,202.29 227.00,200.00 213.00,200.00 213.00,205.00 79.00,205.00 79.00,29.00 213.00,29.00 213.00,86.65 204.27,174.00 213.00,174.00 Z" fill="#000000" fill-rule="evenodd" stroke="none" id="wall_polygon" />
  </g>
  <g id="door">
    <g id="door_0001" data-type="door"><line id="door_origin_0001" data-type="door_origin" x1="232.00" y1="208.00" x2="290.46" y2="208.00" stroke="#a046b4" stroke-width="2" stroke-linecap="square" /><line id="door_leaf_0001" data-type="door_leaf" x1="232.00" y1="208.00" x2="232.00" y2="149.54" stroke="#eb8c50" stroke-width="1.5" /><path id="door_arc_0001" data-type="door_arc" d="M 290.46 208.00 A 58.46 58.46 0 0 0 232.00 149.54" fill="none" stroke="#dc5a5a" stroke-width="1.5" /></g>
    <g id="door_0002" data-type="door"><line id="door_origin_0002" data-type="door_origin" x1="212.00" y1="167.00" x2="212.00" y2="212.47" stroke="#a046b4" stroke-width="2" stroke-linecap="square" /><line id="door_leaf_0002" data-type="door_leaf" x1="212.00" y1="167.00" x2="257.47" y2="167.00" stroke="#eb8c50" stroke-width="1.5" /><path id="door_arc_0002" data-type="door_arc" d="M 212.00 212.47 A 45.47 45.47 0 0 0 257.47 167.00" fill="none" stroke="#dc5a5a" stroke-width="1.5" /></g>
    <g id="door_0003" data-type="door"><line id="door_origin_0003" data-type="door_origin" x1="220.00" y1="182.00" x2="220.00" y2="200.00" stroke="#a046b4" stroke-width="2" stroke-linecap="square" /><line id="door_leaf_0003" data-type="door_leaf" x1="220.00" y1="182.00" x2="238.00" y2="182.00" stroke="#eb8c50" stroke-width="1.5" /><path id="door_arc_0003" data-type="door_arc" d="M 220.00 200.00 A 18.00 18.00 0 0 0 238.00 182.00" fill="none" stroke="#dc5a5a" stroke-width="1.5" /></g>
    <g id="door_0004" data-type="door"><line id="door_origin_0004" data-type="door_origin" x1="325.00" y1="231.00" x2="325.00" y2="276.47" stroke="#a046b4" stroke-width="2" stroke-linecap="square" /><line id="door_leaf_0004" data-type="door_leaf" x1="325.00" y1="231.00" x2="370.47" y2="231.00" stroke="#eb8c50" stroke-width="1.5" /><path id="door_arc_0004" data-type="door_arc" d="M 325.00 276.47 A 45.47 45.47 0 0 0 370.47 231.00" fill="none" stroke="#dc5a5a" stroke-width="1.5" /></g>
    <g id="door_0005" data-type="door"><line id="door_origin_0005" data-type="door_origin" x1="388.00" y1="237.00" x2="404.00" y2="237.00" stroke="#a046b4" stroke-width="2" stroke-linecap="square" /><line id="door_leaf_0005" data-type="door_leaf" x1="388.00" y1="237.00" x2="388.00" y2="253.00" stroke="#eb8c50" stroke-width="1.5" /><path id="door_arc_0005" data-type="door_arc" d="M 404.00 237.00 A 16.00 16.00 0 0 1 388.00 253.00" fill="none" stroke="#dc5a5a" stroke-width="1.5" /></g>
    <g id="door_0006" data-type="door"><line id="door_origin_0006" data-type="door_origin" x1="135.00" y1="305.00" x2="126.00" y2="305.00" stroke="#a046b4" stroke-width="2" stroke-linecap="square" /><line id="door_leaf_0006" data-type="door_leaf" x1="135.00" y1="305.00" x2="135.00" y2="296.00" stroke="#eb8c50" stroke-width="1.5" /><path id="door_arc_0006" data-type="door_arc" d="M 126.00 305.00 A 9.00 9.00 0 0 1 135.00 296.00" fill="none" stroke="#dc5a5a" stroke-width="1.5" /></g>
    <g id="door_0007" data-type="door"><line id="door_origin_0007" data-type="door_origin" x1="159.00" y1="312.00" x2="159.00" y2="357.47" stroke="#a046b4" stroke-width="2" stroke-linecap="square" /><line id="door_leaf_0007" data-type="door_leaf" x1="159.00" y1="312.00" x2="113.53" y2="312.00" stroke="#eb8c50" stroke-width="1.5" /><path id="door_arc_0007" data-type="door_arc" d="M 159.00 357.47 A 45.47 45.47 0 0 1 113.53 312.00" fill="none" stroke="#dc5a5a" stroke-width="1.5" /></g>
  </g>
</svg>
