<svg xmlns="http://www.w3.org/2000/svg" width="512" height="512" viewBox="0 0 512 512" data-unit="px" data-scale-status="unknown">
  <g id="floor">
    <polygon id="floor_0" class="floor" points="47.0,59.0 47.0,262.0 161.0,262.0 161.0,333.0 242.0,333.0 242.0,464.0 267.0,464.0 267.0,511.0 320.0,511.0 320.0,477.0 472.0,477.0 472.0,192.0 496.0,192.0 496.0,197.0 496.0,152.0 480.0,152.0 480.0,59.0" fill="#f5f0e8" stroke="none" />
  </g>
  <g id="rooms">
    <polygon id="room_0001" points="57.00,73.00 53.00,245.00 112.00,267.00 80.00,262.00 88.00,243.00 55.00,241.00 89.00,202.00 88.00,74.00" fill="rgba(80,160,220,0.40)" stroke="#3388aa" stroke-width="1" />
    <polygon id="room_0002" points="97.00,75.00 97.00,258.00 259.00,258.00 284.00,443.00 322.00,370.00 325.00,430.00 398.00,420.00 319.00,333.00 456.00,332.00 457.00,225.00 350.00,224.00 322.00,296.00 263.00,77.00" fill="rgba(80,160,220,0.40)" stroke="#3388aa" stroke-width="1" />
    <polygon id="room_0003" points="290.00,75.00 290.00,175.00 326.00,216.00 457.00,214.00 456.00,75.00" fill="rgba(80,160,220,0.40)" stroke="#3388aa" stroke-width="1" />
    <polygon id="room_0004" points="465.00,122.00 466.00,183.00 471.00,178.00 472.00,148.00" fill="rgba(80,160,220,0.10)" stroke="#3388aa" stroke-width="1" />
    <polygon id="room_0005" points="153.00,267.00 208.00,283.00 132.00,325.00 201.00,354.00 245.00,345.00 252.00,401.00 252.00,288.00 229.00,275.00 252.00,267.00" fill="rgba(80,160,220,0.40)" stroke="#3388aa" stroke-width="1" />
    <polygon id="room_0006" points="413.00,409.00 415.00,429.00 429.00,428.00 431.00,422.00 421.00,419.00 419.00,411.00" fill="rgba(80,160,220,0.10)" stroke="#3388aa" stroke-width="1" />
    <polygon id="room_0007" points="373.00,433.00 371.00,458.00 374.00,461.00 376.00,453.00 375.00,436.00" fill="rgba(80,160,220,0.10)" stroke="#3388aa" stroke-width="1" />
  </g>
  <g id="walls">
    <line id="wall_0000" x1="95.00" y1="70.00" x2="459.00" y2="70.00" stroke="#222222" stroke-width="8.00" stroke-linecap="square" />
    <line id="wall_0001" x1="256.00" y1="263.00" x2="256.00" y2="450.00" stroke="#222222" stroke-width="8.00" stroke-linecap="square" />
    <line id="wall_0002" x1="322.00" y1="220.00" x2="460.00" y2="220.00" stroke="#222222" stroke-width="8.00" stroke-linecap="square" />
    <line id="wall_0003" x1="262.00" y1="115.00" x2="262.00" y2="206.00" stroke="#222222" stroke-width="8.00" stroke-linecap="square" />
    <line id="wall_0004" x1="93.00" y1="261.62" x2="243.00" y2="261.62" stroke="#222222" stroke-width="8.00" stroke-linecap="square" />
    <line id="wall_0005" x1="322.00" y1="363.00" x2="379.00" y2="363.00" stroke="#222222" stroke-width="8.00" stroke-linecap="square" />
    <line id="wall_0006" x1="461.00" y1="334.00" x2="461.00" y2="362.00" stroke="#888888" stroke-width="8.00" stroke-linecap="square" />
    <line id="wall_0007" x1="321.75" y1="332.00" x2="321.75" y2="388.00" stroke="#222222" stroke-width="8.00" stroke-linecap="square" />
    <line id="wall_0008" x1="322.00" y1="464.50" x2="459.00" y2="464.50" stroke="#222222" stroke-width="8.00" stroke-linecap="square" />
    <line id="wall_0009" x1="321.00" y1="211.00" x2="321.00" y2="229.00" stroke="#cccccc" stroke-width="8.00" stroke-linecap="square" />
    <line id="wall_0010" x1="459.50" y1="384.99" x2="459.50" y2="422.01" stroke="#888888" stroke-width="8.00" stroke-linecap="square" />
    <line id="wall_0011" x1="410.50" y1="418.00" x2="410.50" y2="465.00" stroke="#222222" stroke-width="8.00" stroke-linecap="square" />
    <line id="wall_0012" x1="387.00" y1="370.50" x2="454.00" y2="370.50" stroke="#222222" stroke-width="8.00" stroke-linecap="square" />
    <line id="wall_0013" x1="263.00" y1="82.00" x2="263.00" y2="121.00" stroke="#888888" stroke-width="8.00" stroke-linecap="square" />
    <line id="wall_0014" x1="322.00" y1="232.00" x2="322.00" y2="269.00" stroke="#888888" stroke-width="8.00" stroke-linecap="square" />
    <line id="wall_0015" x1="460.00" y1="72.00" x2="460.00" y2="101.00" stroke="#888888" stroke-width="8.00" stroke-linecap="square" />
    <line id="wall_0016" x1="92.00" y1="244.00" x2="92.00" y2="261.00" stroke="#cccccc" stroke-width="8.00" stroke-linecap="square" />
    <line id="wall_0017" x1="260.00" y1="453.00" x2="279.00" y2="453.00" stroke="#cccccc" stroke-width="8.00" stroke-linecap="square" />
    <line id="wall_0018" x1="266.99" y1="213.50" x2="287.01" y2="213.50" stroke="#cccccc" stroke-width="8.00" stroke-linecap="square" />
    <line id="wall_0019" x1="461.00" y1="194.00" x2="461.00" y2="210.00" stroke="#cccccc" stroke-width="8.00" stroke-linecap="square" />
    <line id="wall_0021" x1="92.00" y1="73.00" x2="92.00" y2="92.00" stroke="#cccccc" stroke-width="8.00" stroke-linecap="square" />
    <line id="wall_0022" x1="461.00" y1="222.00" x2="461.00" y2="232.00" stroke="#cccccc" stroke-width="8.00" stroke-linecap="square" />
    <line id="wall_0023" x1="321.50" y1="269.99" x2="321.50" y2="294.01" stroke="#cccccc" stroke-width="8.00" stroke-linecap="square" />
    <line id="wall_0024" x1="279.50" y1="453.98" x2="279.50" y2="466.02" stroke="#cccccc" stroke-width="8.00" stroke-linecap="square" />
  </g>
  <g id="windows">
    <g id="window_0002" data-type="window"><polygon points="41.95,142.05 143.95,142.05 143.95,148.05 41.95,148.05" fill="#d0e8ff" stroke="#3355cc" stroke-width="1" /><line x1="41.95" y1="145.05" x2="143.95" y2="145.05" stroke="#3355cc" stroke-width="1.5" /></g>
    <g id="window_0003" data-type="window"><polygon points="416.99,144.58 504.99,144.58 504.99,150.58 416.99,150.58" fill="#d0e8ff" stroke="#3355cc" stroke-width="1" /><line x1="416.99" y1="147.58" x2="504.99" y2="147.58" stroke="#3355cc" stroke-width="1.5" /></g>
    <g id="window_0004" data-type="window"><polygon points="493.13,171.35 523.13,171.35 523.13,177.35 493.13,177.35" fill="#d0e8ff" stroke="#3355cc" stroke-width="1" /><line x1="493.13" y1="174.35" x2="523.13" y2="174.35" stroke="#3355cc" stroke-width="1.5" /></g>
    <g id="window_0007" data-type="window"><polygon points="417.97,284.97 503.97,284.97 503.97,290.97 417.97,290.97" fill="#d0e8ff" stroke="#3355cc" stroke-width="1" /><line x1="417.97" y1="287.97" x2="503.97" y2="287.97" stroke="#3355cc" stroke-width="1.5" /></g>
    <g id="window_0010" data-type="window"><polygon points="305.60,392.45 305.60,514.45 299.60,514.45 299.60,392.45" fill="#d0e8ff" stroke="#3355cc" stroke-width="1" /><line x1="302.60" y1="392.45" x2="302.60" y2="514.45" stroke="#3355cc" stroke-width="1.5" /></g>
    <g id="window_0013" data-type="window"><polygon points="456.73,451.35 457.22,433.35 463.22,433.52 462.73,451.51" fill="#d0e8ff" stroke="#3355cc" stroke-width="1" /><line x1="459.73" y1="451.43" x2="460.22" y2="433.44" stroke="#3355cc" stroke-width="1.5" /></g>
  </g>
  <g id="doors">
    <g id="door_0001" data-type="door"><line x1="87.17" y1="73.33" x2="87.17" y2="68.33" stroke="#888888" stroke-width="2" stroke-linecap="square" /><line x1="87.17" y1="73.33" x2="92.17" y2="73.33" stroke="#888888" stroke-width="1.5" /><path d="M 87.17 68.33 A 5.00 5.00 0 0 0 92.17 73.33" fill="none" stroke="#888888" stroke-width="1" stroke-dasharray="3 2" /></g>
    <g id="door_0005" data-type="door"><line x1="303.35" y1="177.58" x2="303.35" y2="135.58" stroke="#222222" stroke-width="2" stroke-linecap="square" /><line x1="303.35" y1="177.58" x2="345.35" y2="177.58" stroke="#222222" stroke-width="1.5" /><path d="M 303.35 135.58 A 42.00 42.00 0 0 1 345.35 177.58" fill="none" stroke="#222222" stroke-width="1" stroke-dasharray="3 2" /></g>
    <g id="door_0006" data-type="door"><line x1="92.34" y1="260.95" x2="92.34" y2="188.95" stroke="#222222" stroke-width="2" stroke-linecap="square" /><line x1="92.34" y1="260.95" x2="164.34" y2="260.95" stroke="#222222" stroke-width="1.5" /><path d="M 92.34 188.95 A 72.00 72.00 0 0 0 164.34 260.95" fill="none" stroke="#222222" stroke-width="1" stroke-dasharray="3 2" /></g>
    <g id="door_0008" data-type="door"><line x1="82.67" y1="263.71" x2="82.67" y2="274.71" stroke="#222222" stroke-width="2" stroke-linecap="square" /><line x1="82.67" y1="263.71" x2="71.67" y2="263.71" stroke="#222222" stroke-width="1.5" /><path d="M 82.67 274.71 A 11.00 11.00 0 0 1 71.67 263.71" fill="none" stroke="#222222" stroke-width="1" stroke-dasharray="3 2" /></g>
    <g id="door_0009" data-type="door"><line x1="399.70" y1="384.48" x2="399.70" y2="418.48" stroke="#222222" stroke-width="2" stroke-linecap="square" /><line x1="399.70" y1="384.48" x2="365.70" y2="384.48" stroke="#222222" stroke-width="1.5" /><path d="M 399.70 418.48 A 34.00 34.00 0 0 0 365.70 384.48" fill="none" stroke="#222222" stroke-width="1" stroke-dasharray="3 2" /></g>
    <g id="door_0011" data-type="door"><line x1="373.55" y1="398.62" x2="368.55" y2="398.62" stroke="#222222" stroke-width="2" stroke-linecap="square" /><line x1="373.55" y1="398.62" x2="373.55" y2="393.62" stroke="#222222" stroke-width="1.5" /><path d="M 368.55 398.62 A 5.00 5.00 0 0 1 373.55 393.62" fill="none" stroke="#222222" stroke-width="1" stroke-dasharray="3 2" /></g>
    <g id="door_0012" data-type="door"><line x1="376.96" y1="411.50" x2="376.96" y2="419.50" stroke="#222222" stroke-width="2" stroke-linecap="square" /><line x1="376.96" y1="411.50" x2="368.96" y2="411.50" stroke="#222222" stroke-width="1.5" /><path d="M 376.96 419.50 A 8.00 8.00 0 0 0 368.96 411.50" fill="none" stroke="#222222" stroke-width="1" stroke-dasharray="3 2" /></g>
  </g>
</svg>
