<svg xmlns="http://www.w3.org/2000/svg" width="512" height="512" viewBox="0 0 512 512">
<rect width="512" height="512" fill="white"/>
<line x1="310" y1="158" x2="310" y2="138" stroke="blue" stroke-width="2"/>
<line x1="310" y1="158" x2="74" y2="159" stroke="blue" stroke-width="2"/>
<line x1="141" y1="328" x2="212" y2="328" stroke="blue" stroke-width="2"/>
<line x1="212" y1="379" x2="212" y2="158" stroke="blue" stroke-width="2"/>
<line x1="118" y1="131" x2="118" y2="158" stroke="blue" stroke-width="2"/>
<line x1="118" y1="131" x2="172" y2="131" stroke="blue" stroke-width="2"/>
<line x1="212" y1="281" x2="436" y2="280" stroke="blue" stroke-width="2"/>
<line x1="436" y1="379" x2="436" y2="138" stroke="blue" stroke-width="2"/>
<line x1="436" y1="379" x2="76" y2="379" stroke="blue" stroke-width="2"/>
<line x1="150" y1="328" x2="152" y2="258" stroke="blue" stroke-width="2"/>
<line x1="310" y1="379" x2="310" y2="280" stroke="blue" stroke-width="2"/>
<line x1="172" y1="131" x2="172" y2="158" stroke="blue" stroke-width="2"/>
<line x1="436" y1="131" x2="310" y2="131" stroke="blue" stroke-width="2"/>
<line x1="74" y1="159" x2="76" y2="379" stroke="blue" stroke-width="2"/>
<line x1="212" y1="258" x2="76" y2="258" stroke="blue" stroke-width="2"/>
<circle cx="310" cy="158" r="4" fill="red"/>
<circle cx="141" cy="328" r="4" fill="red"/>
<circle cx="212" cy="379" r="4" fill="red"/>
<circle cx="118" cy="131" r="4" fill="red"/>
<circle cx="212" cy="281" r="4" fill="red"/>
<circle cx="118" cy="158" r="4" fill="red"/>
<circle cx="436" cy="379" r="4" fill="red"/>
<circle cx="436" cy="138" r="4" fill="red"/>
<circle cx="150" cy="328" r="4" fill="red"/>
<circle cx="310" cy="379" r="4" fill="red"/>
<circle cx="172" cy="131" r="4" fill="red"/>
<circle cx="310" cy="138" r="4" fill="red"/>
<circle cx="436" cy="131" r="4" fill="red"/>
<circle cx="212" cy="158" r="4" fill="red"/>
<circle cx="152" cy="258" r="4" fill="red"/>
<circle cx="310" cy="280" r="4" fill="red"/>
<circle cx="74" cy="159" r="4" fill="red"/>
<circle cx="212" cy="258" r="4" fill="red"/>
<circle cx="436" cy="280" r="4" fill="red"/>
<circle cx="172" cy="158" r="4" fill="red"/>
<circle cx="212" cy="328" r="4" fill="red"/>
<circle cx="76" cy="258" r="4" fill="red"/>
<circle cx="76" cy="379" r="4" fill="red"/>
<circle cx="310" cy="131" r="4" fill="red"/>
</svg>