<svg xmlns="http://www.w3.org/2000/svg" width="512" height="512" viewBox="0 0 512 512" data-unit="mm" data-scale-status="estimated" data-px-to-mm="10.9375" data-scale-source="door_arc_bbox_long_edge_clustering">
  <g id="wall">
    <path d="M 89.59,213.59 89.59,141.31 79.40,136.21 75.59,143.82 75.59,47.59 115.00,47.59 115.00,32.41 60.41,32.41 60.41,206.00 60.41,439.41 57.00,439.41 57.00,454.59 75.59,454.59 75.59,213.59 89.59,213.59 Z M 210.00,47.59 281.41,47.59 281.41,213.59 301.41,213.59 301.41,346.00 316.59,346.00 316.59,213.59 327.00,213.59 327.00,198.41 309.00,198.41 296.59,198.41 296.59,32.41 210.00,32.41 210.00,47.59 Z M 301.41,383.00 301.41,423.74 195.66,428.42 196.34,443.58 309.17,438.59 473.00,438.59 473.00,423.41 316.59,423.41 316.59,383.00 301.41,383.00 Z M 162.05,443.52 159.95,428.48 80.95,439.48 83.05,454.52 162.05,443.52 Z" fill="#000000" fill-rule="evenodd" stroke="none" id="wall_polygon" />
  </g>
  <g id="window">
    <path d="M 210.00,45.07 210.00,35.93 115.00,35.93 115.00,45.07 210.00,45.07 Z" fill="#3c78dc" fill-rule="evenodd" stroke="none" id="windowedge_1" data-type="window" />
  </g>
  <g id="door">
    <g id="door_0001" data-type="door"><line id="door_origin_0001" data-type="door_origin" x1="89.48" y1="143.49" x2="76.20" y2="143.49" stroke="#a046b4" stroke-width="2" stroke-linecap="square" /><line id="door_leaf_0001" data-type="door_leaf" x1="89.48" y1="143.49" x2="89.48" y2="156.77" stroke="#eb8c50" stroke-width="1.5" /><path id="door_arc_0001" data-type="door_arc" d="M 76.20 143.49 A 13.28 13.28 0 0 0 89.48 156.77" fill="none" stroke="#dc5a5a" stroke-width="1.5" /></g>
    <g id="door_0002" data-type="door"><line id="door_origin_0002" data-type="door_origin" x1="308.96" y1="382.63" x2="308.96" y2="345.76" stroke="#a046b4" stroke-width="2" stroke-linecap="square" /><line id="door_leaf_0002" data-type="door_leaf" x1="308.96" y1="382.63" x2="345.84" y2="382.63" stroke="#eb8c50" stroke-width="1.5" /><path id="door_arc_0002" data-type="door_arc" d="M 308.96 345.76 A 36.88 36.88 0 0 1 345.84 382.63" fill="none" stroke="#dc5a5a" stroke-width="1.5" /></g>
    <g id="door_0003" data-type="door"><line id="door_origin_0003" data-type="door_origin" x1="160.67" y1="436.06" x2="196.00" y2="436.06" stroke="#a046b4" stroke-width="2" stroke-linecap="square" /><line id="door_leaf_0003" data-type="door_leaf" x1="160.67" y1="436.06" x2="160.67" y2="471.40" stroke="#eb8c50" stroke-width="1.5" /><path id="door_arc_0003" data-type="door_arc" d="M 196.00 436.06 A 35.33 35.33 0 0 1 160.67 471.40" fill="none" stroke="#dc5a5a" stroke-width="1.5" /></g>
  </g>
</svg>
