<svg xmlns="http://www.w3.org/2000/svg" width="512" height="512" viewBox="0 0 512 512" data-unit="px" data-scale-status="unknown">
  <g id="floor">
    <polygon id="floor_0" class="floor" points="10.0,15.0 10.0,361.0 61.0,361.0 61.0,478.0 211.0,478.0 263.0,478.0 328.0,478.0 511.0,478.0 511.0,197.0 343.0,197.0 343.0,104.0 198.0,104.0 198.0,15.0" fill="#f5f0e8" stroke="none" />
  </g>
  <g id="wall">
    <line id="wall_outer_0000_s0" x1="10.00" y1="15.00" x2="10.00" y2="260.16" stroke="#222222" stroke-width="10.00" stroke-linecap="square" />
    <line id="wall_outer_0000_s1" x1="10.00" y1="295.16" x2="10.00" y2="361.00" stroke="#222222" stroke-width="10.00" stroke-linecap="square" />
    <line id="wall_outer_0001_s0" x1="10.00" y1="361.00" x2="31.67" y2="361.00" stroke="#222222" stroke-width="10.00" stroke-linecap="square" />
    <line id="wall_outer_0001_s1" x1="36.67" y1="361.00" x2="61.00" y2="361.00" stroke="#222222" stroke-width="10.00" stroke-linecap="square" />
    <line id="wall_outer_0002" x1="61.00" y1="361.00" x2="61.00" y2="478.00" stroke="#222222" stroke-width="10.00" stroke-linecap="square" />
    <line id="wall_outer_0003" x1="61.00" y1="478.00" x2="211.00" y2="478.00" stroke="#222222" stroke-width="10.00" stroke-linecap="square" />
    <line id="wall_outer_0004" x1="211.00" y1="478.00" x2="263.00" y2="478.00" stroke="#222222" stroke-width="10.00" stroke-linecap="square" />
    <line id="wall_outer_0006" x1="328.00" y1="478.00" x2="511.00" y2="478.00" stroke="#222222" stroke-width="10.00" stroke-linecap="square" />
    <line id="wall_outer_0007_s0" x1="511.00" y1="478.00" x2="511.00" y2="406.24" stroke="#222222" stroke-width="10.00" stroke-linecap="square" />
    <line id="wall_outer_0007_s1" x1="511.00" y1="361.24" x2="511.00" y2="197.00" stroke="#222222" stroke-width="10.00" stroke-linecap="square" />
    <line id="wall_outer_0008" x1="511.00" y1="197.00" x2="343.00" y2="197.00" stroke="#222222" stroke-width="10.00" stroke-linecap="square" />
    <line id="wall_outer_0009" x1="343.00" y1="197.00" x2="343.00" y2="104.00" stroke="#222222" stroke-width="10.00" stroke-linecap="square" />
    <line id="wall_outer_0010_s0" x1="343.00" y1="104.00" x2="329.54" y2="104.00" stroke="#222222" stroke-width="10.00" stroke-linecap="square" />
    <line id="wall_outer_0010_s1" x1="281.54" y1="104.00" x2="227.43" y2="104.00" stroke="#222222" stroke-width="10.00" stroke-linecap="square" />
    <line id="wall_outer_0011" x1="198.00" y1="104.00" x2="198.00" y2="15.00" stroke="#222222" stroke-width="10.00" stroke-linecap="square" />
    <line id="wall_outer_0012" x1="198.00" y1="15.00" x2="10.00" y2="15.00" stroke="#222222" stroke-width="10.00" stroke-linecap="square" />
    <line id="wall_inner_0000" x1="26.50" y1="64.01" x2="26.50" y2="32.99" stroke="#888888" stroke-width="10.00" stroke-linecap="square" />
    <line id="wall_inner_0001" x1="129.00" y1="460.00" x2="187.00" y2="460.00" stroke="#222222" stroke-width="10.00" stroke-linecap="square" />
    <line id="wall_inner_0002_s0" x1="159.00" y1="206.00" x2="179.50" y2="206.00" stroke="#888888" stroke-width="10.00" stroke-linecap="square" />
    <line id="wall_inner_0003" x1="382.50" y1="362.00" x2="382.50" y2="402.00" stroke="#222222" stroke-width="10.00" stroke-linecap="square" />
    <line id="wall_inner_0004_s0" x1="36.00" y1="40.50" x2="83.56" y2="40.50" stroke="#222222" stroke-width="10.00" stroke-linecap="square" />
    <line id="wall_inner_0004_s1" x1="92.56" y1="40.50" x2="136.00" y2="40.50" stroke="#222222" stroke-width="10.00" stroke-linecap="square" />
    <line id="wall_inner_0005" x1="283.00" y1="209.25" x2="311.00" y2="209.25" stroke="#888888" stroke-width="10.00" stroke-linecap="square" />
    <line id="wall_inner_0006_s0" x1="26.50" y1="136.93" x2="26.50" y2="133.06" stroke="#222222" stroke-width="10.00" stroke-linecap="square" />
    <line id="wall_inner_0006_s1" x1="26.50" y1="118.06" x2="26.50" y2="107.96" stroke="#222222" stroke-width="10.00" stroke-linecap="square" />
    <line id="wall_inner_0007_s1" x1="339.42" y1="213.50" x2="366.00" y2="213.50" stroke="#222222" stroke-width="10.00" stroke-linecap="square" />
    <line id="wall_inner_0008" x1="401.00" y1="215.00" x2="429.00" y2="215.00" stroke="#888888" stroke-width="10.00" stroke-linecap="square" />
    <line id="wall_inner_0009" x1="398.00" y1="460.50" x2="455.00" y2="460.50" stroke="#222222" stroke-width="10.00" stroke-linecap="square" />
    <line id="wall_inner_0010_s0" x1="243.50" y1="318.00" x2="243.50" y2="382.50" stroke="#222222" stroke-width="10.00" stroke-linecap="square" />
    <line id="wall_inner_0011_s0" x1="374.75" y1="249.00" x2="374.75" y2="300.50" stroke="#222222" stroke-width="10.00" stroke-linecap="square" />
    <line id="wall_inner_0012_s0" x1="454.38" y1="214.00" x2="491.00" y2="214.00" stroke="#222222" stroke-width="10.00" stroke-linecap="square" />
    <line id="wall_inner_0013" x1="29.00" y1="27.00" x2="73.00" y2="27.00" stroke="#222222" stroke-width="10.00" stroke-linecap="square" />
    <line id="wall_inner_0014" x1="471.00" y1="457.50" x2="495.00" y2="457.50" stroke="#cccccc" stroke-width="10.00" stroke-linecap="square" />
    <line id="wall_inner_0016" x1="243.00" y1="261.03" x2="243.00" y2="226.97" stroke="#888888" stroke-width="10.00" stroke-linecap="square" />
    <line id="wall_inner_0017" x1="88.00" y1="461.00" x2="120.00" y2="461.00" stroke="#888888" stroke-width="10.00" stroke-linecap="square" />
    <line id="wall_inner_0018_s0" x1="247.00" y1="213.00" x2="266.23" y2="213.00" stroke="#888888" stroke-width="10.00" stroke-linecap="square" />
    <line id="wall_inner_0018_s1" x1="274.23" y1="213.00" x2="278.00" y2="213.00" stroke="#888888" stroke-width="10.00" stroke-linecap="square" />
    <line id="wall_inner_0019" x1="26.00" y1="307.00" x2="26.00" y2="296.00" stroke="#cccccc" stroke-width="10.00" stroke-linecap="square" />
    <line id="wall_inner_0020" x1="92.00" y1="450.00" x2="112.00" y2="450.00" stroke="#cccccc" stroke-width="10.00" stroke-linecap="square" />
    <line id="wall_inner_0021" x1="384.00" y1="428.00" x2="384.00" y2="438.00" stroke="#cccccc" stroke-width="10.00" stroke-linecap="square" />
    <line id="wall_inner_0022" x1="497.00" y1="219.00" x2="497.00" y2="276.00" stroke="#222222" stroke-width="10.00" stroke-linecap="square" />
    <line id="wall_inner_0023" x1="382.00" y1="456.06" x2="382.00" y2="438.94" stroke="#cccccc" stroke-width="10.00" stroke-linecap="square" />
    <line id="wall_inner_0024" x1="356.98" y1="458.50" x2="370.02" y2="458.50" stroke="#cccccc" stroke-width="10.00" stroke-linecap="square" />
    <line id="wall_inner_0025_s0" x1="28.00" y1="178.00" x2="28.00" y2="196.33" stroke="#cccccc" stroke-width="10.00" stroke-linecap="square" />
    <line id="wall_inner_0026" x1="377.00" y1="348.00" x2="377.00" y2="326.00" stroke="#cccccc" stroke-width="10.00" stroke-linecap="square" />
    <line id="wall_inner_0027" x1="261.98" y1="203.50" x2="276.02" y2="203.50" stroke="#cccccc" stroke-width="10.00" stroke-linecap="square" />
    <line id="wall_inner_0028" x1="27.00" y1="97.00" x2="27.00" y2="72.00" stroke="#888888" stroke-width="10.00" stroke-linecap="square" />
    <line id="wall_inner_0029" x1="373.00" y1="406.00" x2="373.00" y2="390.00" stroke="#cccccc" stroke-width="10.00" stroke-linecap="square" />
    <line id="wall_inner_0030" x1="119.98" y1="213.50" x2="133.02" y2="213.50" stroke="#cccccc" stroke-width="10.00" stroke-linecap="square" />
    <line id="wall_inner_0031" x1="139.30" y1="41.00" x2="162.70" y2="41.00" stroke="#cccccc" stroke-width="10.00" stroke-linecap="square" />
    <line id="wall_inner_0034" x1="366.21" y1="216.71" x2="380.79" y2="231.29" stroke="#cccccc" stroke-width="10.00" stroke-linecap="square" />
    <line id="wall_inner_0035" x1="198.00" y1="458.00" x2="208.00" y2="458.00" stroke="#cccccc" stroke-width="10.00" stroke-linecap="square" />
    <line id="wall_inner_0036_s0" x1="139.54" y1="208.96" x2="145.90" y2="202.60" stroke="#cccccc" stroke-width="10.00" stroke-linecap="square" />
    <line id="wall_inner_0038" x1="76.62" y1="447.12" x2="88.38" y2="458.88" stroke="#cccccc" stroke-width="10.00" stroke-linecap="square" />
    <line id="wall_inner_0039" x1="26.50" y1="59.98" x2="26.50" y2="71.02" stroke="#cccccc" stroke-width="10.00" stroke-linecap="square" />
    <line id="wall_inner_0040" x1="247.48" y1="224.48" x2="257.52" y2="234.52" stroke="#cccccc" stroke-width="10.00" stroke-linecap="square" />
  </g>
  <g id="opening">
    <line id="window_0001" data-type="window" x1="83.56" y1="40.50" x2="92.56" y2="40.50" stroke="#3355cc" stroke-width="10.00" stroke-linecap="square" />
    <line id="window_0003" data-type="window" x1="94.62" y1="98.70" x2="113.62" y2="98.70" stroke="#3355cc" stroke-width="8.00" stroke-linecap="square" />
    <line id="window_0006" data-type="window" x1="227.43" y1="104.00" x2="187.43" y2="104.00" stroke="#3355cc" stroke-width="10.00" stroke-linecap="square" />
    <line id="window_0007" data-type="window" x1="26.50" y1="133.06" x2="26.50" y2="118.06" stroke="#3355cc" stroke-width="10.00" stroke-linecap="square" />
    <line id="window_0008" data-type="window" x1="26.50" y1="175.93" x2="26.50" y2="136.93" stroke="#3355cc" stroke-width="10.00" stroke-linecap="square" />
    <line id="window_0009" data-type="window" x1="73.83" y1="193.29" x2="93.83" y2="193.29" stroke="#3355cc" stroke-width="8.00" stroke-linecap="square" />
    <line id="window_0010" data-type="window" x1="179.50" y1="206.00" x2="208.50" y2="206.00" stroke="#3355cc" stroke-width="10.00" stroke-linecap="square" />
    <line id="window_0011" data-type="window" x1="28.00" y1="196.33" x2="28.00" y2="201.33" stroke="#3355cc" stroke-width="10.00" stroke-linecap="square" />
    <line id="window_0012" data-type="window" x1="327.42" y1="213.50" x2="339.42" y2="213.50" stroke="#3355cc" stroke-width="10.00" stroke-linecap="square" />
    <line id="window_0013" data-type="window" x1="266.23" y1="213.00" x2="274.23" y2="213.00" stroke="#3355cc" stroke-width="10.00" stroke-linecap="square" />
    <line id="window_0014" data-type="window" x1="28.00" y1="196.50" x2="28.00" y2="203.50" stroke="#3355cc" stroke-width="10.00" stroke-linecap="square" />
    <line id="window_0015" data-type="window" x1="133.18" y1="215.32" x2="139.54" y2="208.96" stroke="#3355cc" stroke-width="10.00" stroke-linecap="square" />
    <line id="window_0016" data-type="window" x1="442.38" y1="214.00" x2="454.38" y2="214.00" stroke="#3355cc" stroke-width="10.00" stroke-linecap="square" />
    <line id="window_0017" data-type="window" x1="27.50" y1="228.98" x2="27.50" y2="248.98" stroke="#3355cc" stroke-width="10.00" stroke-linecap="square" />
    <line id="window_0018" data-type="window" x1="27.50" y1="234.48" x2="27.50" y2="243.48" stroke="#3355cc" stroke-width="10.00" stroke-linecap="square" />
    <line id="window_0020" data-type="window" x1="27.50" y1="242.04" x2="27.50" y2="249.04" stroke="#3355cc" stroke-width="10.00" stroke-linecap="square" />
    <line id="window_0021" data-type="window" x1="27.50" y1="244.52" x2="27.50" y2="255.52" stroke="#3355cc" stroke-width="10.00" stroke-linecap="square" />
    <line id="window_0022" data-type="window" x1="10.00" y1="260.16" x2="10.00" y2="295.16" stroke="#3355cc" stroke-width="10.00" stroke-linecap="square" />
    <line id="window_0023" data-type="window" x1="27.50" y1="246.02" x2="27.50" y2="254.02" stroke="#3355cc" stroke-width="10.00" stroke-linecap="square" />
    <line id="window_0024" data-type="window" x1="427.00" y1="321.00" x2="469.00" y2="321.00" stroke="#3355cc" stroke-width="10.00" stroke-linecap="square" />
    <line id="window_0025" data-type="window" x1="5.00" y1="309.00" x2="87.00" y2="309.00" stroke="#3355cc" stroke-width="10.00" stroke-linecap="square" />
    <line id="window_0026" data-type="window" x1="374.75" y1="300.50" x2="374.75" y2="305.50" stroke="#3355cc" stroke-width="10.00" stroke-linecap="square" />
    <line id="window_0027" data-type="window" x1="435.50" y1="321.00" x2="460.50" y2="321.00" stroke="#3355cc" stroke-width="10.00" stroke-linecap="square" />
    <line id="window_0029" data-type="window" x1="418.00" y1="321.00" x2="478.00" y2="321.00" stroke="#3355cc" stroke-width="10.00" stroke-linecap="square" />
    <line id="window_0030" data-type="window" x1="59.82" y1="357.82" x2="86.69" y2="384.69" stroke="#3355cc" stroke-width="10.00" stroke-linecap="square" />
    <line id="window_0031" data-type="window" x1="511.00" y1="406.24" x2="511.00" y2="361.24" stroke="#3355cc" stroke-width="10.00" stroke-linecap="square" />
    <line id="window_0032" data-type="window" x1="31.67" y1="361.00" x2="36.67" y2="361.00" stroke="#3355cc" stroke-width="10.00" stroke-linecap="square" />
    <line id="window_0033" data-type="window" x1="80.62" y1="378.62" x2="84.86" y2="382.86" stroke="#3355cc" stroke-width="10.00" stroke-linecap="square" />
    <line id="window_0034" data-type="window" x1="243.50" y1="382.50" x2="243.50" y2="395.50" stroke="#3355cc" stroke-width="10.00" stroke-linecap="square" />
    <line id="window_0035" data-type="window" x1="185.47" y1="478.00" x2="350.47" y2="478.00" stroke="#3355cc" stroke-width="10.00" stroke-linecap="square" />
    <line id="window_0037" data-type="window" x1="265.77" y1="478.00" x2="270.77" y2="478.00" stroke="#3355cc" stroke-width="10.00" stroke-linecap="square" />
    <g id="door_0002" data-type="door"><line x1="83.12" y1="98.44" x2="78.12" y2="98.44" stroke="#222222" stroke-width="2" stroke-linecap="square" /><line x1="83.12" y1="98.44" x2="83.12" y2="93.44" stroke="#222222" stroke-width="1.5" /><path d="M 78.12 98.44 A 5.00 5.00 0 0 1 83.12 93.44" fill="none" stroke="#222222" stroke-width="1" stroke-dasharray="3 2" /></g>
    <g id="door_0004" data-type="door"><line x1="55.23" y1="125.30" x2="100.23" y2="125.30" stroke="#222222" stroke-width="2" stroke-linecap="square" /><line x1="55.23" y1="125.30" x2="55.23" y2="170.30" stroke="#222222" stroke-width="1.5" /><path d="M 100.23 125.30 A 45.00 45.00 0 0 0 55.23 170.30" fill="none" stroke="#222222" stroke-width="1" stroke-dasharray="3 2" /></g>
    <g id="door_0005" data-type="door"><line x1="329.54" y1="104.00" x2="281.54" y2="104.00" stroke="#222222" stroke-width="2" stroke-linecap="square" /><line x1="329.54" y1="104.00" x2="329.54" y2="56.00" stroke="#222222" stroke-width="1.5" /><path d="M 281.54 104.00 A 48.00 48.00 0 0 0 329.54 56.00" fill="none" stroke="#222222" stroke-width="1" stroke-dasharray="3 2" /></g>
    <g id="door_0019" data-type="door"><line x1="87.25" y1="267.38" x2="154.25" y2="267.38" stroke="#222222" stroke-width="2" stroke-linecap="square" /><line x1="87.25" y1="267.38" x2="87.25" y2="334.38" stroke="#222222" stroke-width="1.5" /><path d="M 154.25 267.38 A 67.00 67.00 0 0 0 87.25 334.38" fill="none" stroke="#222222" stroke-width="1" stroke-dasharray="3 2" /></g>
    <g id="door_0028" data-type="door"><line x1="121.46" y1="322.22" x2="137.46" y2="322.22" stroke="#222222" stroke-width="2" stroke-linecap="square" /><line x1="121.46" y1="322.22" x2="121.46" y2="338.22" stroke="#222222" stroke-width="1.5" /><path d="M 137.46 322.22 A 16.00 16.00 0 0 0 121.46 338.22" fill="none" stroke="#222222" stroke-width="1" stroke-dasharray="3 2" /></g>
  </g>
  <g id="icon">
    <polygon id="icon_0001" data-type="icon" points="64.00,171.00 50.00,181.00 31.00,176.00 30.00,217.00 55.00,224.00 50.00,246.00 32.00,235.00 31.00,256.00 52.00,262.00 86.00,186.00" fill="#4caf50" stroke="#2e7d32" stroke-width="1" />
    <polygon id="icon_0002" data-type="icon" points="362.00,222.00 362.00,219.00 361.00,218.00 358.00,220.00 351.00,219.00 353.00,222.00" fill="#4caf50" stroke="#2e7d32" stroke-width="1" />
    <polygon id="icon_0003" data-type="icon" points="436.00,218.00 436.00,221.00 441.00,226.00 442.00,229.00 449.00,234.00 450.00,225.00 444.00,219.00" fill="#4caf50" stroke="#2e7d32" stroke-width="1" />
    <polygon id="icon_0004" data-type="icon" points="481.00,221.00 472.00,314.00 448.00,319.00 478.00,322.00 443.00,336.00 471.00,358.00 453.00,397.00 490.00,455.00 502.00,321.00 474.00,296.00" fill="#4caf50" stroke="#2e7d32" stroke-width="1" />
    <polygon id="icon_0005" data-type="icon" points="406.00,259.00 381.00,265.00 377.00,304.00 388.00,322.00 383.00,343.00 397.00,401.00 411.00,343.00 404.00,313.00 417.00,303.00" fill="#4caf50" stroke="#2e7d32" stroke-width="1" />
    <polygon id="icon_0006" data-type="icon" points="51.00,305.00 50.00,303.00 44.00,304.00 40.00,302.00 45.00,298.00 50.00,300.00 50.00,295.00 32.00,297.00 42.00,307.00 46.00,308.00" fill="#4caf50" stroke="#2e7d32" stroke-width="1" />
    <polygon id="icon_0007" data-type="icon" points="45.00,312.00 41.00,312.00 40.00,313.00 40.00,314.00 41.00,315.00 41.00,316.00 43.00,316.00 44.00,315.00 44.00,314.00 45.00,313.00" fill="#4caf50" stroke="#2e7d32" stroke-width="1" />
    <polygon id="icon_0008" data-type="icon" points="133.00,322.00 138.00,327.00 158.00,327.00 164.00,325.00 165.00,319.00 163.00,314.00 142.00,313.00" fill="#4caf50" stroke="#2e7d32" stroke-width="1" />
    <polygon id="icon_0009" data-type="icon" points="57.00,319.00 63.00,319.00 64.00,318.00 65.00,318.00 65.00,317.00 64.00,317.00 63.00,316.00 60.00,316.00 59.00,317.00 58.00,317.00 57.00,318.00" fill="#4caf50" stroke="#2e7d32" stroke-width="1" />
    <polygon id="icon_0010" data-type="icon" points="77.00,335.00 57.00,356.00 61.00,376.00 70.00,371.00 74.00,361.00 82.00,366.00 83.00,348.00" fill="#4caf50" stroke="#2e7d32" stroke-width="1" />
    <polygon id="icon_0011" data-type="icon" points="89.00,367.00 88.00,375.00 89.00,376.00 89.00,378.00 90.00,378.00 91.00,377.00 91.00,374.00 92.00,373.00 92.00,369.00 90.00,367.00" fill="#4caf50" stroke="#2e7d32" stroke-width="1" />
    <polygon id="icon_0012" data-type="icon" points="67.00,375.00 67.00,378.00 68.00,379.00 68.00,381.00 69.00,382.00 69.00,383.00 71.00,380.00 71.00,377.00 69.00,375.00" fill="#4caf50" stroke="#2e7d32" stroke-width="1" />
    <polygon id="icon_0013" data-type="icon" points="377.00,390.00 376.00,406.00 378.00,410.00 380.00,407.00 380.00,403.00 379.00,402.00 379.00,393.00" fill="#4caf50" stroke="#2e7d32" stroke-width="1" />
    <polygon id="icon_0014" data-type="icon" points="234.00,407.00 230.00,409.00 226.00,409.00 224.00,413.00 224.00,417.00 232.00,418.00 236.00,414.00 234.00,410.00" fill="#4caf50" stroke="#2e7d32" stroke-width="1" />
    <polygon id="icon_0015" data-type="icon" points="244.00,410.00 250.00,411.00 254.00,416.00 257.00,414.00 257.00,411.00 255.00,409.00 249.00,408.00" fill="#4caf50" stroke="#2e7d32" stroke-width="1" />
    <polygon id="icon_0016" data-type="icon" points="230.00,448.00 212.00,450.00 207.00,453.00 212.00,456.00 217.00,456.00 221.00,454.00 226.00,454.00" fill="#4caf50" stroke="#2e7d32" stroke-width="1" />
    <polygon id="icon_0017" data-type="icon" points="260.00,454.00 255.00,451.00 240.00,453.00 240.00,454.00 246.00,454.00 257.00,457.00" fill="#4caf50" stroke="#2e7d32" stroke-width="1" />
  </g>
  <g id="debug">
    <line x1="118.9" y1="478.0" x2="177.9" y2="478.0" stroke="#ff8800" stroke-width="2" stroke-dasharray="6 3" data-id="opening_0036" data-type="unresolved" />
  </g>
</svg>
