<svg xmlns="http://www.w3.org/2000/svg" width="512" height="512" viewBox="0 0 512 512" data-unit="px" data-scale-status="unknown" data-px-to-mm="" data-scale-source="scale_conflict_door_vs_wall">
  <g id="floor">
    <polygon id="floor_0" class="floor" points="83.0,61.0 83.0,194.0 57.0,194.0 57.0,249.0 80.0,249.0 80.0,274.0 245.0,274.0 245.0,462.0 267.0,462.0 267.0,511.0 321.0,511.0 321.0,477.0 471.0,477.0 471.0,61.0" fill="#ffffff" stroke="none" />
  </g>
  <g id="wall">
    <path d="M 79.00,94.00 87.00,94.00 87.00,65.00 467.00,65.00 467.00,103.00 475.00,103.00 475.00,57.00 79.00,57.00 79.00,94.00 Z M 277.00,219.00 291.00,219.00 291.00,211.00 277.00,211.00 277.00,219.00 Z M 475.00,244.00 475.00,192.00 467.00,192.00 467.00,244.00 475.00,244.00 Z M 76.00,253.00 76.00,278.00 241.00,278.00 241.00,466.00 263.00,466.00 263.00,515.00 325.00,515.00 325.00,481.00 475.00,481.00 475.00,453.00 467.00,453.00 467.00,473.00 317.00,473.00 317.00,507.00 271.00,507.00 271.00,458.00 249.00,458.00 249.00,270.00 84.00,270.00 84.00,245.00 61.00,245.00 61.00,198.00 83.00,198.00 83.00,190.00 53.00,190.00 53.00,253.00 76.00,253.00 Z M 475.00,432.00 475.00,331.00 467.00,331.00 467.00,432.00 475.00,432.00 Z M 381.00,449.00 381.00,436.00 373.00,436.00 373.00,449.00 381.00,449.00 Z" fill="#000000" fill-rule="evenodd" stroke="none" id="wall_polygon" />
  </g>
  <g id="window">
    <path d="M 81.00,198.00 85.00,198.00 85.00,94.00 81.00,94.00 81.00,198.00 Z" fill="#3c78dc" fill-rule="evenodd" stroke="none" id="window_0001" data-type="window" />
    <path d="M 473.00,103.00 469.00,103.00 469.00,192.00 473.00,192.00 473.00,103.00 Z" fill="#3c78dc" fill-rule="evenodd" stroke="none" id="window_0002" data-type="window" />
    <path d="M 473.00,165.00 469.00,165.00 469.00,178.00 473.00,178.00 473.00,165.00 Z" fill="#3c78dc" fill-rule="evenodd" stroke="none" id="window_0003" data-type="window" />
    <path d="M 473.00,244.00 469.00,244.00 469.00,331.00 473.00,331.00 473.00,244.00 Z" fill="#3c78dc" fill-rule="evenodd" stroke="none" id="window_0004" data-type="window" />
    <path d="M 473.00,432.00 469.00,432.00 469.00,453.00 473.00,453.00 473.00,432.00 Z" fill="#3c78dc" fill-rule="evenodd" stroke="none" id="window_0005" data-type="window" />
  </g>
  <g id="door">
    <g id="door_0002" data-type="door"><line id="door_origin_0002" data-type="door_origin" x1="291.00" y1="215.00" x2="319.00" y2="215.00" stroke="#a046b4" stroke-width="2" stroke-linecap="square" /><line id="door_leaf_0002" data-type="door_leaf" x1="291.00" y1="215.00" x2="291.00" y2="187.00" stroke="#eb8c50" stroke-width="1.5" /><path id="door_arc_0002" data-type="door_arc" d="M 319.00 215.00 A 28.00 28.00 0 0 0 291.00 187.00" fill="none" stroke="#dc5a5a" stroke-width="1.5" /></g>
    <g id="door_0005" data-type="door"><line id="door_origin_0005" data-type="door_origin" x1="377.00" y1="436.00" x2="377.00" y2="408.00" stroke="#a046b4" stroke-width="2" stroke-linecap="square" /><line id="door_leaf_0005" data-type="door_leaf" x1="377.00" y1="408.00" x2="405.00" y2="408.00" stroke="#eb8c50" stroke-width="1.5" /><path id="door_arc_0005" data-type="door_arc" d="M 377.00 436.00 A 28.00 28.00 0 0 0 405.00 408.00" fill="none" stroke="#dc5a5a" stroke-width="1.5" /></g>
  </g>
</svg>
