<svg xmlns="http://www.w3.org/2000/svg" width="512" height="512" viewBox="0 0 512 512" data-unit="px" data-scale-status="unknown" data-px-to-mm="" data-scale-source="scale_conflict_door_vs_wall">
  <g id="floor">
    <polygon id="floor_0" class="floor" points="9.0,34.0 9.0,364.0 108.0,364.0 190.0,364.0 190.0,339.0 230.0,339.0 230.0,427.0 73.0,427.0 73.0,477.0 511.0,477.0 511.0,197.0 324.0,197.0 324.0,113.0 297.0,113.0 297.0,191.0 137.0,191.0 137.0,245.0 68.0,245.0 68.0,201.0 39.0,201.0 39.0,145.0 93.0,145.0 93.0,90.0 90.0,90.0 166.0,90.0 166.0,34.0" fill="#ffffff" stroke="none" />
  </g>
  <g id="wall">
    <path d="M 97.00,106.00 97.00,94.00 170.00,94.00 170.00,30.00 5.00,30.00 5.00,78.00 13.00,78.00 13.00,38.00 162.00,38.00 162.00,86.00 97.00,86.00 90.00,86.00 90.00,90.00 89.00,90.00 89.00,106.00 97.00,106.00 Z M 39.00,141.00 39.00,149.00 97.00,149.00 97.00,123.00 89.00,123.00 89.00,141.00 39.00,141.00 Z M 5.00,184.00 13.00,184.00 13.00,102.00 5.00,102.00 5.00,184.00 Z M 43.00,197.00 43.00,179.00 35.00,179.00 35.00,205.00 64.00,205.00 64.00,228.20 50.26,241.08 55.74,246.92 64.00,239.17 64.00,249.00 141.00,249.00 141.00,195.00 182.00,195.00 182.00,187.00 133.00,187.00 133.00,241.00 72.00,241.00 72.00,197.00 43.00,197.00 Z M 13.00,242.00 5.00,242.00 5.00,255.00 13.00,255.00 13.00,242.00 Z M 5.00,294.00 5.00,308.00 5.00,368.00 194.00,368.00 194.00,343.00 226.00,343.00 226.00,423.00 69.00,423.00 69.00,481.00 210.00,481.00 210.00,473.00 77.00,473.00 77.00,431.00 234.00,431.00 234.00,335.00 186.00,335.00 186.00,360.00 13.00,360.00 13.00,308.00 13.00,294.00 13.00,292.00 5.00,292.00 5.00,294.00 Z M 231.00,195.00 301.00,195.00 301.00,117.00 320.00,117.00 320.00,197.00 328.00,197.00 328.00,109.00 293.00,109.00 293.00,187.00 231.00,187.00 231.00,195.00 Z M 436.00,201.00 436.00,193.00 430.00,193.00 390.00,193.00 370.00,193.00 370.00,201.00 390.00,201.00 430.00,201.00 436.00,201.00 Z M 507.00,274.00 515.00,274.00 515.00,193.00 453.00,193.00 453.00,201.00 507.00,201.00 507.00,274.00 Z M 472.00,326.00 472.00,318.00 433.00,318.00 433.00,326.00 472.00,326.00 Z M 515.00,285.00 507.00,285.00 507.00,364.00 515.00,364.00 515.00,285.00 Z M 175.00,336.00 175.00,328.00 150.00,328.00 150.00,336.00 175.00,336.00 Z M 348.00,473.00 348.00,481.00 515.00,481.00 515.00,401.00 507.00,401.00 507.00,473.00 348.00,473.00 Z" fill="#000000" fill-rule="evenodd" stroke="none" id="wall_polygon" />
  </g>
  <g id="window">
    <path d="M 7.00,102.00 11.00,102.00 11.00,78.00 7.00,78.00 7.00,102.00 Z" fill="#3c78dc" fill-rule="evenodd" stroke="none" id="window_0001" data-type="window" />
    <path d="M 41.00,111.00 37.00,111.00 37.00,179.00 41.00,179.00 41.00,111.00 Z" fill="#3c78dc" fill-rule="evenodd" stroke="none" id="window_0002" data-type="window" />
    <path d="M 7.00,292.00 11.00,292.00 11.00,184.00 7.00,184.00 7.00,292.00 Z" fill="#3c78dc" fill-rule="evenodd" stroke="none" id="window_0003" data-type="window" />
    <path d="M 182.00,189.00 182.00,193.00 231.00,193.00 231.00,189.00 182.00,189.00 Z" fill="#3c78dc" fill-rule="evenodd" stroke="none" id="window_0005" data-type="window" />
    <path d="M 278.00,195.00 278.00,199.00 370.00,199.00 370.00,195.00 278.00,195.00 Z" fill="#3c78dc" fill-rule="evenodd" stroke="none" id="window_0007" data-type="window" />
    <path d="M 430.00,195.00 430.00,199.00 453.00,199.00 453.00,195.00 430.00,195.00 Z" fill="#3c78dc" fill-rule="evenodd" stroke="none" id="window_0008" data-type="window" />
    <path d="M 513.00,274.00 509.00,274.00 509.00,285.00 513.00,285.00 513.00,274.00 Z" fill="#3c78dc" fill-rule="evenodd" stroke="none" id="window_0009" data-type="window" />
    <path d="M 513.00,364.00 509.00,364.00 509.00,401.00 513.00,401.00 513.00,364.00 Z" fill="#3c78dc" fill-rule="evenodd" stroke="none" id="window_0011" data-type="window" />
    <path d="M 348.00,479.00 348.00,475.00 210.00,475.00 210.00,479.00 348.00,479.00 Z" fill="#3c78dc" fill-rule="evenodd" stroke="none" id="window_0012" data-type="window" />
  </g>
  <g id="door">
    <g id="door_0002" data-type="door"><line id="door_origin_0002" data-type="door_origin" x1="93.00" y1="123.00" x2="93.00" y2="106.00" stroke="#a046b4" stroke-width="2" stroke-linecap="square" /><line id="door_leaf_0002" data-type="door_leaf" x1="93.00" y1="123.00" x2="76.00" y2="123.00" stroke="#eb8c50" stroke-width="1.5" /><path id="door_arc_0002" data-type="door_arc" d="M 93.00 106.00 A 17.00 17.00 0 0 0 76.00 123.00" fill="none" stroke="#dc5a5a" stroke-width="1.5" /></g>
    <g id="door_0003" data-type="door"><line id="door_origin_0003" data-type="door_origin" x1="218.00" y1="477.00" x2="232.00" y2="477.00" stroke="#a046b4" stroke-width="2" stroke-linecap="square" /><line id="door_leaf_0003" data-type="door_leaf" x1="218.00" y1="477.00" x2="218.00" y2="463.00" stroke="#eb8c50" stroke-width="1.5" /><path id="door_arc_0003" data-type="door_arc" d="M 232.00 477.00 A 14.00 14.00 0 0 0 218.00 463.00" fill="none" stroke="#dc5a5a" stroke-width="1.5" /></g>
  </g>
</svg>
