<svg xmlns="http://www.w3.org/2000/svg" width="512" height="512" viewBox="0 0 512 512" data-unit="mm" data-scale-status="estimated" data-px-to-mm="22.580645161290324">

  <g id="walls">
    <path d="M 75.57,126.00 L 75.57,225.58 L 84.43,225.58 L 84.43,214.43 L 88.65,214.43 L 88.65,205.57 L 84.43,205.57 L 84.43,128.43 L 180.59,128.43 L 180.59,119.57 L 79.00,119.57 L 79.00,126.00 L 75.57,126.00 Z" fill="#1a1a1a" stroke="none" fill-rule="evenodd" />    <path d="M 185.07,163.00 L 193.93,163.00 L 193.93,129.00 L 185.07,129.00 L 185.07,163.00 Z" fill="#1a1a1a" stroke="none" fill-rule="evenodd" />    <path d="M 185.07,175.00 L 193.93,175.00 L 193.93,169.00 L 185.07,169.00 L 185.07,175.00 Z" fill="#1a1a1a" stroke="none" fill-rule="evenodd" />    <path d="M 189.67,205.57 L 180.65,205.57 L 180.65,214.43 L 185.24,214.43 L 185.33,270.43 L 194.00,270.43 L 194.00,265.99 L 194.18,265.99 L 194.10,209.99 L 189.67,210.00 L 194.09,209.82 L 193.92,205.82 L 189.67,205.99 L 189.67,205.57 Z" fill="#1a1a1a" stroke="none" fill-rule="evenodd" />    <path d="M 84.43,280.54 L 75.57,280.62 L 76.11,341.19 L 212.01,340.76 L 267.99,340.76 L 307.98,340.93 L 308.02,332.07 L 272.43,331.92 L 272.43,303.00 L 263.57,303.00 L 263.57,331.90 L 216.43,331.90 L 216.43,270.43 L 263.57,270.43 L 263.57,272.00 L 272.43,272.00 L 272.43,270.43 L 341.57,270.43 L 341.57,280.00 L 350.43,280.00 L 350.43,261.57 L 268.00,261.57 L 207.57,261.57 L 207.57,331.92 L 84.89,332.31 L 84.43,280.54 Z" fill="#1a1a1a" stroke="none" fill-rule="evenodd" />    <path d="M 432.91,362.43 L 433.95,119.57 L 235.59,119.57 L 235.59,128.43 L 425.05,128.43 L 424.09,353.57 L 394.00,353.57 L 394.00,362.43 L 432.91,362.43 Z" fill="#1a1a1a" stroke="none" fill-rule="evenodd" />    <path d="M 341.57,311.00 L 341.57,362.43 L 363.00,362.43 L 363.00,353.57 L 350.43,353.57 L 350.43,311.00 L 341.57,311.00 Z" fill="#1a1a1a" stroke="none" fill-rule="evenodd" />
  </g>

  <g id="windows">
    <line x1="180.59" y1="124.00" x2="235.59" y2="124.00" stroke="#3a78dc" stroke-width="4" stroke-linecap="butt" />    <line x1="88.65" y1="210.00" x2="180.65" y2="210.00" stroke="#3a78dc" stroke-width="4" stroke-linecap="butt" />    <line x1="80.00" y1="225.58" x2="80.00" y2="280.58" stroke="#3a78dc" stroke-width="4" stroke-linecap="butt" />
  </g>

  <g id="doors">
    <g id="door_0" data-type="door" data-door-type="single_swing"><line id="door_0_origin" data-type="door_origin" x1="189.50" y1="169.00" x2="189.50" y2="163.00" stroke="#a046b4" stroke-width="2" stroke-linecap="butt" /><line id="door_0_leaf" data-type="door_leaf" x1="189.50" y1="169.00" x2="183.50" y2="169.00" stroke="#eb8c50" stroke-width="1.5" /><path id="door_0_arc" data-type="door_arc" d="M 189.50 163.00 A 6.00 6.00 0 0 0 183.50 169.00" fill="none" stroke="#dc5a5a" stroke-width="1.5" /></g>    <g id="door_1" data-type="door" data-door-type="single_swing"><line id="door_1_origin" data-type="door_origin" x1="189.50" y1="206.00" x2="189.50" y2="175.00" stroke="#a046b4" stroke-width="2" stroke-linecap="butt" /><line id="door_1_leaf" data-type="door_leaf" x1="189.50" y1="206.00" x2="158.50" y2="206.00" stroke="#eb8c50" stroke-width="1.5" /><path id="door_1_arc" data-type="door_arc" d="M 189.50 175.00 A 31.00 31.00 0 0 0 158.50 206.00" fill="none" stroke="#dc5a5a" stroke-width="1.5" /></g>    <g id="door_2" data-type="door" data-door-type="single_swing"><line id="door_2_origin" data-type="door_origin" x1="212.00" y1="266.00" x2="194.00" y2="266.00" stroke="#a046b4" stroke-width="2" stroke-linecap="butt" /><line id="door_2_leaf" data-type="door_leaf" x1="212.00" y1="266.00" x2="212.00" y2="248.00" stroke="#eb8c50" stroke-width="1.5" /><path id="door_2_arc" data-type="door_arc" d="M 194.00 266.00 A 18.00 18.00 0 0 1 212.00 248.00" fill="none" stroke="#dc5a5a" stroke-width="1.5" /></g>    <g id="door_3" data-type="door" data-door-type="single_swing"><line id="door_3_origin" data-type="door_origin" x1="268.00" y1="272.00" x2="268.00" y2="303.00" stroke="#a046b4" stroke-width="2" stroke-linecap="butt" /><line id="door_3_leaf" data-type="door_leaf" x1="268.00" y1="272.00" x2="299.00" y2="272.00" stroke="#eb8c50" stroke-width="1.5" /><path id="door_3_arc" data-type="door_arc" d="M 268.00 303.00 A 31.00 31.00 0 0 0 299.00 272.00" fill="none" stroke="#dc5a5a" stroke-width="1.5" /></g>    <g id="door_4" data-type="door" data-door-type="single_swing"><line id="door_4_origin" data-type="door_origin" x1="346.00" y1="311.00" x2="346.00" y2="280.00" stroke="#a046b4" stroke-width="2" stroke-linecap="butt" /><line id="door_4_leaf" data-type="door_leaf" x1="346.00" y1="311.00" x2="377.00" y2="311.00" stroke="#eb8c50" stroke-width="1.5" /><path id="door_4_arc" data-type="door_arc" d="M 346.00 280.00 A 31.00 31.00 0 0 1 377.00 311.00" fill="none" stroke="#dc5a5a" stroke-width="1.5" /></g>    <g id="door_5" data-type="door" data-door-type="single_swing"><line id="door_5_origin" data-type="door_origin" x1="363.00" y1="358.00" x2="394.00" y2="358.00" stroke="#a046b4" stroke-width="2" stroke-linecap="butt" /><line id="door_5_leaf" data-type="door_leaf" x1="363.00" y1="358.00" x2="363.00" y2="389.00" stroke="#eb8c50" stroke-width="1.5" /><path id="door_5_arc" data-type="door_arc" d="M 394.00 358.00 A 31.00 31.00 0 0 1 363.00 389.00" fill="none" stroke="#dc5a5a" stroke-width="1.5" /></g>
  </g>

</svg>