<svg xmlns="http://www.w3.org/2000/svg" width="512" height="512" viewBox="0 0 512 512">
<rect width="512" height="512" fill="white"/>
<line x1="189" y1="362" x2="189" y2="409" stroke="blue" stroke-width="2"/>
<line x1="189" y1="362" x2="219" y2="362" stroke="blue" stroke-width="2"/>
<line x1="220" y1="316" x2="187" y2="316" stroke="blue" stroke-width="2"/>
<line x1="218" y1="176" x2="103" y2="179" stroke="blue" stroke-width="2"/>
<line x1="274" y1="134" x2="219" y2="134" stroke="blue" stroke-width="2"/>
<line x1="273" y1="79" x2="103" y2="80" stroke="blue" stroke-width="2"/>
<line x1="273" y1="79" x2="273" y2="166" stroke="blue" stroke-width="2"/>
<line x1="103" y1="410" x2="103" y2="80" stroke="blue" stroke-width="2"/>
<line x1="103" y1="410" x2="273" y2="409" stroke="blue" stroke-width="2"/>
<line x1="103" y1="278" x2="426" y2="285" stroke="blue" stroke-width="2"/>
<line x1="272" y1="282" x2="273" y2="409" stroke="blue" stroke-width="2"/>
<line x1="426" y1="285" x2="428" y2="166" stroke="blue" stroke-width="2"/>
<line x1="273" y1="166" x2="428" y2="166" stroke="blue" stroke-width="2"/>
<line x1="219" y1="80" x2="219" y2="362" stroke="blue" stroke-width="2"/>
<circle cx="189" cy="362" r="4" fill="red"/>
<circle cx="220" cy="316" r="4" fill="red"/>
<circle cx="218" cy="176" r="4" fill="red"/>
<circle cx="274" cy="134" r="4" fill="red"/>
<circle cx="273" cy="79" r="4" fill="red"/>
<circle cx="189" cy="409" r="4" fill="red"/>
<circle cx="103" cy="410" r="4" fill="red"/>
<circle cx="187" cy="316" r="4" fill="red"/>
<circle cx="103" cy="80" r="4" fill="red"/>
<circle cx="103" cy="278" r="4" fill="red"/>
<circle cx="272" cy="282" r="4" fill="red"/>
<circle cx="426" cy="285" r="4" fill="red"/>
<circle cx="273" cy="166" r="4" fill="red"/>
<circle cx="103" cy="179" r="4" fill="red"/>
<circle cx="219" cy="134" r="4" fill="red"/>
<circle cx="219" cy="80" r="4" fill="red"/>
<circle cx="428" cy="166" r="4" fill="red"/>
<circle cx="273" cy="409" r="4" fill="red"/>
<circle cx="219" cy="362" r="4" fill="red"/>
</svg>