<svg xmlns="http://www.w3.org/2000/svg" width="512" height="512" viewBox="0 0 512 512" data-unit="mm" data-scale-status="estimated" data-px-to-mm="34.80769230769231">

  <g id="walls">
    <path d="M 158.13,201.00 L 163.87,201.00 L 163.87,153.30 L 165.95,153.37 L 166.14,147.63 L 161.09,147.46 L 161.00,150.33 L 160.80,147.47 L 158.37,147.63 L 158.55,150.33 L 158.13,150.33 L 158.13,201.00 Z" fill="#1a1a1a" stroke="none" fill-rule="evenodd" />    <path d="M 99.13,288.00 L 99.13,299.00 L 104.87,299.00 L 104.87,290.87 L 157.82,290.87 L 158.10,327.36 L 115.02,327.13 L 114.98,332.87 L 163.90,333.14 L 163.54,287.99 L 163.54,229.06 L 163.87,221.23 L 158.13,220.99 L 157.91,226.13 L 157.00,226.13 L 157.00,231.87 L 157.79,231.87 L 157.79,285.13 L 104.87,285.13 L 104.87,231.87 L 142.00,231.87 L 142.00,226.13 L 104.87,226.13 L 104.87,153.14 L 141.68,153.37 L 141.72,147.63 L 99.13,147.36 L 99.13,229.00 L 99.13,288.00 Z" fill="#1a1a1a" stroke="none" fill-rule="evenodd" />    <path d="M 230.87,306.00 L 230.87,210.00 L 225.13,210.00 L 225.13,306.00 L 230.87,306.00 Z" fill="#1a1a1a" stroke="none" fill-rule="evenodd" />    <path d="M 230.87,326.11 L 225.13,326.11 L 225.13,330.00 L 225.13,373.96 L 232.24,374.37 L 232.57,368.63 L 230.87,368.54 L 230.87,332.87 L 254.00,332.87 L 254.00,327.13 L 230.87,327.13 L 230.87,326.11 Z" fill="#1a1a1a" stroke="none" fill-rule="evenodd" />    <path d="M 104.87,334.33 L 104.87,324.86 L 99.13,324.86 L 99.13,334.33 L 104.87,334.33 Z" fill="#1a1a1a" stroke="none" fill-rule="evenodd" />    <path d="M 104.87,362.33 L 99.13,362.33 L 99.13,374.63 L 161.00,374.54 L 161.00,371.67 L 161.04,374.54 L 174.32,374.37 L 174.25,368.63 L 163.87,368.76 L 163.87,351.11 L 158.13,351.11 L 158.13,368.80 L 104.87,368.87 L 104.87,362.33 Z" fill="#1a1a1a" stroke="none" fill-rule="evenodd" />    <path d="M 242.00,147.63 L 219.04,147.63 L 219.04,153.37 L 242.00,153.37 L 242.00,147.63 Z" fill="#1a1a1a" stroke="none" fill-rule="evenodd" />    <path d="M 267.55,147.63 L 262.11,147.63 L 262.11,153.37 L 267.55,153.37 L 267.55,147.63 Z" fill="#1a1a1a" stroke="none" fill-rule="evenodd" />    <path d="M 342.13,246.00 L 347.87,246.00 L 347.87,153.47 L 352.32,153.37 L 352.18,147.63 L 344.98,147.79 L 327.69,147.63 L 327.63,153.37 L 342.13,153.51 L 342.13,246.00 Z" fill="#1a1a1a" stroke="none" fill-rule="evenodd" />    <path d="M 347.87,275.60 L 433.66,275.87 L 433.87,368.40 L 404.00,368.63 L 404.04,374.37 L 439.63,374.10 L 439.12,147.90 L 406.27,147.63 L 406.23,153.37 L 433.38,153.60 L 433.65,270.12 L 342.13,269.83 L 342.13,300.00 L 347.87,300.00 L 347.87,275.60 Z" fill="#1a1a1a" stroke="none" fill-rule="evenodd" />    <path d="M 275.13,352.00 L 275.13,356.00 L 280.87,356.00 L 280.87,354.87 L 321.13,354.87 L 321.13,368.86 L 278.01,368.63 L 250.40,368.63 L 250.40,374.37 L 277.99,374.37 L 326.87,374.64 L 326.87,352.00 L 326.87,332.87 L 342.00,332.87 L 342.00,327.13 L 312.86,327.13 L 312.86,332.87 L 321.13,332.87 L 321.13,349.13 L 280.87,349.13 L 280.87,332.87 L 287.00,332.87 L 287.00,327.13 L 274.11,327.13 L 274.11,332.87 L 275.13,332.87 L 275.13,352.00 Z" fill="#1a1a1a" stroke="none" fill-rule="evenodd" />    <path d="M 342.13,325.89 L 342.66,374.02 L 351.91,374.37 L 352.13,368.63 L 348.34,368.48 L 347.87,325.82 L 342.13,325.89 Z" fill="#1a1a1a" stroke="none" fill-rule="evenodd" />
  </g>

  <g id="windows">
    <line x1="141.70" y1="150.50" x2="158.56" y2="150.50" stroke="#3a78dc" stroke-width="4" stroke-linecap="butt" />    <line x1="166.04" y1="150.50" x2="219.04" y2="150.50" stroke="#3a78dc" stroke-width="4" stroke-linecap="butt" />    <line x1="267.55" y1="150.50" x2="327.66" y2="150.50" stroke="#3a78dc" stroke-width="4" stroke-linecap="butt" />    <line x1="352.25" y1="150.50" x2="406.25" y2="150.50" stroke="#3a78dc" stroke-width="4" stroke-linecap="butt" />    <line x1="102.00" y1="334.33" x2="102.00" y2="362.33" stroke="#3a78dc" stroke-width="4" stroke-linecap="butt" />    <line x1="174.29" y1="371.50" x2="212.00" y2="371.50" stroke="#3a78dc" stroke-width="4" stroke-linecap="butt" />    <line x1="232.40" y1="371.50" x2="250.40" y2="371.50" stroke="#3a78dc" stroke-width="4" stroke-linecap="butt" />    <line x1="352.02" y1="371.50" x2="404.02" y2="371.50" stroke="#3a78dc" stroke-width="4" stroke-linecap="butt" />
  </g>

  <g id="doors">
    <g id="door_0" data-type="door" data-door-type="double_swing_shared_origin"><line id="door_0_origin" data-type="door_origin" x1="242.00" y1="150.50" x2="262.11" y2="150.50" stroke="#a046b4" stroke-width="2" stroke-linecap="butt" /><line id="door_0_leaf" data-type="door_leaf" x1="242.00" y1="150.50" x2="242.00" y2="130.39" stroke="#eb8c50" stroke-width="1.5" /><path id="door_0_arc" data-type="door_arc" d="M 262.11 150.50 A 20.11 20.11 0 0 0 242.00 130.39" fill="none" stroke="#dc5a5a" stroke-width="1.5" /><line id="door_0_leaf_b" data-type="door_leaf" x1="242.00" y1="150.50" x2="242.00" y2="170.61" stroke="#eb8c50" stroke-width="1.5" /><path id="door_0_arc_b" data-type="door_arc" d="M 262.11 150.50 A 20.11 20.11 0 0 1 242.00 170.61" fill="none" stroke="#dc5a5a" stroke-width="1.5" /></g>    <g id="door_1" data-type="door" data-door-type="single_swing"><line id="door_1_origin" data-type="door_origin" x1="161.00" y1="221.11" x2="161.00" y2="201.00" stroke="#a046b4" stroke-width="2" stroke-linecap="butt" /><line id="door_1_leaf" data-type="door_leaf" x1="161.00" y1="221.11" x2="181.11" y2="221.11" stroke="#eb8c50" stroke-width="1.5" /><path id="door_1_arc" data-type="door_arc" d="M 161.00 201.00 A 20.11 20.11 0 0 1 181.11 221.11" fill="none" stroke="#dc5a5a" stroke-width="1.5" /></g>    <g id="door_2" data-type="door" data-door-type="single_swing"><line id="door_2_origin" data-type="door_origin" x1="157.00" y1="229.00" x2="142.00" y2="229.00" stroke="#a046b4" stroke-width="2" stroke-linecap="butt" /><line id="door_2_leaf" data-type="door_leaf" x1="157.00" y1="229.00" x2="157.00" y2="214.00" stroke="#eb8c50" stroke-width="1.5" /><path id="door_2_arc" data-type="door_arc" d="M 142.00 229.00 A 15.00 15.00 0 0 1 157.00 214.00" fill="none" stroke="#dc5a5a" stroke-width="1.5" /></g>    <g id="door_3" data-type="door" data-door-type="single_swing"><line id="door_3_origin" data-type="door_origin" x1="345.00" y1="271.86" x2="345.00" y2="246.00" stroke="#a046b4" stroke-width="2" stroke-linecap="butt" /><line id="door_3_leaf" data-type="door_leaf" x1="345.00" y1="271.86" x2="370.86" y2="271.86" stroke="#eb8c50" stroke-width="1.5" /><path id="door_3_arc" data-type="door_arc" d="M 345.00 246.00 A 25.86 25.86 0 0 1 370.86 271.86" fill="none" stroke="#dc5a5a" stroke-width="1.5" /></g>    <g id="door_4" data-type="door" data-door-type="single_swing"><line id="door_4_origin" data-type="door_origin" x1="102.00" y1="299.00" x2="102.00" y2="324.86" stroke="#a046b4" stroke-width="2" stroke-linecap="butt" /><line id="door_4_leaf" data-type="door_leaf" x1="102.00" y1="299.00" x2="76.14" y2="299.00" stroke="#eb8c50" stroke-width="1.5" /><path id="door_4_arc" data-type="door_arc" d="M 102.00 324.86 A 25.86 25.86 0 0 1 76.14 299.00" fill="none" stroke="#dc5a5a" stroke-width="1.5" /></g>    <g id="door_5" data-type="door" data-door-type="single_swing"><line id="door_5_origin" data-type="door_origin" x1="345.00" y1="300.00" x2="345.00" y2="325.86" stroke="#a046b4" stroke-width="2" stroke-linecap="butt" /><line id="door_5_leaf" data-type="door_leaf" x1="345.00" y1="300.00" x2="370.86" y2="300.00" stroke="#eb8c50" stroke-width="1.5" /><path id="door_5_arc" data-type="door_arc" d="M 345.00 325.86 A 25.86 25.86 0 0 0 370.86 300.00" fill="none" stroke="#dc5a5a" stroke-width="1.5" /></g>    <g id="door_6" data-type="door" data-door-type="single_swing"><line id="door_6_origin" data-type="door_origin" x1="312.86" y1="330.00" x2="287.00" y2="330.00" stroke="#a046b4" stroke-width="2" stroke-linecap="butt" /><line id="door_6_leaf" data-type="door_leaf" x1="312.86" y1="330.00" x2="312.86" y2="304.14" stroke="#eb8c50" stroke-width="1.5" /><path id="door_6_arc" data-type="door_arc" d="M 287.00 330.00 A 25.86 25.86 0 0 1 312.86 304.14" fill="none" stroke="#dc5a5a" stroke-width="1.5" /></g>    <g id="door_7" data-type="door" data-door-type="single_swing"><line id="door_7_origin" data-type="door_origin" x1="228.00" y1="326.11" x2="228.00" y2="306.00" stroke="#a046b4" stroke-width="2" stroke-linecap="butt" /><line id="door_7_leaf" data-type="door_leaf" x1="228.00" y1="326.11" x2="207.89" y2="326.11" stroke="#eb8c50" stroke-width="1.5" /><path id="door_7_arc" data-type="door_arc" d="M 228.00 306.00 A 20.11 20.11 0 0 0 207.89 326.11" fill="none" stroke="#dc5a5a" stroke-width="1.5" /></g>    <g id="door_8" data-type="door" data-door-type="single_swing"><line id="door_8_origin" data-type="door_origin" x1="254.00" y1="330.00" x2="274.11" y2="330.00" stroke="#a046b4" stroke-width="2" stroke-linecap="butt" /><line id="door_8_leaf" data-type="door_leaf" x1="254.00" y1="330.00" x2="254.00" y2="309.89" stroke="#eb8c50" stroke-width="1.5" /><path id="door_8_arc" data-type="door_arc" d="M 274.11 330.00 A 20.11 20.11 0 0 0 254.00 309.89" fill="none" stroke="#dc5a5a" stroke-width="1.5" /></g>    <g id="door_9" data-type="door" data-door-type="single_swing"><line id="door_9_origin" data-type="door_origin" x1="161.00" y1="331.00" x2="161.00" y2="351.11" stroke="#a046b4" stroke-width="2" stroke-linecap="butt" /><line id="door_9_leaf" data-type="door_leaf" x1="161.00" y1="331.00" x2="181.11" y2="331.00" stroke="#eb8c50" stroke-width="1.5" /><path id="door_9_arc" data-type="door_arc" d="M 161.00 351.11 A 20.11 20.11 0 0 0 181.11 331.00" fill="none" stroke="#dc5a5a" stroke-width="1.5" /></g>    <g id="door_10" data-type="door" data-door-type="single_swing"><line id="door_10_origin" data-type="door_origin" x1="278.00" y1="356.00" x2="278.00" y2="372.00" stroke="#a046b4" stroke-width="2" stroke-linecap="butt" /><line id="door_10_leaf" data-type="door_leaf" x1="278.00" y1="356.00" x2="294.00" y2="356.00" stroke="#eb8c50" stroke-width="1.5" /><path id="door_10_arc" data-type="door_arc" d="M 278.00 372.00 A 16.00 16.00 0 0 0 294.00 356.00" fill="none" stroke="#dc5a5a" stroke-width="1.5" /></g>
  </g>

</svg>