<svg xmlns="http://www.w3.org/2000/svg" width="512" height="512" viewBox="0 0 512 512" data-unit="mm" data-scale-status="estimated" data-px-to-mm="16.071428571428573" data-scale-source="door_arc_bbox_long_edge_clustering">
  <g id="wall">
    <path d="M 9.00,20.00 9.00,177.00 -3.00,177.00 -3.00,197.00 9.00,197.00 9.00,321.00 9.00,490.00 23.00,490.00 23.00,328.00 176.00,328.00 176.00,497.00 483.00,497.00 483.00,483.00 190.00,483.00 190.00,328.00 233.00,328.00 233.00,314.00 190.00,314.00 190.00,190.00 190.00,34.00 475.80,34.00 463.80,457.00 476.00,457.00 476.00,472.00 490.00,472.00 490.00,450.00 490.00,393.00 490.00,321.00 490.00,95.00 490.00,27.00 483.00,27.00 483.00,20.00 183.00,20.00 9.00,20.00 Z M 72.00,197.00 176.00,197.00 176.00,305.00 175.30,298.03 23.00,313.27 23.00,190.00 23.00,34.00 176.00,34.00 176.00,183.00 72.00,183.00 72.00,197.00 Z M 156.35,314.00 176.00,312.03 176.00,314.00 156.35,314.00 Z" fill="#000000" fill-rule="evenodd" stroke="none" id="wall_polygon" />
  </g>
  <g id="window">
    <path d="M 7.11,190.00 0.89,190.00 0.89,305.00 7.11,305.00 7.11,190.00 Z" fill="#3c78dc" fill-rule="evenodd" stroke="none" id="windowedge_1" data-type="window" />
  </g>
  <g id="door">
    <g id="door_0001" data-type="door"><line id="door_origin_0001" data-type="door_origin" x1="183.00" y1="138.50" x2="183.00" y2="95.44" stroke="#a046b4" stroke-width="2" stroke-linecap="square" /><line id="door_leaf_0001" data-type="door_leaf" x1="183.00" y1="138.50" x2="226.06" y2="138.50" stroke="#eb8c50" stroke-width="1.5" /><path id="door_arc_0001" data-type="door_arc" d="M 183.00 95.44 A 43.06 43.06 0 0 1 226.06 138.50" fill="none" stroke="#dc5a5a" stroke-width="1.5" /></g>
    <g id="door_0002" data-type="door"><line id="door_origin_0002" data-type="door_origin" x1="16.00" y1="190.00" x2="72.00" y2="190.00" stroke="#a046b4" stroke-width="2" stroke-linecap="square" /><line id="door_leaf_0002" data-type="door_leaf" x1="16.00" y1="190.00" x2="16.00" y2="134.00" stroke="#eb8c50" stroke-width="1.5" /><path id="door_arc_0002" data-type="door_arc" d="M 72.00 190.00 A 56.00 56.00 0 0 0 16.00 134.00" fill="none" stroke="#dc5a5a" stroke-width="1.5" /></g>
    <g id="door_0003" data-type="door"><line id="door_origin_0003" data-type="door_origin" x1="4.00" y1="177.00" x2="8.00" y2="177.00" stroke="#a046b4" stroke-width="2" stroke-linecap="square" /><line id="door_leaf_0003" data-type="door_leaf" x1="4.00" y1="177.00" x2="4.00" y2="181.00" stroke="#eb8c50" stroke-width="1.5" /><path id="door_arc_0003" data-type="door_arc" d="M 8.00 177.00 A 4.00 4.00 0 0 1 4.00 181.00" fill="none" stroke="#dc5a5a" stroke-width="1.5" /></g>
    <g id="door_0004" data-type="door"><line id="door_origin_0004" data-type="door_origin" x1="176.00" y1="305.00" x2="232.00" y2="305.00" stroke="#a046b4" stroke-width="2" stroke-linecap="square" /><line id="door_leaf_0004" data-type="door_leaf" x1="176.00" y1="305.00" x2="176.00" y2="361.00" stroke="#eb8c50" stroke-width="1.5" /><path id="door_arc_0004" data-type="door_arc" d="M 232.00 305.00 A 56.00 56.00 0 0 1 176.00 361.00" fill="none" stroke="#dc5a5a" stroke-width="1.5" /></g>
    <g id="door_0005" data-type="door"><line id="door_origin_0005" data-type="door_origin" x1="177.00" y1="321.00" x2="233.00" y2="321.00" stroke="#a046b4" stroke-width="2" stroke-linecap="square" /><line id="door_leaf_0005" data-type="door_leaf" x1="177.00" y1="321.00" x2="177.00" y2="265.00" stroke="#eb8c50" stroke-width="1.5" /><path id="door_arc_0005" data-type="door_arc" d="M 233.00 321.00 A 56.00 56.00 0 0 0 177.00 265.00" fill="none" stroke="#dc5a5a" stroke-width="1.5" /></g>
    <g id="door_0006" data-type="door"><line id="door_origin_0006" data-type="door_origin" x1="471.00" y1="450.00" x2="471.00" y2="506.00" stroke="#a046b4" stroke-width="2" stroke-linecap="square" /><line id="door_leaf_0006" data-type="door_leaf" x1="471.00" y1="450.00" x2="415.00" y2="450.00" stroke="#eb8c50" stroke-width="1.5" /><path id="door_arc_0006" data-type="door_arc" d="M 471.00 506.00 A 56.00 56.00 0 0 1 415.00 450.00" fill="none" stroke="#dc5a5a" stroke-width="1.5" /></g>
    <g id="door_0007" data-type="door"><line id="door_origin_0007" data-type="door_origin" x1="483.00" y1="490.00" x2="483.00" y2="472.00" stroke="#a046b4" stroke-width="2" stroke-linecap="square" /><line id="door_leaf_0007" data-type="door_leaf" x1="483.00" y1="490.00" x2="465.00" y2="490.00" stroke="#eb8c50" stroke-width="1.5" /><path id="door_arc_0007" data-type="door_arc" d="M 483.00 472.00 A 18.00 18.00 0 0 0 465.00 490.00" fill="none" stroke="#dc5a5a" stroke-width="1.5" /></g>
  </g>
</svg>
