<svg xmlns="http://www.w3.org/2000/svg" width="512" height="512" viewBox="0 0 512 512" data-unit="mm" data-scale-status="estimated" data-px-to-mm="13.344226579520697" data-scale-source="door_arc_bbox_long_edge_clustering">
  <g id="wall">
    <path d="M 48.74,32.00 43.02,145.24 72.98,146.76 77.26,62.00 488.00,62.00 488.00,153.00 359.00,153.00 359.00,246.00 343.72,246.00 333.00,246.00 333.00,276.00 342.24,276.00 332.02,482.26 361.98,483.74 372.28,276.00 374.00,276.00 374.00,261.00 389.00,261.00 389.00,183.00 518.00,183.00 518.00,32.00 48.74,32.00 Z M 76.82,246.00 72.95,198.77 43.05,201.23 49.18,276.00 279.00,276.00 279.00,246.00 76.82,246.00 Z M 294.00,323.20 268.25,321.05 266.92,337.00 264.00,337.00 264.00,346.00 245.00,346.00 245.00,322.00 48.73,322.00 46.02,376.25 75.98,377.75 77.27,352.00 215.00,352.00 215.00,376.00 294.00,376.00 294.00,323.20 Z M 76.74,427.50 75.94,418.64 46.06,421.36 48.00,442.68 48.00,484.00 132.00,484.00 294.00,484.00 294.00,408.00 264.00,408.00 264.00,454.00 147.00,454.00 147.00,426.03 115.06,428.03 116.69,454.00 89.59,454.00 90.56,428.01 76.74,427.50 Z" fill="#000000" fill-rule="evenodd" stroke="none" id="wall_polygon" />
  </g>
  <g id="window">
    <path d="M 53.88,200.20 61.38,200.20 61.38,145.63 53.88,145.63 53.88,200.20 Z" fill="#3c78dc" fill-rule="evenodd" stroke="none" id="windowedge_1" data-type="window" />
    <path d="M 57.71,420.29 65.20,420.29 65.20,377.42 57.71,377.42 57.71,420.29 Z" fill="#3c78dc" fill-rule="evenodd" stroke="none" id="windowedge_2" data-type="window" />
  </g>
  <g id="door">
    <g id="door_0001" data-type="door"><line id="door_origin_0001" data-type="door_origin" x1="332.94" y1="260.75" x2="280.48" y2="260.75" stroke="#a046b4" stroke-width="2" stroke-linecap="square" /><line id="door_leaf_0001" data-type="door_leaf" x1="332.94" y1="260.75" x2="332.94" y2="313.21" stroke="#eb8c50" stroke-width="1.5" /><path id="door_arc_0001" data-type="door_arc" d="M 280.48 260.75 A 52.46 52.46 0 0 0 332.94 313.21" fill="none" stroke="#dc5a5a" stroke-width="1.5" /></g>
    <g id="door_0002" data-type="door"><line id="door_origin_0002" data-type="door_origin" x1="251.49" y1="336.14" x2="267.15" y2="336.14" stroke="#a046b4" stroke-width="2" stroke-linecap="square" /><line id="door_leaf_0002" data-type="door_leaf" x1="251.49" y1="336.14" x2="251.49" y2="351.80" stroke="#eb8c50" stroke-width="1.5" /><path id="door_arc_0002" data-type="door_arc" d="M 267.15 336.14 A 15.66 15.66 0 0 1 251.49 351.80" fill="none" stroke="#dc5a5a" stroke-width="1.5" /></g>
    <g id="door_0003" data-type="door"><line id="door_origin_0003" data-type="door_origin" x1="281.03" y1="408.00" x2="333.49" y2="408.00" stroke="#a046b4" stroke-width="2" stroke-linecap="square" /><line id="door_leaf_0003" data-type="door_leaf" x1="281.03" y1="408.00" x2="281.03" y2="355.54" stroke="#eb8c50" stroke-width="1.5" /><path id="door_arc_0003" data-type="door_arc" d="M 333.49 408.00 A 52.46 52.46 0 0 0 281.03 355.54" fill="none" stroke="#dc5a5a" stroke-width="1.5" /></g>
    <g id="door_0004" data-type="door"><line id="door_origin_0004" data-type="door_origin" x1="90.05" y1="443.14" x2="115.89" y2="443.14" stroke="#a046b4" stroke-width="2" stroke-linecap="square" /><line id="door_leaf_0004" data-type="door_leaf" x1="90.05" y1="443.14" x2="90.05" y2="417.30" stroke="#eb8c50" stroke-width="1.5" /><path id="door_arc_0004" data-type="door_arc" d="M 115.89 443.14 A 25.84 25.84 0 0 0 90.05 417.30" fill="none" stroke="#dc5a5a" stroke-width="1.5" /></g>
    <g id="door_0005" data-type="door"><line id="door_origin_0005" data-type="door_origin" x1="347.50" y1="483.11" x2="347.50" y2="517.72" stroke="#a046b4" stroke-width="2" stroke-linecap="square" /><line id="door_leaf_0005" data-type="door_leaf" x1="347.50" y1="483.11" x2="312.88" y2="483.11" stroke="#eb8c50" stroke-width="1.5" /><path id="door_arc_0005" data-type="door_arc" d="M 347.50 517.72 A 34.62 34.62 0 0 1 312.88 483.11" fill="none" stroke="#dc5a5a" stroke-width="1.5" /></g>
  </g>
</svg>
