<svg xmlns="http://www.w3.org/2000/svg" width="512" height="512" viewBox="0 0 512 512" data-unit="mm" data-scale-status="estimated" data-px-to-mm="13.344226579520697" data-scale-source="door_arc_bbox_long_edge_clustering">
  <g id="wall">
    <path d="M 224.00,247.00 104.00,247.00 104.00,199.00 74.00,199.00 74.00,262.00 74.00,336.00 74.00,456.00 298.00,456.00 298.00,406.00 298.00,370.60 298.99,370.57 298.00,335.79 298.00,247.00 224.00,247.00 Z M 236.98,298.17 259.02,277.83 258.26,277.00 268.00,277.00 268.00,321.00 104.00,321.00 104.00,277.00 217.43,277.00 236.98,298.17 Z M 268.00,426.00 104.00,426.00 104.00,351.00 268.00,351.00 268.00,406.00 268.00,426.00 Z M 343.00,175.00 343.00,247.00 335.00,247.00 335.00,274.46 332.58,279.29 343.00,284.50 343.00,479.00 373.00,479.00 373.00,262.00 373.00,175.00 518.00,175.00 518.00,32.00 74.00,32.00 74.00,175.00 343.00,175.00 Z M 488.00,145.00 104.00,145.00 104.00,62.00 488.00,62.00 488.00,145.00 Z" fill="#000000" fill-rule="evenodd" stroke="none" id="wall_polygon" />
  </g>
  <g id="window">
    <path d="M 85.25,199.13 92.75,199.13 92.75,160.46 85.25,160.46 85.25,199.13 Z" fill="#3c78dc" fill-rule="evenodd" stroke="none" id="windowedge_1" data-type="window" />
    
  </g>
  <g id="door">
    <g id="door_0001" data-type="door"><line id="door_origin_0001" data-type="door_origin" x1="335.00" y1="262.25" x2="282.54" y2="262.25" stroke="#a046b4" stroke-width="2" stroke-linecap="square" /><line id="door_leaf_0001" data-type="door_leaf" x1="335.00" y1="262.25" x2="335.00" y2="314.71" stroke="#eb8c50" stroke-width="1.5" /><path id="door_arc_0001" data-type="door_arc" d="M 282.54 262.25 A 52.46 52.46 0 0 0 335.00 314.71" fill="none" stroke="#dc5a5a" stroke-width="1.5" /></g>
    <g id="door_0002" data-type="door"><line id="door_origin_0002" data-type="door_origin" x1="346.00" y1="286.00" x2="346.00" y2="299.00" stroke="#a046b4" stroke-width="2" stroke-linecap="square" /><line id="door_leaf_0002" data-type="door_leaf" x1="346.00" y1="286.00" x2="333.00" y2="286.00" stroke="#eb8c50" stroke-width="1.5" /><path id="door_arc_0002" data-type="door_arc" d="M 346.00 299.00 A 13.00 13.00 0 0 1 333.00 286.00" fill="none" stroke="#dc5a5a" stroke-width="1.5" /></g>
    <g id="door_0003" data-type="door"><line id="door_origin_0003" data-type="door_origin" x1="248.00" y1="288.00" x2="248.00" y2="293.00" stroke="#a046b4" stroke-width="2" stroke-linecap="square" /><line id="door_leaf_0003" data-type="door_leaf" x1="248.00" y1="288.00" x2="243.00" y2="288.00" stroke="#eb8c50" stroke-width="1.5" /><path id="door_arc_0003" data-type="door_arc" d="M 248.00 293.00 A 5.00 5.00 0 0 1 243.00 288.00" fill="none" stroke="#dc5a5a" stroke-width="1.5" /></g>
    <g id="door_0004" data-type="door"><line id="door_origin_0004" data-type="door_origin" x1="224.00" y1="336.00" x2="291.44" y2="336.00" stroke="#a046b4" stroke-width="2" stroke-linecap="square" /><line id="door_leaf_0004" data-type="door_leaf" x1="224.00" y1="336.00" x2="224.00" y2="268.56" stroke="#eb8c50" stroke-width="1.5" /><path id="door_arc_0004" data-type="door_arc" d="M 291.44 336.00 A 67.44 67.44 0 0 0 224.00 268.56" fill="none" stroke="#dc5a5a" stroke-width="1.5" /></g>
    <g id="door_0005" data-type="door"><line id="door_origin_0005" data-type="door_origin" x1="284.00" y1="371.00" x2="284.00" y2="406.00" stroke="#a046b4" stroke-width="2" stroke-linecap="square" /><line id="door_leaf_0005" data-type="door_leaf" x1="284.00" y1="371.00" x2="319.00" y2="371.00" stroke="#eb8c50" stroke-width="1.5" /><path id="door_arc_0005" data-type="door_arc" d="M 284.00 406.00 A 35.00 35.00 0 0 0 319.00 371.00" fill="none" stroke="#dc5a5a" stroke-width="1.5" /></g>
    <g id="door_0006" data-type="door"><line id="door_origin_0006" data-type="door_origin" x1="89.00" y1="441.25" x2="117.00" y2="441.25" stroke="#a046b4" stroke-width="2" stroke-linecap="square" /><line id="door_leaf_0006" data-type="door_leaf" x1="89.00" y1="441.25" x2="89.00" y2="413.25" stroke="#eb8c50" stroke-width="1.5" /><path id="door_arc_0006" data-type="door_arc" d="M 117.00 441.25 A 28.00 28.00 0 0 0 89.00 413.25" fill="none" stroke="#dc5a5a" stroke-width="1.5" /></g>
    <g id="door_0007" data-type="door"><line id="door_origin_0007" data-type="door_origin" x1="289.00" y1="479.00" x2="357.54" y2="479.00" stroke="#a046b4" stroke-width="2" stroke-linecap="square" /><line id="door_leaf_0007" data-type="door_leaf" x1="289.00" y1="479.00" x2="289.00" y2="547.54" stroke="#eb8c50" stroke-width="1.5" /><path id="door_arc_0007" data-type="door_arc" d="M 357.54 479.00 A 68.54 68.54 0 0 1 289.00 547.54" fill="none" stroke="#dc5a5a" stroke-width="1.5" /></g>
  </g>
</svg>
