<svg xmlns="http://www.w3.org/2000/svg" width="512" height="512" viewBox="0 0 512 512" data-unit="px" data-scale-status="unknown">
  <g id="floor">
    <polygon id="floor_0" class="floor" points="0.0,102.0 0.0,152.0 29.0,152.0 29.0,245.0 45.0,245.0 45.0,398.0 108.0,398.0 108.0,511.0 164.0,511.0 164.0,399.0 511.0,399.0 511.0,102.0 449.0,102.0 449.0,54.0 373.0,54.0 373.0,102.0 210.0,102.0 145.0,102.0" fill="#f5f0e8" stroke="none" />
  </g>
  <g id="rooms">
    <polygon id="room_0001" points="96.00,70.00 127.00,90.00 133.00,115.00 185.00,114.00 188.00,93.00 176.00,95.00 170.00,68.00 137.00,54.00 111.00,56.00" fill="rgba(80,160,220,0.40)" stroke="#3388aa" stroke-width="1" />
    <polygon id="room_0002" points="378.00,64.00 380.00,108.00 402.00,107.00 411.00,82.00 417.00,108.00 439.00,107.00 436.00,62.00" fill="rgba(80,160,220,0.40)" stroke="#3388aa" stroke-width="1" />
    <polygon id="room_0003" points="58.00,73.00 71.00,96.00 71.00,107.00 61.00,109.00 63.00,115.00 113.00,114.00 112.00,93.00 93.00,82.00 86.00,70.00" fill="rgba(80,160,220,0.35)" stroke="#3388aa" stroke-width="1" />
    <polygon id="room_0004" points="16.00,76.00 11.00,127.00 17.00,134.00 50.00,133.00 52.00,77.00" fill="rgba(80,160,220,0.40)" stroke="#3388aa" stroke-width="1" />
    <polygon id="room_0005" points="324.00,120.00 326.00,148.00 369.00,147.00 375.00,140.00 374.00,118.00" fill="rgba(80,160,220,0.31)" stroke="#3388aa" stroke-width="1" />
    <polygon id="room_0006" points="310.00,119.00 247.00,130.00 284.00,276.00 248.00,308.00 248.00,344.00 293.00,396.00 318.00,384.00 299.00,350.00 318.00,320.00" fill="rgba(80,160,220,0.40)" stroke="#3388aa" stroke-width="1" />
    <polygon id="room_0007" points="443.00,121.00 451.00,132.00 445.00,141.00 449.00,146.00 505.00,145.00 504.00,119.00" fill="rgba(80,160,220,0.33)" stroke="#3388aa" stroke-width="1" />
    <polygon id="room_0008" points="325.00,159.00 325.00,345.00 379.00,345.00 382.00,315.00 396.00,343.00 421.00,318.00 429.00,343.00 506.00,342.00 506.00,157.00 382.00,121.00 381.00,160.00" fill="rgba(80,160,220,0.40)" stroke="#3388aa" stroke-width="1" />
    <polygon id="room_0009" points="60.00,127.00 59.00,251.00 88.00,252.00 89.00,228.00 100.00,218.00 101.00,130.00" fill="rgba(80,160,220,0.40)" stroke="#3388aa" stroke-width="1" />
    <polygon id="room_0010" points="239.00,127.00 151.00,128.00 139.00,190.00 112.00,127.00 112.00,210.00 174.00,184.00 196.00,254.00 105.00,229.00 61.00,383.00 133.00,382.00 180.00,296.00 229.00,358.00 217.00,299.00 270.00,282.00" fill="rgba(80,160,220,0.40)" stroke="#3388aa" stroke-width="1" />
    <polygon id="room_0011" points="40.00,168.00 44.00,178.00 37.00,182.00 37.00,215.00 26.00,237.00 41.00,250.00 51.00,239.00 50.00,173.00" fill="rgba(80,160,220,0.26)" stroke="#3388aa" stroke-width="1" />
    <polygon id="room_0012" points="400.00,355.00 401.00,380.00 506.00,378.00 503.00,353.00" fill="rgba(80,160,220,0.40)" stroke="#3388aa" stroke-width="1" />
    <polygon id="room_0013" points="325.00,356.00 325.00,382.00 376.00,381.00 375.00,355.00" fill="rgba(80,160,220,0.29)" stroke="#3388aa" stroke-width="1" />
    <polygon id="room_0014" points="166.00,390.00 131.00,391.00 132.00,443.00 166.00,442.00" fill="rgba(80,160,220,0.37)" stroke="#3388aa" stroke-width="1" />
    <polygon id="room_0015" points="187.00,392.00 172.00,393.00 173.00,417.00 175.00,401.00 183.00,398.00 183.00,394.00" fill="rgba(80,160,220,0.10)" stroke="#3388aa" stroke-width="1" />
    <polygon id="room_0016" points="127.00,455.00 122.00,463.00 123.00,490.00 153.00,503.00 163.00,490.00 161.00,467.00 151.00,485.00 142.00,472.00 135.00,472.00 135.00,457.00" fill="rgba(80,160,220,0.22)" stroke="#3388aa" stroke-width="1" />
  </g>
  <g id="walls">
    <line id="wall_0000" x1="55.50" y1="117.00" x2="55.50" y2="385.00" stroke="#222222" stroke-width="6.00" stroke-linecap="square" />
    <line id="wall_0001" x1="320.50" y1="117.00" x2="320.50" y2="266.00" stroke="#222222" stroke-width="6.00" stroke-linecap="square" />
    <line id="wall_0002" x1="381.00" y1="248.00" x2="381.00" y2="317.00" stroke="#222222" stroke-width="6.00" stroke-linecap="square" />
    <line id="wall_0003" x1="380.00" y1="312.00" x2="380.00" y2="335.00" stroke="#cccccc" stroke-width="6.00" stroke-linecap="square" />
    <line id="wall_0004" x1="322.00" y1="350.50" x2="377.00" y2="350.50" stroke="#222222" stroke-width="6.00" stroke-linecap="square" />
    <line id="wall_0005" x1="101.00" y1="120.00" x2="101.00" y2="217.00" stroke="#222222" stroke-width="6.00" stroke-linecap="square" />
    <line id="wall_0006" x1="57.00" y1="121.00" x2="67.00" y2="121.00" stroke="#cccccc" stroke-width="6.00" stroke-linecap="square" />
    <line id="wall_0007" x1="323.00" y1="153.00" x2="376.00" y2="153.00" stroke="#222222" stroke-width="6.00" stroke-linecap="square" />
    <line id="wall_0008" x1="322.00" y1="385.50" x2="506.00" y2="385.50" stroke="#222222" stroke-width="6.00" stroke-linecap="square" />
    <line id="wall_0009" x1="116.00" y1="291.00" x2="116.00" y2="446.00" stroke="#222222" stroke-width="6.00" stroke-linecap="square" />
    <line id="wall_0010" x1="509.00" y1="333.00" x2="509.00" y2="381.00" stroke="#222222" stroke-width="6.00" stroke-linecap="square" />
    <line id="wall_0011" x1="173.00" y1="220.00" x2="173.00" y2="256.00" stroke="#888888" stroke-width="6.00" stroke-linecap="square" />
    <line id="wall_0012" x1="435.00" y1="114.00" x2="507.00" y2="114.00" stroke="#222222" stroke-width="6.00" stroke-linecap="square" />
    <line id="wall_0013_s0" x1="136.50" y1="189.22" x2="136.50" y2="200.00" stroke="#222222" stroke-width="6.00" stroke-linecap="square" />
    <line id="wall_0014" x1="139.00" y1="254.50" x2="172.00" y2="254.50" stroke="#888888" stroke-width="6.00" stroke-linecap="square" />
    <line id="wall_0015" x1="378.00" y1="348.00" x2="378.00" y2="386.00" stroke="#888888" stroke-width="6.00" stroke-linecap="square" />
    <line id="wall_0016" x1="243.00" y1="179.00" x2="243.00" y2="200.00" stroke="#cccccc" stroke-width="6.00" stroke-linecap="square" />
    <line id="wall_0017" x1="173.00" y1="142.00" x2="173.00" y2="187.00" stroke="#222222" stroke-width="6.00" stroke-linecap="square" />
    <line id="wall_0018" x1="380.00" y1="159.00" x2="380.00" y2="192.00" stroke="#888888" stroke-width="6.00" stroke-linecap="square" />
    <line id="wall_0019" x1="177.00" y1="194.00" x2="177.00" y2="214.00" stroke="#cccccc" stroke-width="6.00" stroke-linecap="square" />
    <line id="wall_0020" x1="438.00" y1="116.00" x2="438.00" y2="179.00" stroke="#222222" stroke-width="6.00" stroke-linecap="square" />
    <line id="wall_0021" x1="413.00" y1="295.00" x2="413.00" y2="348.00" stroke="#222222" stroke-width="6.00" stroke-linecap="square" />
    <line id="wall_0022" x1="508.00" y1="115.00" x2="508.00" y2="136.00" stroke="#cccccc" stroke-width="6.00" stroke-linecap="square" />
    <line id="wall_0023" x1="220.00" y1="387.00" x2="242.00" y2="387.00" stroke="#cccccc" stroke-width="6.00" stroke-linecap="square" />
    <line id="wall_0024" x1="399.00" y1="348.00" x2="507.00" y2="348.00" stroke="#222222" stroke-width="6.00" stroke-linecap="square" />
    <line id="wall_0025" x1="439.00" y1="250.00" x2="497.00" y2="250.00" stroke="#222222" stroke-width="6.00" stroke-linecap="square" />
    <line id="wall_0026_s0" x1="244.00" y1="302.54" x2="244.00" y2="327.00" stroke="#888888" stroke-width="6.00" stroke-linecap="square" />
    <line id="wall_0027" x1="136.00" y1="201.00" x2="136.00" y2="245.00" stroke="#222222" stroke-width="6.00" stroke-linecap="square" />
    <line id="wall_0028" x1="440.00" y1="150.00" x2="507.00" y2="150.00" stroke="#222222" stroke-width="6.00" stroke-linecap="square" />
    <line id="wall_0029" x1="321.00" y1="335.00" x2="321.00" y2="383.00" stroke="#222222" stroke-width="6.00" stroke-linecap="square" />
    <line id="wall_0030" x1="15.00" y1="70.50" x2="57.00" y2="70.50" stroke="#222222" stroke-width="6.00" stroke-linecap="square" />
    <line id="wall_0031" x1="323.00" y1="113.00" x2="382.00" y2="113.00" stroke="#222222" stroke-width="6.00" stroke-linecap="square" />
    <line id="wall_0032" x1="397.00" y1="350.00" x2="397.00" y2="384.00" stroke="#888888" stroke-width="6.00" stroke-linecap="square" />
    <line id="wall_0033" x1="177.00" y1="344.00" x2="177.00" y2="366.00" stroke="#cccccc" stroke-width="6.00" stroke-linecap="square" />
    <line id="wall_0034" x1="56.00" y1="255.00" x2="99.00" y2="255.00" stroke="#222222" stroke-width="6.00" stroke-linecap="square" />
    <line id="wall_0036" x1="442.00" y1="191.00" x2="442.00" y2="210.00" stroke="#cccccc" stroke-width="6.00" stroke-linecap="square" />
    <line id="wall_0037" x1="437.25" y1="285.00" x2="437.25" y2="347.00" stroke="#222222" stroke-width="6.00" stroke-linecap="square" />
    <line id="wall_0038" x1="244.00" y1="358.00" x2="244.00" y2="374.00" stroke="#cccccc" stroke-width="6.00" stroke-linecap="square" />
    <line id="wall_0039" x1="508.50" y1="231.99" x2="508.50" y2="269.01" stroke="#888888" stroke-width="6.00" stroke-linecap="square" />
    <line id="wall_0040" x1="272.00" y1="207.00" x2="272.00" y2="221.00" stroke="#cccccc" stroke-width="6.00" stroke-linecap="square" />
    <line id="wall_0041" x1="13.00" y1="73.00" x2="13.00" y2="135.00" stroke="#222222" stroke-width="6.00" stroke-linecap="square" />
    <line id="wall_0042" x1="170.00" y1="387.00" x2="198.00" y2="387.00" stroke="#888888" stroke-width="6.00" stroke-linecap="square" />
    <line id="wall_0043" x1="178.00" y1="300.00" x2="178.00" y2="326.00" stroke="#888888" stroke-width="6.00" stroke-linecap="square" />
    <line id="wall_0044" x1="380.00" y1="202.00" x2="380.00" y2="216.00" stroke="#cccccc" stroke-width="6.00" stroke-linecap="square" />
    <line id="wall_0045" x1="272.00" y1="283.00" x2="272.00" y2="298.00" stroke="#cccccc" stroke-width="6.00" stroke-linecap="square" />
    <line id="wall_0046" x1="169.00" y1="385.00" x2="169.00" y2="403.00" stroke="#cccccc" stroke-width="6.00" stroke-linecap="square" />
    <line id="wall_0047_s0" x1="163.00" y1="121.00" x2="179.53" y2="121.00" stroke="#cccccc" stroke-width="6.00" stroke-linecap="square" />
    <line id="wall_0048" x1="97.00" y1="387.50" x2="135.00" y2="387.50" stroke="#888888" stroke-width="6.00" stroke-linecap="square" />
    <line id="wall_0049" x1="243.50" y1="122.99" x2="243.50" y2="145.01" stroke="#cccccc" stroke-width="6.00" stroke-linecap="square" />
    <line id="wall_0050" x1="377.50" y1="117.99" x2="377.50" y2="154.01" stroke="#888888" stroke-width="6.00" stroke-linecap="square" />
    <line id="wall_0051" x1="135.00" y1="121.00" x2="145.00" y2="121.00" stroke="#cccccc" stroke-width="6.00" stroke-linecap="square" />
    <line id="wall_0053" x1="509.00" y1="154.00" x2="509.00" y2="165.00" stroke="#cccccc" stroke-width="6.00" stroke-linecap="square" />
    <line id="wall_0054" x1="152.00" y1="186.00" x2="172.00" y2="186.00" stroke="#cccccc" stroke-width="6.00" stroke-linecap="square" />
  </g>
  <g id="windows">
    <g id="window_0004" data-type="window"><polygon points="179.53,110.73 224.53,110.73 224.53,116.73 179.53,116.73" fill="#d0e8ff" stroke="#3355cc" stroke-width="1" /><line x1="179.53" y1="113.73" x2="224.53" y2="113.73" stroke="#3355cc" stroke-width="1.5" /></g>
    <g id="window_0007" data-type="window"><polygon points="146.45,114.22 146.45,189.22 140.45,189.22 140.45,114.22" fill="#d0e8ff" stroke="#3355cc" stroke-width="1" /><line x1="143.45" y1="114.22" x2="143.45" y2="189.22" stroke="#3355cc" stroke-width="1.5" /></g>
    <g id="window_0009" data-type="window"><polygon points="245.82,146.40 247.19,176.37 241.19,176.64 239.83,146.67" fill="#d0e8ff" stroke="#3355cc" stroke-width="1" /><line x1="242.83" y1="146.53" x2="244.19" y2="176.50" stroke="#3355cc" stroke-width="1.5" /></g>
    <g id="window_0010" data-type="window"><polygon points="504.98,230.81 506.63,169.83 512.63,169.99 510.98,230.97" fill="#d0e8ff" stroke="#3355cc" stroke-width="1" /><line x1="507.98" y1="230.89" x2="509.63" y2="169.91" stroke="#3355cc" stroke-width="1.5" /></g>
    <g id="window_0016" data-type="window"><polygon points="275.39,223.56 275.39,280.56 269.39,280.56 269.39,223.56" fill="#d0e8ff" stroke="#3355cc" stroke-width="1" /><line x1="272.39" y1="223.56" x2="272.39" y2="280.56" stroke="#3355cc" stroke-width="1.5" /></g>
    <g id="window_0020" data-type="window"><polygon points="318.48,332.42 318.48,269.42 324.48,269.42 324.48,332.42" fill="#d0e8ff" stroke="#3355cc" stroke-width="1" /><line x1="321.48" y1="332.42" x2="321.48" y2="269.42" stroke="#3355cc" stroke-width="1.5" /></g>
    <g id="window_0021" data-type="window"><polygon points="511.89,271.32 511.89,331.32 505.89,331.32 505.89,271.32" fill="#d0e8ff" stroke="#3355cc" stroke-width="1" /><line x1="508.89" y1="271.32" x2="508.89" y2="331.32" stroke="#3355cc" stroke-width="1.5" /></g>
    <g id="window_0022" data-type="window"><polygon points="232.52,302.54 232.52,293.54 238.52,293.54 238.52,302.54" fill="#d0e8ff" stroke="#3355cc" stroke-width="1" /><line x1="235.52" y1="302.54" x2="235.52" y2="293.54" stroke="#3355cc" stroke-width="1.5" /></g>
    <g id="window_0025" data-type="window"><polygon points="246.59,329.69 246.59,355.69 240.59,355.69 240.59,329.69" fill="#d0e8ff" stroke="#3355cc" stroke-width="1" /><line x1="243.59" y1="329.69" x2="243.59" y2="355.69" stroke="#3355cc" stroke-width="1.5" /></g>
    <g id="window_0026" data-type="window"><polygon points="162.08,369.25 162.08,359.25 168.08,359.25 168.08,369.25" fill="#d0e8ff" stroke="#3355cc" stroke-width="1" /><line x1="165.08" y1="369.25" x2="165.08" y2="359.25" stroke="#3355cc" stroke-width="1.5" /></g>
    <g id="window_0029" data-type="window"><polygon points="166.27,434.85 166.27,405.85 172.27,405.85 172.27,434.85" fill="#d0e8ff" stroke="#3355cc" stroke-width="1" /><line x1="169.27" y1="434.85" x2="169.27" y2="405.85" stroke="#3355cc" stroke-width="1.5" /></g>
    <g id="window_0030" data-type="window"><polygon points="145.24,422.02 145.24,405.02 151.24,405.02 151.24,422.02" fill="#d0e8ff" stroke="#3355cc" stroke-width="1" /><line x1="148.24" y1="422.02" x2="148.24" y2="405.02" stroke="#3355cc" stroke-width="1.5" /></g>
  </g>
  <g id="doors">
    <g id="door_0001" data-type="door"><line x1="60.95" y1="79.37" x2="60.95" y2="109.37" stroke="#222222" stroke-width="2" stroke-linecap="square" /><line x1="60.95" y1="79.37" x2="30.95" y2="79.37" stroke="#222222" stroke-width="1.5" /><path d="M 60.95 109.37 A 30.00 30.00 0 0 0 30.95 79.37" fill="none" stroke="#222222" stroke-width="1" stroke-dasharray="3 2" /></g>
    <g id="door_0002" data-type="door"><line x1="385.82" y1="106.34" x2="424.82" y2="106.34" stroke="#222222" stroke-width="2" stroke-linecap="square" /><line x1="385.82" y1="106.34" x2="385.82" y2="145.34" stroke="#222222" stroke-width="1.5" /><path d="M 424.82 106.34 A 39.00 39.00 0 0 0 385.82 145.34" fill="none" stroke="#222222" stroke-width="1" stroke-dasharray="3 2" /></g>
    <g id="door_0005" data-type="door"><line x1="418.54" y1="114.46" x2="430.54" y2="114.46" stroke="#222222" stroke-width="2" stroke-linecap="square" /><line x1="418.54" y1="114.46" x2="418.54" y2="126.46" stroke="#222222" stroke-width="1.5" /><path d="M 430.54 114.46 A 12.00 12.00 0 0 0 418.54 126.46" fill="none" stroke="#222222" stroke-width="1" stroke-dasharray="3 2" /></g>
    <g id="door_0006" data-type="door"><line x1="73.29" y1="120.81" x2="91.29" y2="120.81" stroke="#222222" stroke-width="2" stroke-linecap="square" /><line x1="73.29" y1="120.81" x2="73.29" y2="138.81" stroke="#222222" stroke-width="1.5" /><path d="M 91.29 120.81 A 18.00 18.00 0 0 0 73.29 138.81" fill="none" stroke="#222222" stroke-width="1" stroke-dasharray="3 2" /></g>
    <g id="door_0008" data-type="door"><line x1="42.70" y1="130.42" x2="42.70" y2="92.42" stroke="#222222" stroke-width="2" stroke-linecap="square" /><line x1="42.70" y1="130.42" x2="80.70" y2="130.42" stroke="#222222" stroke-width="1.5" /><path d="M 42.70 92.42 A 38.00 38.00 0 0 1 80.70 130.42" fill="none" stroke="#222222" stroke-width="1" stroke-dasharray="3 2" /></g>
    <g id="door_0011" data-type="door"><line x1="258.51" y1="212.95" x2="258.51" y2="194.95" stroke="#222222" stroke-width="2" stroke-linecap="square" /><line x1="258.51" y1="212.95" x2="276.51" y2="212.95" stroke="#222222" stroke-width="1.5" /><path d="M 258.51 194.95 A 18.00 18.00 0 0 0 276.51 212.95" fill="none" stroke="#222222" stroke-width="1" stroke-dasharray="3 2" /></g>
    <g id="door_0012" data-type="door"><line x1="110.20" y1="252.00" x2="110.20" y2="297.00" stroke="#222222" stroke-width="2" stroke-linecap="square" /><line x1="110.20" y1="252.00" x2="65.20" y2="252.00" stroke="#222222" stroke-width="1.5" /><path d="M 110.20 297.00 A 45.00 45.00 0 0 1 65.20 252.00" fill="none" stroke="#222222" stroke-width="1" stroke-dasharray="3 2" /></g>
    <g id="door_0013" data-type="door"><line x1="428.07" y1="231.63" x2="460.07" y2="231.63" stroke="#888888" stroke-width="2" stroke-linecap="square" /><line x1="428.07" y1="231.63" x2="428.07" y2="263.63" stroke="#888888" stroke-width="1.5" /><path d="M 460.07 231.63 A 32.00 32.00 0 0 0 428.07 263.63" fill="none" stroke="#888888" stroke-width="1" stroke-dasharray="3 2" /></g>
    <g id="door_0014" data-type="door"><line x1="373.95" y1="216.89" x2="373.95" y2="183.89" stroke="#888888" stroke-width="2" stroke-linecap="square" /><line x1="373.95" y1="216.89" x2="406.95" y2="216.89" stroke="#888888" stroke-width="1.5" /><path d="M 373.95 183.89 A 33.00 33.00 0 0 1 406.95 216.89" fill="none" stroke="#888888" stroke-width="1" stroke-dasharray="3 2" /></g>
    <g id="door_0015" data-type="door"><line x1="181.00" y1="224.50" x2="181.00" y2="219.50" stroke="#222222" stroke-width="2" stroke-linecap="square" /><line x1="181.00" y1="224.50" x2="186.00" y2="224.50" stroke="#222222" stroke-width="1.5" /><path d="M 181.00 219.50 A 5.00 5.00 0 0 0 186.00 224.50" fill="none" stroke="#222222" stroke-width="1" stroke-dasharray="3 2" /></g>
    <g id="door_0017" data-type="door"><line x1="428.82" y1="267.56" x2="458.82" y2="267.56" stroke="#888888" stroke-width="2" stroke-linecap="square" /><line x1="428.82" y1="267.56" x2="428.82" y2="297.56" stroke="#888888" stroke-width="1.5" /><path d="M 458.82 267.56 A 30.00 30.00 0 0 0 428.82 297.56" fill="none" stroke="#888888" stroke-width="1" stroke-dasharray="3 2" /></g>
    <g id="door_0018" data-type="door"><line x1="102.38" y1="260.88" x2="102.38" y2="227.88" stroke="#888888" stroke-width="2" stroke-linecap="square" /><line x1="102.38" y1="260.88" x2="135.38" y2="260.88" stroke="#888888" stroke-width="1.5" /><path d="M 102.38 227.88 A 33.00 33.00 0 0 1 135.38 260.88" fill="none" stroke="#888888" stroke-width="1" stroke-dasharray="3 2" /></g>
    <g id="door_0019" data-type="door"><line x1="424.24" y1="265.93" x2="424.24" y2="298.93" stroke="#222222" stroke-width="2" stroke-linecap="square" /><line x1="424.24" y1="265.93" x2="391.24" y2="265.93" stroke="#222222" stroke-width="1.5" /><path d="M 424.24 298.93 A 33.00 33.00 0 0 0 391.24 265.93" fill="none" stroke="#222222" stroke-width="1" stroke-dasharray="3 2" /></g>
    <g id="door_0023" data-type="door"><line x1="258.56" y1="291.83" x2="258.56" y2="273.83" stroke="#222222" stroke-width="2" stroke-linecap="square" /><line x1="258.56" y1="291.83" x2="276.56" y2="291.83" stroke="#222222" stroke-width="1.5" /><path d="M 258.56 273.83 A 18.00 18.00 0 0 1 276.56 291.83" fill="none" stroke="#222222" stroke-width="1" stroke-dasharray="3 2" /></g>
    <g id="door_0027" data-type="door"><line x1="202.47" y1="386.49" x2="215.47" y2="386.49" stroke="#222222" stroke-width="2" stroke-linecap="square" /><line x1="202.47" y1="386.49" x2="202.47" y2="399.49" stroke="#222222" stroke-width="1.5" /><path d="M 215.47 386.49 A 13.00 13.00 0 0 0 202.47 399.49" fill="none" stroke="#222222" stroke-width="1" stroke-dasharray="3 2" /></g>
    <g id="door_0028" data-type="door"><line x1="74.50" y1="388.88" x2="56.50" y2="388.88" stroke="#222222" stroke-width="2" stroke-linecap="square" /><line x1="74.50" y1="388.88" x2="74.50" y2="370.88" stroke="#222222" stroke-width="1.5" /><path d="M 56.50 388.88 A 18.00 18.00 0 0 1 74.50 370.88" fill="none" stroke="#222222" stroke-width="1" stroke-dasharray="3 2" /></g>
    <g id="door_0031" data-type="door"><line x1="145.24" y1="440.63" x2="145.24" y2="482.63" stroke="#888888" stroke-width="2" stroke-linecap="square" /><line x1="145.24" y1="440.63" x2="103.24" y2="440.63" stroke="#888888" stroke-width="1.5" /><path d="M 145.24 482.63 A 42.00 42.00 0 0 0 103.24 440.63" fill="none" stroke="#888888" stroke-width="1" stroke-dasharray="3 2" /></g>
  </g>
  <g id="debug">
    <line x1="90.0" y1="120.0" x2="132.0" y2="120.0" stroke="#ff8800" stroke-width="2" stroke-dasharray="6 3" data-id="opening_0003" data-type="unresolved" />
    <line x1="157.0" y1="316.5" x2="157.0" y2="396.5" stroke="#ff8800" stroke-width="2" stroke-dasharray="6 3" data-id="opening_0024" data-type="unresolved" />
  </g>
</svg>
