<svg xmlns="http://www.w3.org/2000/svg" width="512" height="512" viewBox="0 0 512 512" data-unit="px" data-scale-status="unknown">
  <g id="floor">
    <polygon id="floor_0" class="floor" points="17.0,15.0 17.0,374.0 17.0,411.0 17.0,511.0 392.0,511.0 392.0,462.0 488.0,462.0 488.0,197.0 325.0,197.0 325.0,74.0 280.0,74.0 280.0,0.0 182.0,0.0 182.0,92.0 152.0,92.0 152.0,15.0" fill="#f5f0e8" stroke="none" />
  </g>
  <g id="rooms">
    <polygon id="room_0001" points="212.00,6.00 201.00,6.00 198.00,10.00 190.00,12.00 194.00,16.00 191.00,21.00 193.00,26.00 200.00,18.00 202.00,11.00 206.00,8.00 210.00,10.00" fill="rgba(80,160,220,0.10)" stroke="#3388aa" stroke-width="1" />
    <polygon id="room_0002" points="242.00,15.00 233.00,157.00 25.00,36.00 18.00,366.00 362.00,465.00 24.00,511.00 384.00,505.00 406.00,194.00 122.00,206.00 316.00,170.00" fill="rgba(80,160,220,0.40)" stroke="#3388aa" stroke-width="1" />
    <polygon id="room_0003" points="316.00,82.00 318.00,86.00 325.00,89.00 328.00,88.00 330.00,85.00 327.00,79.00 325.00,79.00 321.00,82.00 318.00,81.00" fill="rgba(80,160,220,0.10)" stroke="#3388aa" stroke-width="1" />
    <polygon id="room_0004" points="438.00,101.00 430.00,108.00 425.00,109.00 422.00,114.00 424.00,118.00 437.00,125.00 442.00,125.00 448.00,121.00 449.00,112.00" fill="rgba(80,160,220,0.10)" stroke="#3388aa" stroke-width="1" />
    <polygon id="room_0005" points="30.00,204.00 32.00,243.00 41.00,244.00 51.00,230.00 50.00,213.00" fill="rgba(80,160,220,0.14)" stroke="#3388aa" stroke-width="1" />
    <polygon id="room_0006" points="434.00,230.00 425.00,221.00 424.00,230.00 411.00,236.00 400.00,232.00 389.00,242.00 382.00,234.00 381.00,254.00 401.00,255.00 407.00,245.00 429.00,247.00 428.00,234.00" fill="rgba(80,160,220,0.17)" stroke="#3388aa" stroke-width="1" />
    <polygon id="room_0007" points="365.00,327.00 470.00,318.00 430.00,299.00 428.00,276.00 446.00,296.00 454.00,269.00 423.00,274.00 409.00,253.00 412.00,268.00 379.00,270.00 411.00,313.00 376.00,319.00 370.00,305.00" fill="rgba(80,160,220,0.40)" stroke="#3388aa" stroke-width="1" />
    <polygon id="room_0008" points="405.00,329.00 404.00,388.00 410.00,381.00 417.00,389.00 422.00,382.00 442.00,386.00 444.00,358.00 425.00,325.00" fill="rgba(80,160,220,0.40)" stroke="#3388aa" stroke-width="1" />
    <polygon id="room_0009" points="455.00,339.00 455.00,346.00 458.00,350.00 460.00,349.00 464.00,352.00 470.00,350.00 470.00,344.00 466.00,337.00 462.00,339.00" fill="rgba(80,160,220,0.10)" stroke="#3388aa" stroke-width="1" />
    <polygon id="room_0010" points="49.00,371.00 44.00,378.00 49.00,385.00 53.00,383.00 57.00,386.00 60.00,385.00 61.00,380.00 57.00,377.00 57.00,374.00" fill="rgba(80,160,220,0.10)" stroke="#3388aa" stroke-width="1" />
    <polygon id="room_0011" points="74.00,371.00 71.00,371.00 71.00,383.00 73.00,388.00 70.00,390.00 65.00,389.00 68.00,395.00 71.00,393.00 74.00,394.00" fill="rgba(80,160,220,0.10)" stroke="#3388aa" stroke-width="1" />
    <polygon id="room_0012" points="380.00,445.00 382.00,452.00 387.00,447.00 396.00,454.00 407.00,448.00 427.00,448.00 421.00,446.00 425.00,442.00 418.00,438.00 393.00,441.00 383.00,436.00" fill="rgba(80,160,220,0.10)" stroke="#3388aa" stroke-width="1" />
  </g>
  <g id="walls">
    <line id="wall_0000" x1="180.00" y1="212.00" x2="180.00" y2="338.00" stroke="#222222" stroke-width="4.00" stroke-linecap="square" />
    <line id="wall_0001" x1="218.00" y1="465.00" x2="242.00" y2="465.00" stroke="#cccccc" stroke-width="4.00" stroke-linecap="square" />
    <line id="wall_0002" x1="403.00" y1="449.00" x2="421.00" y2="449.00" stroke="#cccccc" stroke-width="4.00" stroke-linecap="square" />
    <line id="wall_0003_s0" x1="232.50" y1="212.00" x2="232.50" y2="230.56" stroke="#222222" stroke-width="4.00" stroke-linecap="square" />
    <line id="wall_0003_s1" x1="232.50" y1="324.56" x2="232.50" y2="332.00" stroke="#222222" stroke-width="4.00" stroke-linecap="square" />
    <line id="wall_0004" x1="103.00" y1="441.50" x2="160.00" y2="441.50" stroke="#222222" stroke-width="4.00" stroke-linecap="square" />
    <line id="wall_0005" x1="297.00" y1="201.00" x2="314.00" y2="201.00" stroke="#cccccc" stroke-width="4.00" stroke-linecap="square" />
    <line id="wall_0006_s0" x1="26.00" y1="295.51" x2="26.00" y2="308.00" stroke="#cccccc" stroke-width="4.00" stroke-linecap="square" />
    <line id="wall_0007_s0" x1="86.00" y1="97.00" x2="105.35" y2="97.00" stroke="#222222" stroke-width="4.00" stroke-linecap="square" />
    <line id="wall_0007_s1" x1="113.35" y1="97.00" x2="134.00" y2="97.00" stroke="#222222" stroke-width="4.00" stroke-linecap="square" />
    <line id="wall_0008" x1="105.00" y1="198.00" x2="123.00" y2="198.00" stroke="#cccccc" stroke-width="4.00" stroke-linecap="square" />
    <line id="wall_0009_s0" x1="382.00" y1="206.50" x2="442.73" y2="206.50" stroke="#222222" stroke-width="4.00" stroke-linecap="square" />
    <line id="wall_0009_s1" x1="449.73" y1="206.50" x2="482.00" y2="206.50" stroke="#222222" stroke-width="4.00" stroke-linecap="square" />
    <line id="wall_0010" x1="77.00" y1="449.00" x2="180.00" y2="449.00" stroke="#222222" stroke-width="4.00" stroke-linecap="square" />
    <line id="wall_0011" x1="179.50" y1="339.00" x2="179.50" y2="394.00" stroke="#222222" stroke-width="4.00" stroke-linecap="square" />
    <line id="wall_0012" x1="361.00" y1="430.00" x2="361.00" y2="448.00" stroke="#cccccc" stroke-width="4.00" stroke-linecap="square" />
    <line id="wall_0013" x1="134.00" y1="104.00" x2="134.00" y2="161.00" stroke="#222222" stroke-width="4.00" stroke-linecap="square" />
    <line id="wall_0014" x1="26.00" y1="155.00" x2="26.00" y2="186.00" stroke="#888888" stroke-width="4.00" stroke-linecap="square" />
    <line id="wall_0015" x1="149.00" y1="208.50" x2="196.00" y2="208.50" stroke="#222222" stroke-width="4.00" stroke-linecap="square" />
    <line id="wall_0016" x1="326.00" y1="200.50" x2="363.00" y2="200.50" stroke="#888888" stroke-width="4.00" stroke-linecap="square" />
    <line id="wall_0017" x1="193.00" y1="449.00" x2="207.00" y2="449.00" stroke="#cccccc" stroke-width="4.00" stroke-linecap="square" />
    <line id="wall_0018" x1="180.50" y1="410.99" x2="180.50" y2="447.01" stroke="#888888" stroke-width="4.00" stroke-linecap="square" />
    <line id="wall_0019" x1="482.00" y1="230.00" x2="482.00" y2="281.00" stroke="#222222" stroke-width="4.00" stroke-linecap="square" />
    <line id="wall_0022" x1="132.50" y1="70.99" x2="132.50" y2="95.01" stroke="#cccccc" stroke-width="4.00" stroke-linecap="square" />
    <line id="wall_0023" x1="27.00" y1="78.00" x2="27.00" y2="98.00" stroke="#cccccc" stroke-width="4.00" stroke-linecap="square" />
    <line id="wall_0024" x1="27.99" y1="309.50" x2="45.01" y2="309.50" stroke="#cccccc" stroke-width="4.00" stroke-linecap="square" />
    <line id="wall_0025" x1="360.00" y1="375.00" x2="360.00" y2="385.00" stroke="#cccccc" stroke-width="4.00" stroke-linecap="square" />
    <line id="wall_0026_s0" x1="293.00" y1="466.00" x2="302.50" y2="466.00" stroke="#cccccc" stroke-width="4.00" stroke-linecap="square" />
    <line id="wall_0027" x1="148.00" y1="198.50" x2="190.00" y2="198.50" stroke="#222222" stroke-width="4.00" stroke-linecap="square" />
    <line id="wall_0028_s0" x1="361.00" y1="324.84" x2="361.00" y2="338.13" stroke="#222222" stroke-width="4.00" stroke-linecap="square" />
    <line id="wall_0028_s1" x1="361.00" y1="359.13" x2="361.00" y2="374.00" stroke="#222222" stroke-width="4.00" stroke-linecap="square" />
    <line id="wall_0030" x1="106.00" y1="465.00" x2="123.00" y2="465.00" stroke="#cccccc" stroke-width="4.00" stroke-linecap="square" />
    <line id="wall_0031_s0" x1="181.00" y1="320.75" x2="190.81" y2="320.75" stroke="#222222" stroke-width="4.00" stroke-linecap="square" />
    <line id="wall_0031_s1" x1="203.81" y1="320.75" x2="231.00" y2="320.75" stroke="#222222" stroke-width="4.00" stroke-linecap="square" />
    <line id="wall_0032_s0" x1="206.00" y1="442.00" x2="216.24" y2="442.00" stroke="#222222" stroke-width="4.00" stroke-linecap="square" />
    <line id="wall_0032_s1" x1="232.24" y1="442.00" x2="248.00" y2="442.00" stroke="#222222" stroke-width="4.00" stroke-linecap="square" />
    <line id="wall_0033_s0" x1="27.25" y1="118.00" x2="27.25" y2="147.25" stroke="#222222" stroke-width="4.00" stroke-linecap="square" />
    <line id="wall_0033_s1" x1="27.25" y1="160.25" x2="27.25" y2="168.17" stroke="#222222" stroke-width="4.00" stroke-linecap="square" />
    <line id="wall_0035" x1="134.00" y1="42.00" x2="134.00" y2="70.00" stroke="#888888" stroke-width="4.00" stroke-linecap="square" />
    <line id="wall_0036" x1="47.00" y1="353.00" x2="58.00" y2="353.00" stroke="#cccccc" stroke-width="4.00" stroke-linecap="square" />
    <line id="wall_0037" x1="182.00" y1="465.00" x2="204.00" y2="465.00" stroke="#cccccc" stroke-width="4.00" stroke-linecap="square" />
    <line id="wall_0038" x1="219.00" y1="201.00" x2="232.00" y2="201.00" stroke="#cccccc" stroke-width="4.00" stroke-linecap="square" />
    <line id="wall_0039_s0" x1="361.00" y1="396.00" x2="361.00" y2="404.50" stroke="#cccccc" stroke-width="4.00" stroke-linecap="square" />
    <line id="wall_0042" x1="222.99" y1="405.50" x2="241.01" y2="405.50" stroke="#cccccc" stroke-width="4.00" stroke-linecap="square" />
    <line id="wall_0043_s0" x1="218.00" y1="451.00" x2="238.81" y2="451.00" stroke="#888888" stroke-width="4.00" stroke-linecap="square" />
    <line id="wall_0044_s0" x1="51.01" y1="97.00" x2="54.73" y2="97.00" stroke="#cccccc" stroke-width="4.00" stroke-linecap="square" />
    <line id="wall_0044_s1" x1="62.73" y1="97.00" x2="70.04" y2="97.00" stroke="#cccccc" stroke-width="4.00" stroke-linecap="square" />
    <line id="wall_0045" x1="144.00" y1="465.00" x2="162.00" y2="465.00" stroke="#cccccc" stroke-width="4.00" stroke-linecap="square" />
    <line id="wall_0046" x1="417.00" y1="320.00" x2="427.00" y2="320.00" stroke="#cccccc" stroke-width="4.00" stroke-linecap="square" />
    <line id="wall_0047" x1="78.00" y1="465.00" x2="88.00" y2="465.00" stroke="#cccccc" stroke-width="4.00" stroke-linecap="square" />
    <line id="wall_0048" x1="405.00" y1="242.00" x2="405.00" y2="258.00" stroke="#cccccc" stroke-width="4.00" stroke-linecap="square" />
    <line id="wall_0049" x1="382.00" y1="430.00" x2="382.00" y2="440.00" stroke="#cccccc" stroke-width="4.00" stroke-linecap="square" />
    <line id="wall_0050" x1="39.00" y1="369.00" x2="50.00" y2="369.00" stroke="#cccccc" stroke-width="4.00" stroke-linecap="square" />
    <line id="wall_0051" x1="133.00" y1="196.00" x2="135.00" y2="184.00" stroke="#cccccc" stroke-width="4.00" stroke-linecap="square" />
    <line id="wall_0052" x1="360.50" y1="325.00" x2="360.50" y2="352.00" stroke="#888888" stroke-width="4.00" stroke-linecap="square" />
    <line id="wall_0053" x1="232.00" y1="388.00" x2="232.00" y2="403.00" stroke="#cccccc" stroke-width="4.00" stroke-linecap="square" />
  </g>
  <g id="windows">
    <g id="window_0002" data-type="window"><polygon points="31.32,52.63 31.32,84.63 25.32,84.63 25.32,52.63" fill="#d0e8ff" stroke="#3355cc" stroke-width="1" /><line x1="28.32" y1="52.63" x2="28.32" y2="84.63" stroke="#3355cc" stroke-width="1.5" /></g>
    <g id="window_0003" data-type="window"><polygon points="26.31,93.82 51.22,95.98 50.70,101.96 25.79,99.79" fill="#d0e8ff" stroke="#3355cc" stroke-width="1" /><line x1="26.05" y1="96.80" x2="50.96" y2="98.97" stroke="#3355cc" stroke-width="1.5" /></g>
    <g id="window_0005" data-type="window"><polygon points="55.01,94.20 62.98,94.89 62.46,100.87 54.49,100.18" fill="#d0e8ff" stroke="#3355cc" stroke-width="1" /><line x1="54.75" y1="97.19" x2="62.72" y2="97.88" stroke="#3355cc" stroke-width="1.5" /></g>
    <g id="window_0007" data-type="window"><polygon points="105.35,96.12 113.35,96.12 113.35,102.12 105.35,102.12" fill="#d0e8ff" stroke="#3355cc" stroke-width="1" /><line x1="105.35" y1="99.12" x2="113.35" y2="99.12" stroke="#3355cc" stroke-width="1.5" /></g>
    <g id="window_0010" data-type="window"><polygon points="31.81,147.25 31.81,160.25 25.81,160.25 25.81,147.25" fill="#d0e8ff" stroke="#3355cc" stroke-width="1" /><line x1="28.81" y1="147.25" x2="28.81" y2="160.25" stroke="#3355cc" stroke-width="1.5" /></g>
    <g id="window_0011" data-type="window"><polygon points="31.67,168.17 31.67,176.17 25.67,176.17 25.67,168.17" fill="#d0e8ff" stroke="#3355cc" stroke-width="1" /><line x1="28.67" y1="168.17" x2="28.67" y2="176.17" stroke="#3355cc" stroke-width="1.5" /></g>
    <g id="window_0012" data-type="window"><polygon points="319.08,182.92 325.08,182.92 325.08,188.92 319.08,188.92" fill="#d0e8ff" stroke="#3355cc" stroke-width="1" /><line x1="319.08" y1="185.92" x2="325.08" y2="185.92" stroke="#3355cc" stroke-width="1.5" /></g>
    <g id="window_0013" data-type="window"><polygon points="24.50,213.83 24.50,194.83 30.50,194.83 30.50,213.83" fill="#d0e8ff" stroke="#3355cc" stroke-width="1" /><line x1="27.50" y1="213.83" x2="27.50" y2="194.83" stroke="#3355cc" stroke-width="1.5" /></g>
    <g id="window_0015" data-type="window"><polygon points="300.83,202.96 356.83,202.96 356.83,208.96 300.83,208.96" fill="#d0e8ff" stroke="#3355cc" stroke-width="1" /><line x1="300.83" y1="205.96" x2="356.83" y2="205.96" stroke="#3355cc" stroke-width="1.5" /></g>
    <g id="window_0017" data-type="window"><polygon points="267.60,203.97 287.60,203.97 287.60,209.97 267.60,209.97" fill="#d0e8ff" stroke="#3355cc" stroke-width="1" /><line x1="267.60" y1="206.97" x2="287.60" y2="206.97" stroke="#3355cc" stroke-width="1.5" /></g>
    <g id="window_0018" data-type="window"><polygon points="220.13,202.00 234.13,202.00 234.13,208.00 220.13,208.00" fill="#d0e8ff" stroke="#3355cc" stroke-width="1" /><line x1="220.13" y1="205.00" x2="234.13" y2="205.00" stroke="#3355cc" stroke-width="1.5" /></g>
    <g id="window_0019" data-type="window"><polygon points="242.60,202.76 251.60,202.76 251.60,208.76 242.60,208.76" fill="#d0e8ff" stroke="#3355cc" stroke-width="1" /><line x1="242.60" y1="205.76" x2="251.60" y2="205.76" stroke="#3355cc" stroke-width="1.5" /></g>
    <g id="window_0020" data-type="window"><polygon points="442.73,206.54 449.73,206.54 449.73,212.54 442.73,212.54" fill="#d0e8ff" stroke="#3355cc" stroke-width="1" /><line x1="442.73" y1="209.54" x2="449.73" y2="209.54" stroke="#3355cc" stroke-width="1.5" /></g>
    <g id="window_0021" data-type="window"><polygon points="19.71,225.92 35.71,225.92 35.71,231.92 19.71,231.92" fill="#d0e8ff" stroke="#3355cc" stroke-width="1" /><line x1="19.71" y1="228.92" x2="35.71" y2="228.92" stroke="#3355cc" stroke-width="1.5" /></g>
    <g id="window_0022" data-type="window"><polygon points="236.93,230.56 236.93,324.56 230.93,324.56 230.93,230.56" fill="#d0e8ff" stroke="#3355cc" stroke-width="1" /><line x1="233.93" y1="230.56" x2="233.93" y2="324.56" stroke="#3355cc" stroke-width="1.5" /></g>
    <g id="window_0026" data-type="window"><polygon points="24.46,295.51 24.46,262.51 30.46,262.51 30.46,295.51" fill="#d0e8ff" stroke="#3355cc" stroke-width="1" /><line x1="27.46" y1="295.51" x2="27.46" y2="262.51" stroke="#3355cc" stroke-width="1.5" /></g>
    <g id="window_0031" data-type="window"><polygon points="364.65,304.84 364.65,324.84 358.65,324.84 358.65,304.84" fill="#d0e8ff" stroke="#3355cc" stroke-width="1" /><line x1="361.65" y1="304.84" x2="361.65" y2="324.84" stroke="#3355cc" stroke-width="1.5" /></g>
    <g id="window_0033" data-type="window"><polygon points="87.43,307.78 122.43,307.78 122.43,313.78 87.43,313.78" fill="#d0e8ff" stroke="#3355cc" stroke-width="1" /><line x1="87.43" y1="310.78" x2="122.43" y2="310.78" stroke="#3355cc" stroke-width="1.5" /></g>
    <g id="window_0034" data-type="window"><polygon points="14.50,321.50 14.50,314.50 20.50,314.50 20.50,321.50" fill="#d0e8ff" stroke="#3355cc" stroke-width="1" /><line x1="17.50" y1="321.50" x2="17.50" y2="314.50" stroke="#3355cc" stroke-width="1.5" /></g>
    <g id="window_0036" data-type="window"><polygon points="76.00,321.00 86.00,321.00 86.00,327.00 76.00,327.00" fill="#d0e8ff" stroke="#3355cc" stroke-width="1" /><line x1="76.00" y1="324.00" x2="86.00" y2="324.00" stroke="#3355cc" stroke-width="1.5" /></g>
    <g id="window_0037" data-type="window"><polygon points="190.81,318.94 203.81,318.94 203.81,324.94 190.81,324.94" fill="#d0e8ff" stroke="#3355cc" stroke-width="1" /><line x1="190.81" y1="321.94" x2="203.81" y2="321.94" stroke="#3355cc" stroke-width="1.5" /></g>
    <g id="window_0038" data-type="window"><polygon points="427.11,318.25 440.11,318.25 440.11,324.25 427.11,324.25" fill="#d0e8ff" stroke="#3355cc" stroke-width="1" /><line x1="427.11" y1="321.25" x2="440.11" y2="321.25" stroke="#3355cc" stroke-width="1.5" /></g>
    <g id="window_0039" data-type="window"><polygon points="229.46,326.64 244.13,395.09 238.27,396.35 223.60,327.90" fill="#d0e8ff" stroke="#3355cc" stroke-width="1" /><line x1="226.53" y1="327.27" x2="241.20" y2="395.72" stroke="#3355cc" stroke-width="1.5" /></g>
    <g id="window_0041" data-type="window"><polygon points="364.61,338.13 364.61,359.13 358.61,359.13 358.61,338.13" fill="#d0e8ff" stroke="#3355cc" stroke-width="1" /><line x1="361.61" y1="338.13" x2="361.61" y2="359.13" stroke="#3355cc" stroke-width="1.5" /></g>
    <g id="window_0043" data-type="window"><polygon points="50.50,366.50 56.50,366.50 56.50,372.50 50.50,372.50" fill="#d0e8ff" stroke="#3355cc" stroke-width="1" /><line x1="50.50" y1="369.50" x2="56.50" y2="369.50" stroke="#3355cc" stroke-width="1.5" /></g>
    <g id="window_0045" data-type="window"><polygon points="364.50,404.50 364.50,408.50 358.50,408.50 358.50,404.50" fill="#d0e8ff" stroke="#3355cc" stroke-width="1" /><line x1="361.50" y1="404.50" x2="361.50" y2="408.50" stroke="#3355cc" stroke-width="1.5" /></g>
    <g id="window_0046" data-type="window"><polygon points="216.24,439.86 232.24,439.86 232.24,445.86 216.24,445.86" fill="#d0e8ff" stroke="#3355cc" stroke-width="1" /><line x1="216.24" y1="442.86" x2="232.24" y2="442.86" stroke="#3355cc" stroke-width="1.5" /></g>
    <g id="window_0047" data-type="window"><polygon points="238.81,444.16 254.81,444.16 254.81,450.16 238.81,450.16" fill="#d0e8ff" stroke="#3355cc" stroke-width="1" /><line x1="238.81" y1="447.16" x2="254.81" y2="447.16" stroke="#3355cc" stroke-width="1.5" /></g>
    <g id="window_0049" data-type="window"><polygon points="427.50,442.50 437.50,442.50 437.50,448.50 427.50,448.50" fill="#d0e8ff" stroke="#3355cc" stroke-width="1" /><line x1="427.50" y1="445.50" x2="437.50" y2="445.50" stroke="#3355cc" stroke-width="1.5" /></g>
    <g id="window_0050" data-type="window"><polygon points="265.58,445.82 281.58,445.82 281.58,451.82 265.58,451.82" fill="#d0e8ff" stroke="#3355cc" stroke-width="1" /><line x1="265.58" y1="448.82" x2="281.58" y2="448.82" stroke="#3355cc" stroke-width="1.5" /></g>
    <g id="window_0051" data-type="window"><polygon points="302.50,446.46 315.50,446.46 315.50,452.46 302.50,452.46" fill="#d0e8ff" stroke="#3355cc" stroke-width="1" /><line x1="302.50" y1="449.46" x2="315.50" y2="449.46" stroke="#3355cc" stroke-width="1.5" /></g>
  </g>
  <g id="doors">
    <g id="door_0001" data-type="door"><line x1="57.64" y1="36.91" x2="57.64" y2="43.91" stroke="#222222" stroke-width="2" stroke-linecap="square" /><line x1="57.64" y1="36.91" x2="50.64" y2="36.91" stroke="#222222" stroke-width="1.5" /><path d="M 57.64 43.91 A 7.00 7.00 0 0 0 50.64 36.91" fill="none" stroke="#222222" stroke-width="1" stroke-dasharray="3 2" /></g>
    <g id="door_0004" data-type="door"><line x1="72.87" y1="101.45" x2="87.87" y2="101.45" stroke="#222222" stroke-width="2" stroke-linecap="square" /><line x1="72.87" y1="101.45" x2="72.87" y2="116.45" stroke="#222222" stroke-width="1.5" /><path d="M 87.87 101.45 A 15.00 15.00 0 0 0 72.87 116.45" fill="none" stroke="#222222" stroke-width="1" stroke-dasharray="3 2" /></g>
    <g id="door_0006" data-type="door"><line x1="126.62" y1="100.24" x2="137.62" y2="100.24" stroke="#888888" stroke-width="2" stroke-linecap="square" /><line x1="126.62" y1="100.24" x2="126.62" y2="111.24" stroke="#888888" stroke-width="1.5" /><path d="M 137.62 100.24 A 11.00 11.00 0 0 0 126.62 111.24" fill="none" stroke="#888888" stroke-width="1" stroke-dasharray="3 2" /></g>
    <g id="door_0008" data-type="door"><line x1="62.94" y1="108.50" x2="67.92" y2="108.93" stroke="#222222" stroke-width="2" stroke-linecap="square" /><line x1="62.94" y1="108.50" x2="62.50" y2="113.48" stroke="#222222" stroke-width="1.5" /><path d="M 67.92 108.93 A 5.00 5.00 0 0 0 62.50 113.48" fill="none" stroke="#222222" stroke-width="1" stroke-dasharray="3 2" /></g>
    <g id="door_0009" data-type="door"><line x1="73.17" y1="122.66" x2="79.14" y2="123.18" stroke="#222222" stroke-width="2" stroke-linecap="square" /><line x1="73.17" y1="122.66" x2="72.65" y2="128.64" stroke="#222222" stroke-width="1.5" /><path d="M 79.14 123.18 A 6.00 6.00 0 0 0 72.65 128.64" fill="none" stroke="#222222" stroke-width="1" stroke-dasharray="3 2" /></g>
    <g id="door_0014" data-type="door"><line x1="159.38" y1="200.62" x2="163.38" y2="200.62" stroke="#222222" stroke-width="2" stroke-linecap="square" /><line x1="159.38" y1="200.62" x2="159.38" y2="204.62" stroke="#222222" stroke-width="1.5" /><path d="M 163.38 200.62 A 4.00 4.00 0 0 0 159.38 204.62" fill="none" stroke="#222222" stroke-width="1" stroke-dasharray="3 2" /></g>
    <g id="door_0016" data-type="door"><line x1="184.24" y1="204.70" x2="195.24" y2="204.70" stroke="#222222" stroke-width="2" stroke-linecap="square" /><line x1="184.24" y1="204.70" x2="184.24" y2="215.70" stroke="#222222" stroke-width="1.5" /><path d="M 195.24 204.70 A 11.00 11.00 0 0 0 184.24 215.70" fill="none" stroke="#222222" stroke-width="1" stroke-dasharray="3 2" /></g>
    <g id="door_0023" data-type="door"><line x1="43.63" y1="245.83" x2="56.63" y2="245.83" stroke="#222222" stroke-width="2" stroke-linecap="square" /><line x1="43.63" y1="245.83" x2="43.63" y2="258.83" stroke="#222222" stroke-width="1.5" /><path d="M 56.63 245.83 A 13.00 13.00 0 0 0 43.63 258.83" fill="none" stroke="#222222" stroke-width="1" stroke-dasharray="3 2" /></g>
    <g id="door_0024" data-type="door"><line x1="25.07" y1="246.26" x2="32.07" y2="246.26" stroke="#888888" stroke-width="2" stroke-linecap="square" /><line x1="25.07" y1="246.26" x2="25.07" y2="253.26" stroke="#888888" stroke-width="1.5" /><path d="M 32.07 246.26 A 7.00 7.00 0 0 0 25.07 253.26" fill="none" stroke="#888888" stroke-width="1" stroke-dasharray="3 2" /></g>
    <g id="door_0025" data-type="door"><line x1="112.38" y1="249.12" x2="115.38" y2="249.12" stroke="#222222" stroke-width="2" stroke-linecap="square" /><line x1="112.38" y1="249.12" x2="112.38" y2="252.12" stroke="#222222" stroke-width="1.5" /><path d="M 115.38 249.12 A 3.00 3.00 0 0 0 112.38 252.12" fill="none" stroke="#222222" stroke-width="1" stroke-dasharray="3 2" /></g>
    <g id="door_0027" data-type="door"><line x1="54.47" y1="268.67" x2="54.47" y2="262.67" stroke="#222222" stroke-width="2" stroke-linecap="square" /><line x1="54.47" y1="268.67" x2="60.47" y2="268.67" stroke="#222222" stroke-width="1.5" /><path d="M 54.47 262.67 A 6.00 6.00 0 0 0 60.47 268.67" fill="none" stroke="#222222" stroke-width="1" stroke-dasharray="3 2" /></g>
    <g id="door_0028" data-type="door"><line x1="434.75" y1="284.38" x2="434.75" y2="297.38" stroke="#222222" stroke-width="2" stroke-linecap="square" /><line x1="434.75" y1="284.38" x2="421.75" y2="284.38" stroke="#222222" stroke-width="1.5" /><path d="M 434.75 297.38 A 13.00 13.00 0 0 1 421.75 284.38" fill="none" stroke="#222222" stroke-width="1" stroke-dasharray="3 2" /></g>
    <g id="door_0029" data-type="door"><line x1="431.11" y1="284.33" x2="435.11" y2="284.33" stroke="#222222" stroke-width="2" stroke-linecap="square" /><line x1="431.11" y1="284.33" x2="431.11" y2="288.33" stroke="#222222" stroke-width="1.5" /><path d="M 435.11 284.33 A 4.00 4.00 0 0 0 431.11 288.33" fill="none" stroke="#222222" stroke-width="1" stroke-dasharray="3 2" /></g>
    <g id="door_0030" data-type="door"><line x1="44.42" y1="307.38" x2="18.46" y2="305.85" stroke="#222222" stroke-width="2" stroke-linecap="square" /><line x1="44.42" y1="307.38" x2="45.94" y2="281.42" stroke="#222222" stroke-width="1.5" /><path d="M 18.46 305.85 A 26.00 26.00 0 0 1 45.94 281.42" fill="none" stroke="#222222" stroke-width="1" stroke-dasharray="3 2" /></g>
    <g id="door_0032" data-type="door"><line x1="75.06" y1="311.03" x2="65.07" y2="310.44" stroke="#222222" stroke-width="2" stroke-linecap="square" /><line x1="75.06" y1="311.03" x2="75.64" y2="301.05" stroke="#222222" stroke-width="1.5" /><path d="M 65.07 310.44 A 10.00 10.00 0 0 1 75.64 301.05" fill="none" stroke="#222222" stroke-width="1" stroke-dasharray="3 2" /></g>
    <g id="door_0035" data-type="door"><line x1="44.86" y1="323.85" x2="52.85" y2="324.32" stroke="#222222" stroke-width="2" stroke-linecap="square" /><line x1="44.86" y1="323.85" x2="44.39" y2="331.84" stroke="#222222" stroke-width="1.5" /><path d="M 52.85 324.32 A 8.00 8.00 0 0 0 44.39 331.84" fill="none" stroke="#222222" stroke-width="1" stroke-dasharray="3 2" /></g>
    <g id="door_0040" data-type="door"><line x1="40.43" y1="339.69" x2="56.43" y2="339.69" stroke="#888888" stroke-width="2" stroke-linecap="square" /><line x1="40.43" y1="339.69" x2="40.43" y2="355.69" stroke="#888888" stroke-width="1.5" /><path d="M 56.43 339.69 A 16.00 16.00 0 0 0 40.43 355.69" fill="none" stroke="#888888" stroke-width="1" stroke-dasharray="3 2" /></g>
    <g id="door_0042" data-type="door"><line x1="60.20" y1="351.90" x2="56.20" y2="351.90" stroke="#222222" stroke-width="2" stroke-linecap="square" /><line x1="60.20" y1="351.90" x2="60.20" y2="347.90" stroke="#222222" stroke-width="1.5" /><path d="M 56.20 351.90 A 4.00 4.00 0 0 1 60.20 347.90" fill="none" stroke="#222222" stroke-width="1" stroke-dasharray="3 2" /></g>
    <g id="door_0044" data-type="door"><line x1="405.51" y1="385.24" x2="397.51" y2="385.24" stroke="#222222" stroke-width="2" stroke-linecap="square" /><line x1="405.51" y1="385.24" x2="405.51" y2="377.24" stroke="#222222" stroke-width="1.5" /><path d="M 397.51 385.24 A 8.00 8.00 0 0 1 405.51 377.24" fill="none" stroke="#222222" stroke-width="1" stroke-dasharray="3 2" /></g>
    <g id="door_0048" data-type="door"><line x1="419.64" y1="445.07" x2="424.64" y2="445.07" stroke="#888888" stroke-width="2" stroke-linecap="square" /><line x1="419.64" y1="445.07" x2="419.64" y2="450.07" stroke="#888888" stroke-width="1.5" /><path d="M 424.64 445.07 A 5.00 5.00 0 0 0 419.64 450.07" fill="none" stroke="#888888" stroke-width="1" stroke-dasharray="3 2" /></g>
  </g>
</svg>
