<svg xmlns="http://www.w3.org/2000/svg" width="512" height="512" viewBox="0 0 512 512" data-unit="px" data-scale-status="unknown">
  <g id="floor">
    <polygon id="floor_0" class="floor" points="0.0,102.0 0.0,152.0 32.0,152.0 32.0,245.0 45.0,245.0 45.0,398.0 108.0,398.0 108.0,511.0 164.0,511.0 164.0,399.0 511.0,399.0 511.0,102.0 449.0,102.0 449.0,54.0 371.0,54.0 371.0,102.0 220.0,102.0 145.0,102.0" fill="#f5f0e8" stroke="none" />
  </g>
  <g id="wall">
    <line id="wall_outer_0000" x1="-0.00" y1="102.00" x2="0.00" y2="152.00" stroke="#222222" stroke-width="6.00" stroke-linecap="square" />
    <line id="wall_outer_0001_s0" x1="0.00" y1="152.00" x2="13.00" y2="152.00" stroke="#222222" stroke-width="6.00" stroke-linecap="square" />
    <line id="wall_outer_0002" x1="32.00" y1="152.00" x2="32.00" y2="245.00" stroke="#222222" stroke-width="6.00" stroke-linecap="square" />
    <line id="wall_outer_0003" x1="32.00" y1="245.00" x2="45.00" y2="245.00" stroke="#222222" stroke-width="6.00" stroke-linecap="square" />
    <line id="wall_outer_0004" x1="45.00" y1="245.00" x2="45.00" y2="398.00" stroke="#222222" stroke-width="6.00" stroke-linecap="square" />
    <line id="wall_outer_0005_s0" x1="45.00" y1="398.00" x2="74.50" y2="398.00" stroke="#222222" stroke-width="6.00" stroke-linecap="square" />
    <line id="wall_outer_0005_s1" x1="92.50" y1="398.00" x2="108.00" y2="398.00" stroke="#222222" stroke-width="6.00" stroke-linecap="square" />
    <line id="wall_outer_0006" x1="108.00" y1="398.00" x2="108.00" y2="511.00" stroke="#222222" stroke-width="6.00" stroke-linecap="square" />
    <line id="wall_outer_0007" x1="108.00" y1="511.00" x2="164.00" y2="511.00" stroke="#222222" stroke-width="6.00" stroke-linecap="square" />
    <line id="wall_outer_0008_s0" x1="164.00" y1="511.00" x2="164.00" y2="434.85" stroke="#222222" stroke-width="6.00" stroke-linecap="square" />
    <line id="wall_outer_0008_s1" x1="164.00" y1="405.02" x2="164.00" y2="399.00" stroke="#222222" stroke-width="6.00" stroke-linecap="square" />
    <line id="wall_outer_0009" x1="164.00" y1="399.00" x2="511.00" y2="399.00" stroke="#222222" stroke-width="6.00" stroke-linecap="square" />
    <line id="wall_outer_0010_s0" x1="511.00" y1="399.00" x2="511.00" y2="331.32" stroke="#222222" stroke-width="6.00" stroke-linecap="square" />
    <line id="wall_outer_0010_s1" x1="511.00" y1="271.32" x2="511.00" y2="230.90" stroke="#222222" stroke-width="6.00" stroke-linecap="square" />
    <line id="wall_outer_0010_s2" x1="511.00" y1="169.90" x2="511.00" y2="102.00" stroke="#222222" stroke-width="6.00" stroke-linecap="square" />
    <line id="wall_outer_0011" x1="511.00" y1="102.00" x2="449.00" y2="102.00" stroke="#222222" stroke-width="6.00" stroke-linecap="square" />
    <line id="wall_outer_0012" x1="449.00" y1="102.00" x2="449.00" y2="54.00" stroke="#222222" stroke-width="6.00" stroke-linecap="square" />
    <line id="wall_outer_0013" x1="449.00" y1="54.00" x2="371.00" y2="54.00" stroke="#222222" stroke-width="6.00" stroke-linecap="square" />
    <line id="wall_outer_0014" x1="371.00" y1="54.00" x2="371.00" y2="102.00" stroke="#222222" stroke-width="6.00" stroke-linecap="square" />
    <line id="wall_outer_0015" x1="371.00" y1="102.00" x2="220.00" y2="102.00" stroke="#222222" stroke-width="6.00" stroke-linecap="square" />
    <line id="wall_outer_0016_s0" x1="179.53" y1="102.00" x2="145.00" y2="102.00" stroke="#222222" stroke-width="6.00" stroke-linecap="square" />
    <line id="wall_outer_0017_s0" x1="145.00" y1="102.00" x2="105.95" y2="102.00" stroke="#222222" stroke-width="6.00" stroke-linecap="square" />
    <line id="wall_outer_0017_s1" x1="75.95" y1="102.00" x2="0.00" y2="102.00" stroke="#222222" stroke-width="6.00" stroke-linecap="square" />
    <line id="wall_inner_0000" x1="55.50" y1="110.00" x2="55.50" y2="387.00" stroke="#222222" stroke-width="6.00" stroke-linecap="square" />
    <line id="wall_inner_0001" x1="322.00" y1="350.00" x2="376.00" y2="350.00" stroke="#222222" stroke-width="6.00" stroke-linecap="square" />
    <line id="wall_inner_0002_s0" x1="176.00" y1="387.00" x2="191.50" y2="387.00" stroke="#cccccc" stroke-width="6.00" stroke-linecap="square" />
    <line id="wall_inner_0003_s0" x1="321.00" y1="385.00" x2="321.00" y2="366.50" stroke="#222222" stroke-width="6.00" stroke-linecap="square" />
    <line id="wall_inner_0004" x1="399.00" y1="348.00" x2="498.00" y2="348.00" stroke="#222222" stroke-width="6.00" stroke-linecap="square" />
    <line id="wall_inner_0005" x1="380.00" y1="176.00" x2="380.00" y2="216.00" stroke="#222222" stroke-width="6.00" stroke-linecap="square" />
    <line id="wall_inner_0006_s0" x1="380.25" y1="264.50" x2="380.25" y2="335.00" stroke="#222222" stroke-width="6.00" stroke-linecap="square" />
    <line id="wall_inner_0007_s0" x1="101.00" y1="194.50" x2="101.00" y2="120.00" stroke="#222222" stroke-width="6.00" stroke-linecap="square" />
    <line id="wall_inner_0008" x1="323.00" y1="153.00" x2="377.00" y2="153.00" stroke="#222222" stroke-width="6.00" stroke-linecap="square" />
    <line id="wall_inner_0009_s0" x1="116.00" y1="307.50" x2="116.00" y2="446.00" stroke="#222222" stroke-width="6.00" stroke-linecap="square" />
    <line id="wall_inner_0010" x1="440.00" y1="150.00" x2="500.00" y2="150.00" stroke="#222222" stroke-width="6.00" stroke-linecap="square" />
    <line id="wall_inner_0011_s0" x1="244.00" y1="314.00" x2="244.00" y2="302.54" stroke="#888888" stroke-width="6.00" stroke-linecap="square" />
    <line id="wall_inner_0012_s0" x1="441.00" y1="114.00" x2="500.00" y2="114.00" stroke="#222222" stroke-width="6.00" stroke-linecap="square" />
    <line id="wall_inner_0013" x1="322.00" y1="385.75" x2="499.00" y2="385.75" stroke="#222222" stroke-width="6.00" stroke-linecap="square" />
    <line id="wall_inner_0014" x1="321.00" y1="256.00" x2="321.00" y2="200.00" stroke="#222222" stroke-width="6.00" stroke-linecap="square" />
    <line id="wall_inner_0015" x1="323.00" y1="113.00" x2="372.00" y2="113.00" stroke="#222222" stroke-width="6.00" stroke-linecap="square" />
    <line id="wall_inner_0016_s0" x1="173.00" y1="256.00" x2="173.00" y2="224.50" stroke="#888888" stroke-width="6.00" stroke-linecap="square" />
    <line id="wall_inner_0017" x1="139.00" y1="254.50" x2="172.00" y2="254.50" stroke="#888888" stroke-width="6.00" stroke-linecap="square" />
    <line id="wall_inner_0018_s0" x1="437.25" y1="301.50" x2="437.25" y2="347.00" stroke="#222222" stroke-width="6.00" stroke-linecap="square" />
    <line id="wall_inner_0019" x1="136.00" y1="245.00" x2="136.00" y2="194.00" stroke="#222222" stroke-width="6.00" stroke-linecap="square" />
    <line id="wall_inner_0020" x1="243.00" y1="144.00" x2="243.00" y2="123.00" stroke="#cccccc" stroke-width="6.00" stroke-linecap="square" />
    <line id="wall_inner_0021" x1="413.00" y1="347.00" x2="413.00" y2="295.00" stroke="#222222" stroke-width="6.00" stroke-linecap="square" />
    <line id="wall_inner_0022_s0" x1="460.07" y1="250.00" x2="497.00" y2="250.00" stroke="#222222" stroke-width="6.00" stroke-linecap="square" />
    <line id="wall_inner_0023" x1="135.00" y1="121.00" x2="145.00" y2="121.00" stroke="#cccccc" stroke-width="6.00" stroke-linecap="square" />
    <line id="wall_inner_0024" x1="177.00" y1="366.00" x2="177.00" y2="344.00" stroke="#cccccc" stroke-width="6.00" stroke-linecap="square" />
    <line id="wall_inner_0025" x1="173.00" y1="153.00" x2="173.00" y2="187.00" stroke="#888888" stroke-width="6.00" stroke-linecap="square" />
    <line id="wall_inner_0026" x1="320.50" y1="117.00" x2="320.50" y2="193.00" stroke="#222222" stroke-width="6.00" stroke-linecap="square" />
    <line id="wall_inner_0027" x1="14.99" y1="70.50" x2="50.01" y2="70.50" stroke="#888888" stroke-width="6.00" stroke-linecap="square" />
    <line id="wall_inner_0028_s0" x1="378.00" y1="156.00" x2="378.00" y2="132.50" stroke="#222222" stroke-width="6.00" stroke-linecap="square" />
    <line id="wall_inner_0029" x1="12.50" y1="111.99" x2="12.50" y2="135.01" stroke="#cccccc" stroke-width="6.00" stroke-linecap="square" />
    <line id="wall_inner_0030_s0" x1="136.00" y1="195.48" x2="136.00" y2="200.02" stroke="#222222" stroke-width="6.00" stroke-linecap="square" />
    <line id="wall_inner_0031" x1="57.00" y1="387.00" x2="70.00" y2="387.00" stroke="#cccccc" stroke-width="6.00" stroke-linecap="square" />
    <line id="wall_inner_0033" x1="438.00" y1="116.00" x2="438.00" y2="179.00" stroke="#222222" stroke-width="6.00" stroke-linecap="square" />
    <line id="wall_inner_0034" x1="94.99" y1="386.50" x2="132.01" y2="386.50" stroke="#888888" stroke-width="6.00" stroke-linecap="square" />
    <line id="wall_inner_0035" x1="55.99" y1="255.50" x2="99.01" y2="255.50" stroke="#222222" stroke-width="6.00" stroke-linecap="square" />
    <line id="wall_inner_0036" x1="244.00" y1="364.00" x2="244.00" y2="383.00" stroke="#cccccc" stroke-width="6.00" stroke-linecap="square" />
    <line id="wall_inner_0037_s0" x1="243.00" y1="194.00" x2="243.00" y2="200.00" stroke="#cccccc" stroke-width="6.00" stroke-linecap="square" />
    <line id="wall_inner_0038_s0" x1="272.00" y1="221.00" x2="272.00" y2="216.00" stroke="#cccccc" stroke-width="6.00" stroke-linecap="square" />
    <line id="wall_inner_0039" x1="178.00" y1="326.00" x2="178.00" y2="300.00" stroke="#888888" stroke-width="6.00" stroke-linecap="square" />
    <line id="wall_inner_0040" x1="173.00" y1="133.00" x2="173.00" y2="143.00" stroke="#cccccc" stroke-width="6.00" stroke-linecap="square" />
    <line id="wall_inner_0041" x1="397.00" y1="384.00" x2="397.00" y2="350.00" stroke="#888888" stroke-width="6.00" stroke-linecap="square" />
    <line id="wall_inner_0042" x1="220.00" y1="387.00" x2="242.00" y2="387.00" stroke="#cccccc" stroke-width="6.00" stroke-linecap="square" />
    <line id="wall_inner_0043" x1="12.50" y1="93.01" x2="12.50" y2="72.99" stroke="#cccccc" stroke-width="6.00" stroke-linecap="square" />
    <line id="wall_inner_0044" x1="177.00" y1="214.00" x2="177.00" y2="194.00" stroke="#cccccc" stroke-width="6.00" stroke-linecap="square" />
    <line id="wall_inner_0046" x1="378.00" y1="359.00" x2="378.00" y2="380.00" stroke="#cccccc" stroke-width="6.00" stroke-linecap="square" />
    <line id="wall_inner_0047" x1="57.00" y1="121.00" x2="67.00" y2="121.00" stroke="#cccccc" stroke-width="6.00" stroke-linecap="square" />
    <line id="wall_inner_0048" x1="163.00" y1="121.00" x2="181.00" y2="121.00" stroke="#cccccc" stroke-width="6.00" stroke-linecap="square" />
    <line id="wall_inner_0049" x1="442.00" y1="202.00" x2="442.00" y2="191.00" stroke="#cccccc" stroke-width="6.00" stroke-linecap="square" />
    <line id="wall_inner_0050" x1="157.00" y1="385.00" x2="170.00" y2="385.00" stroke="#cccccc" stroke-width="6.00" stroke-linecap="square" />
    <line id="wall_inner_0051_s0" x1="104.98" y1="120.50" x2="111.02" y2="120.50" stroke="#cccccc" stroke-width="6.00" stroke-linecap="square" />
    <line id="wall_inner_0052" x1="150.99" y1="185.50" x2="168.01" y2="185.50" stroke="#cccccc" stroke-width="6.00" stroke-linecap="square" />
  </g>
  <g id="opening">
    <line id="window_0002" data-type="window" x1="378.00" y1="132.50" x2="378.00" y2="93.50" stroke="#3355cc" stroke-width="6.00" stroke-linecap="square" />
    <line id="window_0004" data-type="window" x1="224.53" y1="102.00" x2="179.53" y2="102.00" stroke="#3355cc" stroke-width="6.00" stroke-linecap="square" />
    <line id="window_0005" data-type="window" x1="429.00" y1="114.00" x2="441.00" y2="114.00" stroke="#3355cc" stroke-width="6.00" stroke-linecap="square" />
    <line id="window_0006" data-type="window" x1="86.98" y1="120.50" x2="104.98" y2="120.50" stroke="#3355cc" stroke-width="6.00" stroke-linecap="square" />
    <line id="window_0007" data-type="window" x1="136.00" y1="120.48" x2="136.00" y2="195.48" stroke="#3355cc" stroke-width="6.00" stroke-linecap="square" />
    <line id="window_0008" data-type="window" x1="13.00" y1="152.00" x2="51.00" y2="152.00" stroke="#3355cc" stroke-width="6.00" stroke-linecap="square" />
    <line id="window_0009" data-type="window" x1="243.00" y1="164.00" x2="243.00" y2="194.00" stroke="#3355cc" stroke-width="6.00" stroke-linecap="square" />
    <line id="window_0010" data-type="window" x1="511.00" y1="230.90" x2="511.00" y2="169.90" stroke="#3355cc" stroke-width="6.00" stroke-linecap="square" />
    <line id="window_0011" data-type="window" x1="272.00" y1="216.00" x2="272.00" y2="198.00" stroke="#3355cc" stroke-width="6.00" stroke-linecap="square" />
    <line id="window_0012" data-type="window" x1="101.00" y1="239.50" x2="101.00" y2="194.50" stroke="#3355cc" stroke-width="6.00" stroke-linecap="square" />
    <line id="window_0013" data-type="window" x1="428.07" y1="250.00" x2="460.07" y2="250.00" stroke="#3355cc" stroke-width="6.00" stroke-linecap="square" />
    <line id="window_0014" data-type="window" x1="380.25" y1="231.50" x2="380.25" y2="264.50" stroke="#3355cc" stroke-width="6.00" stroke-linecap="square" />
    <line id="window_0015" data-type="window" x1="173.00" y1="224.50" x2="173.00" y2="219.50" stroke="#3355cc" stroke-width="6.00" stroke-linecap="square" />
    <line id="window_0016" data-type="window" x1="272.00" y1="254.50" x2="272.00" y2="311.50" stroke="#3355cc" stroke-width="6.00" stroke-linecap="square" />
    <line id="window_0017" data-type="window" x1="428.82" y1="250.00" x2="458.82" y2="250.00" stroke="#3355cc" stroke-width="6.00" stroke-linecap="square" />
    <line id="window_0018" data-type="window" x1="116.00" y1="274.50" x2="116.00" y2="307.50" stroke="#3355cc" stroke-width="6.00" stroke-linecap="square" />
    <line id="window_0019" data-type="window" x1="437.25" y1="268.50" x2="437.25" y2="301.50" stroke="#3355cc" stroke-width="6.00" stroke-linecap="square" />
    <line id="window_0020" data-type="window" x1="321.00" y1="366.50" x2="321.00" y2="303.50" stroke="#3355cc" stroke-width="6.00" stroke-linecap="square" />
    <line id="window_0021" data-type="window" x1="511.00" y1="331.32" x2="511.00" y2="271.32" stroke="#3355cc" stroke-width="6.00" stroke-linecap="square" />
    <line id="window_0022" data-type="window" x1="244.00" y1="302.54" x2="244.00" y2="293.54" stroke="#3355cc" stroke-width="6.00" stroke-linecap="square" />
    <line id="window_0023" data-type="window" x1="272.00" y1="289.00" x2="272.00" y2="307.00" stroke="#3355cc" stroke-width="6.00" stroke-linecap="square" />
    <line id="window_0024" data-type="window" x1="157.00" y1="316.49" x2="157.00" y2="396.49" stroke="#3355cc" stroke-width="6.00" stroke-linecap="square" />
    <line id="window_0025" data-type="window" x1="244.00" y1="340.00" x2="244.00" y2="314.00" stroke="#3355cc" stroke-width="6.00" stroke-linecap="square" />
    <line id="window_0026" data-type="window" x1="157.00" y1="359.25" x2="157.00" y2="369.25" stroke="#3355cc" stroke-width="6.00" stroke-linecap="square" />
    <line id="window_0027" data-type="window" x1="191.50" y1="387.00" x2="204.50" y2="387.00" stroke="#3355cc" stroke-width="6.00" stroke-linecap="square" />
    <line id="window_0028" data-type="window" x1="74.50" y1="398.00" x2="92.50" y2="398.00" stroke="#3355cc" stroke-width="6.00" stroke-linecap="square" />
    <line id="window_0029" data-type="window" x1="164.00" y1="434.85" x2="164.00" y2="405.85" stroke="#3355cc" stroke-width="6.00" stroke-linecap="square" />
    <line id="window_0030" data-type="window" x1="164.00" y1="422.02" x2="164.00" y2="405.02" stroke="#3355cc" stroke-width="6.00" stroke-linecap="square" />
    <line id="window_0031" data-type="window" x1="155.00" y1="475.00" x2="155.00" y2="433.00" stroke="#3355cc" stroke-width="6.00" stroke-linecap="square" />
    <g id="door_0001" data-type="door"><line x1="75.95" y1="102.00" x2="105.95" y2="102.00" stroke="#222222" stroke-width="2" stroke-linecap="square" /><line x1="75.95" y1="102.00" x2="75.95" y2="132.00" stroke="#222222" stroke-width="1.5" /><path d="M 105.95 102.00 A 30.00 30.00 0 0 1 75.95 132.00" fill="none" stroke="#222222" stroke-width="1" stroke-dasharray="3 2" /></g>
  </g>
  <g id="icon">
    <polygon id="icon_0001" data-type="icon" points="62.00,108.00 58.00,109.00 57.00,110.00 57.00,112.00 56.00,113.00 58.00,115.00 62.00,115.00 62.00,112.00 60.00,110.00 60.00,109.00" fill="#4caf50" stroke="#2e7d32" stroke-width="1" />
    <polygon id="icon_0002" data-type="icon" points="105.00,125.00 103.00,210.00 110.00,211.00 112.00,129.00" fill="#4caf50" stroke="#2e7d32" stroke-width="1" />
    <polygon id="icon_0003" data-type="icon" points="443.00,128.00 443.00,144.00 444.00,146.00 448.00,146.00 444.00,143.00 444.00,141.00 450.00,135.00 450.00,132.00" fill="#4caf50" stroke="#2e7d32" stroke-width="1" />
    <polygon id="icon_0004" data-type="icon" points="375.00,141.00 375.00,142.00 373.00,144.00 373.00,145.00 371.00,147.00 370.00,147.00 373.00,148.00 375.00,146.00" fill="#4caf50" stroke="#2e7d32" stroke-width="1" />
    <polygon id="icon_0005" data-type="icon" points="169.00,187.00 160.00,189.00 162.00,213.00 138.00,202.00 139.00,252.00 172.00,250.00" fill="#4caf50" stroke="#2e7d32" stroke-width="1" />
    <polygon id="icon_0006" data-type="icon" points="184.00,213.00 183.00,219.00 175.00,221.00 175.00,254.00 193.00,256.00 196.00,241.00 191.00,225.00 198.00,218.00 201.00,220.00 202.00,214.00 198.00,217.00" fill="#4caf50" stroke="#2e7d32" stroke-width="1" />
    <polygon id="icon_0007" data-type="icon" points="393.00,256.00 390.00,255.00 386.00,257.00 383.00,254.00 382.00,257.00 383.00,266.00 384.00,259.00 385.00,258.00 393.00,258.00" fill="#4caf50" stroke="#2e7d32" stroke-width="1" />
    <polygon id="icon_0008" data-type="icon" points="60.00,258.00 59.00,277.00 88.00,275.00 88.00,266.00 92.00,259.00" fill="#4caf50" stroke="#2e7d32" stroke-width="1" />
    <polygon id="icon_0009" data-type="icon" points="240.00,300.00 218.00,299.00 232.00,315.00 224.00,362.00 189.00,358.00 179.00,302.00 161.00,382.00 241.00,381.00" fill="#4caf50" stroke="#2e7d32" stroke-width="1" />
    <polygon id="icon_0010" data-type="icon" points="431.00,297.00 432.00,315.00 436.00,322.00 436.00,300.00 434.00,297.00" fill="#4caf50" stroke="#2e7d32" stroke-width="1" />
    <polygon id="icon_0011" data-type="icon" points="119.00,298.00 116.00,301.00 118.00,336.00 120.00,303.00 129.00,314.00 123.00,317.00 125.00,320.00 130.00,303.00" fill="#4caf50" stroke="#2e7d32" stroke-width="1" />
    <polygon id="icon_0012" data-type="icon" points="423.00,308.00 420.00,313.00 421.00,318.00 415.00,320.00 416.00,343.00 428.00,343.00 426.00,324.00 422.00,318.00 426.00,309.00" fill="#4caf50" stroke="#2e7d32" stroke-width="1" />
    <polygon id="icon_0013" data-type="icon" points="382.00,313.00 381.00,378.00 393.00,380.00 395.00,330.00" fill="#4caf50" stroke="#2e7d32" stroke-width="1" />
    <polygon id="icon_0014" data-type="icon" points="118.00,339.00 116.00,374.00 124.00,379.00 123.00,373.00 135.00,357.00 126.00,347.00 120.00,352.00" fill="#4caf50" stroke="#2e7d32" stroke-width="1" />
    <polygon id="icon_0015" data-type="icon" points="489.00,370.00 489.00,374.00 491.00,374.00 492.00,375.00 497.00,375.00 497.00,372.00 494.00,372.00 490.00,369.00" fill="#4caf50" stroke="#2e7d32" stroke-width="1" />
    <polygon id="icon_0016" data-type="icon" points="123.00,391.00 121.00,442.00 131.00,443.00 131.00,394.00" fill="#4caf50" stroke="#2e7d32" stroke-width="1" />
  </g>
  <g id="debug">
    <line x1="143.0" y1="102.0" x2="101.0" y2="102.0" stroke="#ff8800" stroke-width="2" stroke-dasharray="6 3" data-id="opening_0003" data-type="unresolved" />
  </g>
</svg>
