<svg xmlns="http://www.w3.org/2000/svg" width="512" height="512" viewBox="0 0 512 512" data-unit="px" data-scale-status="unknown" data-px-to-mm="" data-scale-source="scale_conflict_door_vs_wall">
  <g id="floor">
    <polygon id="floor_0" class="floor" points="40.0,31.0 40.0,482.0 141.0,482.0 141.0,511.0 202.0,511.0 202.0,455.0 490.0,455.0 490.0,373.0 490.0,416.0 379.0,416.0 379.0,357.0 320.0,357.0 320.0,224.0 434.0,224.0 434.0,294.0 465.0,294.0 465.0,194.0 308.0,194.0 308.0,31.0" fill="#ffffff" stroke="none" />
  </g>
  <g id="wall">
    <path d="M 49.00,45.00 49.00,72.00 59.00,72.00 59.00,45.00 49.00,45.00 Z M 62.00,123.00 62.00,73.00 52.00,73.00 52.00,123.00 62.00,123.00 Z M 56.00,178.00 66.00,178.00 66.00,176.00 66.00,152.00 66.00,145.00 65.00,145.00 65.00,139.00 55.00,139.00 55.00,151.00 56.00,151.00 56.00,152.00 56.00,176.00 56.00,178.00 Z M 59.00,182.00 59.00,203.00 69.00,203.00 69.00,182.00 59.00,182.00 Z M 292.00,203.00 298.00,203.00 298.00,185.00 288.00,185.00 288.00,197.00 187.00,197.00 187.00,207.00 292.00,207.00 292.00,203.00 Z M 99.00,202.00 99.00,212.00 176.00,212.00 176.00,202.00 99.00,202.00 Z M 65.00,206.00 65.00,208.00 59.00,208.00 59.00,224.00 69.00,224.00 69.00,216.00 87.00,216.00 87.00,206.00 65.00,206.00 Z M 71.00,268.00 71.00,225.00 61.00,225.00 61.00,268.00 71.00,268.00 Z M 66.00,282.00 66.00,306.00 76.00,306.00 76.00,282.00 66.00,282.00 Z M 76.00,315.00 66.00,315.00 66.00,325.00 76.00,325.00 76.00,315.00 Z M 65.00,342.00 75.00,342.00 75.00,326.00 65.00,326.00 65.00,342.00 Z M 62.00,353.00 62.00,372.00 72.00,372.00 72.00,353.00 62.00,353.00 Z M 69.00,385.00 69.00,373.00 59.00,373.00 59.00,385.00 69.00,385.00 Z M 58.00,386.00 58.00,409.00 68.00,409.00 68.00,386.00 58.00,386.00 Z M 90.00,452.85 70.62,432.55 63.38,439.45 84.38,461.45 90.00,456.09 90.00,457.00 149.00,457.00 149.00,447.00 90.00,447.00 90.00,452.85 Z M 291.00,67.00 291.00,45.00 281.00,45.00 281.00,67.00 291.00,67.00 Z M 291.00,127.00 291.00,77.00 281.00,77.00 281.00,127.00 291.00,127.00 Z M 295.00,141.00 285.00,141.00 285.00,169.00 295.00,169.00 295.00,141.00 Z M 455.00,224.00 455.00,207.00 445.00,207.00 445.00,224.00 455.00,224.00 Z M 296.00,241.00 306.00,241.00 306.00,207.00 296.00,207.00 296.00,241.00 Z M 306.00,264.00 306.00,249.00 296.00,249.00 296.00,264.00 306.00,264.00 Z M 207.00,460.00 495.00,460.00 495.00,421.00 495.00,373.00 485.00,373.00 485.00,411.00 384.00,411.00 384.00,352.00 325.00,352.00 325.00,229.00 429.00,229.00 429.00,299.00 470.00,299.00 470.00,189.00 313.00,189.00 313.00,26.00 35.00,26.00 35.00,487.00 136.00,487.00 136.00,516.00 207.00,516.00 207.00,460.00 Z M 114.00,36.00 211.00,36.00 211.00,43.00 286.00,43.00 286.00,36.00 303.00,36.00 303.00,196.00 301.00,196.00 301.00,206.00 338.00,206.00 338.00,199.00 419.00,199.00 419.00,205.00 450.00,205.00 450.00,199.00 460.00,199.00 460.00,234.00 452.00,234.00 452.00,273.00 460.00,273.00 460.00,289.00 439.00,289.00 439.00,219.00 315.00,219.00 315.00,362.00 374.00,362.00 374.00,421.00 485.00,421.00 485.00,450.00 197.00,450.00 197.00,506.00 146.00,506.00 146.00,477.00 45.00,477.00 45.00,36.00 54.00,36.00 54.00,43.00 114.00,43.00 114.00,36.00 Z M 298.00,265.00 298.00,281.00 308.00,281.00 308.00,265.00 298.00,265.00 Z M 313.00,282.00 303.00,282.00 303.00,380.00 309.00,380.00 309.00,435.00 166.00,435.00 166.00,445.00 319.00,445.00 319.00,435.00 319.00,374.00 313.00,374.00 313.00,282.00 Z M 466.00,425.00 452.00,425.00 452.00,435.00 466.00,435.00 466.00,425.00 Z M 446.00,427.00 383.00,427.00 383.00,437.00 446.00,437.00 446.00,427.00 Z M 347.00,429.00 330.00,429.00 330.00,439.00 347.00,439.00 347.00,429.00 Z M 358.00,429.00 358.00,439.00 374.00,439.00 374.00,429.00 358.00,429.00 Z" fill="#000000" fill-rule="evenodd" stroke="none" id="wall_polygon" />
  </g>
</svg>
